<svg xmlns="http://www.w3.org/2000/svg" width="162.338" height="189.419" viewBox="0 0 162.338 189.419">
  <g id="Group_11481" data-name="Group 11481" transform="translate(-1658.187 -55.73)">
    <g id="Group_5" data-name="Group 5" transform="translate(1690.271 55.73)">
      <path id="Path_2" data-name="Path 2" d="M250.76,156.306a29.157,29.157,0,0,0-8.206-9.7,7.44,7.44,0,0,0,.1,3.2c.37,1.639.829,3.253,1.188,4.9a7.65,7.65,0,0,1-1.309,6.442c-.447-.04-.467-.342-.535-.548-1.578-4.787-3.124-9.578-4.4-14.458a29.635,29.635,0,0,1-.713-7.573c0-1.019.048-2.037.1-3.056.089-1.566.805-2.082,2.315-1.7a6.088,6.088,0,0,1,1.929.906,30.486,30.486,0,0,1,8.455,8.91,58.764,58.764,0,0,1,8.826,21.311c1.88,9.913,1.747,19.729-1.7,29.392-.672,1.876-1.647,3.624-2.444,5.423a3.071,3.071,0,0,1-.616.962h0a2.892,2.892,0,0,1-.636.918h0a3.174,3.174,0,0,1-.958,1.236c-3.463,3.744-7.863,5.907-12.626,7.432a56.8,56.8,0,0,1-18.158,2.947,6.275,6.275,0,0,1-3.4-.741c.193-.616.757-.552,1.131-.668,1.8-.564,3.6-1.119,5.427-1.566,5.061-1.208,9.611-3.624,14.092-6.144,1.611-.9,3.08-1.989,4.622-2.975a25.541,25.541,0,0,0,8.656-9.687,48.076,48.076,0,0,0,3.978-9.9,20.1,20.1,0,0,0,.664-7.114c-.27-3.358-.193-3.124-1.9-9.86a43.049,43.049,0,0,0-1.743-4.429c-1.007-2.1-2.037-3.426-2.178-3.793" transform="translate(-162.302 -79.863)" fill="#c89b2c"/>
      <path id="Path_3" data-name="Path 3" d="M186.421,58.357l-3.946,6.116a52.177,52.177,0,0,1-3.177-4.856,71.042,71.042,0,0,1-7.034-14.527C169.2,35.9,169.446,26.9,173.738,18.115a3.235,3.235,0,0,0,.149-.431c.121-.209.06-.5.31-.648h0a6.963,6.963,0,0,1,.56-.962h0c.2-.153.137-.443.322-.6a61.732,61.732,0,0,1,8.592-10.645,4.477,4.477,0,0,1,1.808-1.59h0a1.734,1.734,0,0,1,.322-.3h0a.781.781,0,0,1,.334-.3h0a.548.548,0,0,1,.374-.31,19.96,19.96,0,0,0,2.416-1.82c.362-.322.556-.254.56.242a86.986,86.986,0,0,0-8.173,14.809,33.78,33.78,0,0,0-2.883,14.728,35.154,35.154,0,0,0,3.873,13.85,74.5,74.5,0,0,0,5.536,9.49c.721,1.055.833,1.876-.048,2.818a9.714,9.714,0,0,0-.733.97c-.226.121-.161.431-.362.568h0a1.865,1.865,0,0,0-.25.37" transform="translate(-133.756 -0.186)" fill="#c89b2c"/>
      <path id="Path_4" data-name="Path 4" d="M114.3,237.162a36,36,0,0,0,6.088-6.99c.258-.129.209-.4.334-.62h0c.242-.129.177-.431.334-.6h0c.213-.169.157-.455.286-.66a21.162,21.162,0,0,0,1-11.273A10.146,10.146,0,0,0,122,215.69c-1.61-4.981-7-6.4-10.847-2.839a10.441,10.441,0,0,0-2.609,3.72,3.386,3.386,0,0,0,0,2.665,41.828,41.828,0,0,0,2.416,4.586,12.143,12.143,0,0,1,.656,11.273c-.362.169-.475-.149-.656-.338a84.227,84.227,0,0,0-4.566-8.584,12.593,12.593,0,0,1-1.441-8.858,22.185,22.185,0,0,1,3.322-8.455,10.168,10.168,0,0,1,12.389-4.054.656.656,0,0,1,.382.306h0a2.17,2.17,0,0,1,.946.9h0c.7.31.862,1.015,1.208,1.611,3.1,6.269,3.012,12.884,2.013,19.564a27.028,27.028,0,0,1-2.311,7.4,21.742,21.742,0,0,1-7.823,9.16,39.022,39.022,0,0,1-16.789,6.49,12.808,12.808,0,0,1-4.856-.185,2.668,2.668,0,0,1-1.848-1.019c3.793-1.389,7.513-2.685,11.1-4.3a54.089,54.089,0,0,0,10.066-6.309.8.8,0,0,0,.358-.282h0a5.761,5.761,0,0,0,1.208-.986" transform="translate(-86.794 -121.894)" fill="#c89b2c"/>
      <path id="Path_9" data-name="Path 9" d="M146.208,286.29a1.264,1.264,0,0,1-1.208.987,2.114,2.114,0,0,1,1.208-.987" transform="translate(-118.7 -171.023)" fill="#c8ab5c"/>
      <path id="Path_10" data-name="Path 10" d="M139.693,280.41l.656.338c0,.193-.056.439-.282.366a.636.636,0,0,1-.374-.7" transform="translate(-115.523 -167.51)" fill="#cdb27b"/>
      <path id="Path_11" data-name="Path 11" d="M163.5,267.39c.044.29,0,.523-.334.62a.685.685,0,0,1,.334-.62" transform="translate(-129.553 -159.732)" fill="#d3a95d"/>
      <path id="Path_12" data-name="Path 12" d="M164.263,265.92a.483.483,0,0,1-.334.6.648.648,0,0,1,.334-.6" transform="translate(-130.007 -158.854)" fill="#d3a95d"/>
      <path id="Path_13" data-name="Path 13" d="M165.029,264.3a.54.54,0,0,1-.286.656.636.636,0,0,1,.286-.656" transform="translate(-130.487 -157.886)" fill="#d3a95d"/>
      <path id="Path_14" data-name="Path 14" d="M211.112,142.688a.515.515,0,0,1,.362-.568.572.572,0,0,1-.362.568" transform="translate(-158.19 -84.899)" fill="#ccaf68"/>
      <path id="Path_15" data-name="Path 15" d="M210.48,143.93a.378.378,0,0,1,.25-.37.378.378,0,0,1-.25.37" transform="translate(-157.815 -85.759)" fill="#ccaf68"/>
      <path id="Path_16" data-name="Path 16" d="M144.462,288.73a.379.379,0,0,1-.362.282.4.4,0,0,1,.362-.282" transform="translate(-118.162 -172.48)" fill="#c8ab5c"/>
      <g id="Group_11498" data-name="Group 11498">
        <path id="Path_1" data-name="Path 1" d="M187.24,119.813c-2.673-4.155-3.434-8.858-4-13.641-.31-2.637-.306-5.29-.4-7.94a46.715,46.715,0,0,1,4.791-21.565,125.615,125.615,0,0,1,9.462-16.045c2.742-4.111,5.544-8.185,8.016-12.481a48.1,48.1,0,0,0,5.266-12.32,31.3,31.3,0,0,0-1.309-18.613,74.357,74.357,0,0,0-7.324-14.237A14.045,14.045,0,0,1,200.2,0c.31.213.624.4.922.644A54.169,54.169,0,0,1,212.1,11.652Q223.376,27,217.336,45.07c-2.013,6.084-5.2,11.6-8.616,16.983-3.2,5.033-6.647,9.9-9.719,15.014a56.674,56.674,0,0,0-7.018,15.855,35.761,35.761,0,0,0-.33,14.716c.874,4.98,3.962,7.9,8.826,8.962a14.527,14.527,0,0,0,10.223-1.425c3.177-1.691,6.281-5.2,5.427-10.372-.507-.3-.841.153-1.228.318a21.949,21.949,0,0,1-3.06,1.369,7.779,7.779,0,0,1-9.562-9.317,20.261,20.261,0,0,1,1.119-3.322,7.137,7.137,0,0,1,5.387-4.288,4.944,4.944,0,0,1,4.3,1.1,8.935,8.935,0,0,1,2.472,3.08,35.383,35.383,0,0,1,4.127,16.278A17.7,17.7,0,0,1,202.7,127.338,19,19,0,0,1,192.1,124.52c-.137-.2-.471-.109-.568-.378l.028.024a.652.652,0,0,1-.366-.27h0c-.511-.4-1.276-.519-1.506-1.264h0a.552.552,0,0,1-.33-.326h0a.35.35,0,0,1-.314-.314h0a4.087,4.087,0,0,1-1.836-2.222" transform="translate(-141.292)" fill="#fff"/>
        <path id="Path_5" data-name="Path 5" d="M125.967,124.386a57.216,57.216,0,0,1,.628-6.076,7.849,7.849,0,0,1,2.694-4.832,4.667,4.667,0,0,1,3.257-1.067,2.939,2.939,0,0,1,2.9,2.625,2.58,2.58,0,0,1,.036.608,39.81,39.81,0,0,1-1.248,6.285c-1.973-1.7-2.923-1.611-4.429.4a7.374,7.374,0,0,0-1.18,6.531,10.871,10.871,0,0,0,3.483,5.637,3.779,3.779,0,0,1,1.083,1.051,4.566,4.566,0,0,1-2.363,0c-2.963-.676-4.876-2.657-6.277-5.186A20.521,20.521,0,0,1,122.21,119.6a51.878,51.878,0,0,1,2.114-11.841,11.938,11.938,0,0,0,.479-3.769,5.275,5.275,0,0,0-.745-2.46,2.571,2.571,0,0,0-3.656-1.063,4.735,4.735,0,0,0-1.949,1.7c.169.4.6.306.886.427a3.241,3.241,0,0,1,2.041,3.543,3.386,3.386,0,0,1-3.02,2.975,3.126,3.126,0,0,1-3.386-2.267,4.473,4.473,0,0,1-.254-1.953,7.35,7.35,0,0,1,7.2-6.229,4.61,4.61,0,0,1,4.228,2.778A9.222,9.222,0,0,1,126.41,108a45.749,45.749,0,0,0-1.739,8.975,21.6,21.6,0,0,0,.737,7.408c.189.213.378.761.56,0" transform="translate(-100.601 -58.936)" fill="#fff"/>
        <path id="Path_6" data-name="Path 6" d="M93.163,183.921a16.159,16.159,0,0,1-.262,3.495,3.958,3.958,0,0,1-2.323,3.181,40.738,40.738,0,0,1-4.562,1.735c-1.156.4-2.315.777-3.463,1.208-.644.238-.982,0-1.079-.624a13.8,13.8,0,0,1,.483-6.8,3.42,3.42,0,0,1,1.965-1.828,18.012,18.012,0,0,1,3.487-1.107,13.513,13.513,0,0,0,4.763-1.981c.624-.443.93-.31.994.427s0,1.526,0,2.291" transform="translate(-80.62 -108.095)" fill="#fff"/>
        <path id="Path_7" data-name="Path 7" d="M245.414,183.3a3.779,3.779,0,0,1-.548,1.357c-1.152,1.925-2.541,3.692-3.853,5.508-.56.777-1.011.858-1.856.4a46.842,46.842,0,0,1-5.166-3.535.926.926,0,0,1-.233-1.24,7.9,7.9,0,0,1,.64-1.208c1.288-1.836,2.609-3.648,3.9-5.484a1.114,1.114,0,0,1,1.687-.4c1.82,1.039,3.342,2.5,5.138,3.579.362.217.33.6.294,1.019" transform="translate(-171.636 -106.612)" fill="#fff"/>
        <path id="Path_8" data-name="Path 8" d="M283.831,340.2a25.722,25.722,0,0,0,3.318-3.132,12.416,12.416,0,0,0,1.007-1.341c.56-.926.443-1.208-.62-1.478-.785-.193-1.61-.258-2.388-.479-1.61-.451-2.013-1.127-1.989-2.766a16.135,16.135,0,0,1,1.675-6.6,6.309,6.309,0,0,1,2.879-3.052c.874-.431,1.393-.1,1.353.894a13.281,13.281,0,0,1-.64,2.975c-.157.552-.729.672-1.151.93-.56.346-1.16.632-1.425,1.309s-.113,1.107.544,1.341a8.739,8.739,0,0,0,2.09.4c2.323.221,2.842.773,2.653,3.108a12.015,12.015,0,0,1-1.5,5.077,6.751,6.751,0,0,1-4.791,3.193c-.4.048-.946.451-1.01-.4" transform="translate(-201.231 -191.86)" fill="#fff"/>
        <path id="Path_17" data-name="Path 17" d="M93.694,243.053a3.567,3.567,0,0,0-3.153-2.283,6.414,6.414,0,0,0-6.124,2.665A22.66,22.66,0,0,0,79.776,255.2a15.008,15.008,0,0,0,.9,7.356,4.214,4.214,0,0,0,4.88,2.766,5.532,5.532,0,0,0,2.665-1.063,12,12,0,0,0,4.594-5.947,37.791,37.791,0,0,0,1.776-9.84,14.043,14.043,0,0,0-.9-5.427M90.01,253c0,.137-.089.487-.117.841-.149,1.949-1.325,2.9-3.684,3.1a2.274,2.274,0,0,1-2.609-2.359,5.492,5.492,0,0,1,2.5-4.96,2.282,2.282,0,0,1,3.467.942A4.715,4.715,0,0,1,90.01,253" transform="translate(-79.678 -143.794)" fill="#fff"/>
      </g>
    </g>
    <g id="Group_11499" data-name="Group 11499">
      <g id="Group_6" data-name="Group 6" transform="translate(1658.205 215.048)">
        <g id="Group_1" data-name="Group 1" transform="translate(91.74)">
          <path id="Path_18" data-name="Path 18" d="M275.7,403.353c0,1.574,0,3.153.032,4.731,0,.576-.189.805-.805.805q-4.658-.024-9.317,0c-.532,0-.713-.217-.713-.725v-7.791c0-.515.185-.745.713-.709.4.028.805,0,1.461,0a1.876,1.876,0,0,0-.632,1.486c0,2.086.024,4.175,0,6.261,0,.648.189.966.866.874,1.023-.141,2.106.33,3.076-.318.7-.189,1.433.4,2.134-.052.922-.109,1.208-.672,1.208-1.542.036-1.019-.262-2.094.362-3.044.833.036.7.721.757,1.208.093.874.032,1.751.036,2.782.1-1,0-1.86.085-2.7.06-.5-.1-1.168.7-1.276" transform="translate(-249.999 -398.065)" fill="#fff"/>
          <path id="Path_20" data-name="Path 20" d="M278.638,412.513c-.765.648-1.345.109-1.945-.3-1.949-1.647-1.57-4.1.777-5.029a11.448,11.448,0,0,1,5.113-.29l-.584.7c-.463.4-.282.938-.294,1.421-.028,1.063,0,2.126-.028,3.185a.45.45,0,0,1-.443.507c-.294,0-.431-.246-.435-.519,0-1.059,0-2.122-.028-3.185,0-.479.181-1.027-.326-1.4a1.537,1.537,0,0,1-.805.358c-2.3.467-2.851,2.049-1.369,3.913a1.422,1.422,0,0,1,.378.64" transform="translate(-256.296 -402.305)" fill="#fff"/>
          <path id="Path_21" data-name="Path 21" d="M314.077,412.382c-1.928-1.84-1.457-4.2,1.039-5.045,1.522-.511,3.092-.242,4.683-.29-.652,1.884-.205,3.716-.37,5.5,0,.805-.6.539-.974.5-.576-.056-.628-.588-.693-1.039-.165-1.156.161-2.343-.217-3.479a1.691,1.691,0,0,0-2.613,1.127,5.024,5.024,0,0,0-.068,1.345,3.482,3.482,0,0,0,.1.58c.052.125.1.25.137.375a1.673,1.673,0,0,1,.093.4.9.9,0,0,1-.04.2.447.447,0,0,1-.7.1h0a.6.6,0,0,0-.4-.278" transform="translate(-278.667 -402.46)" fill="#fff"/>
          <path id="Path_24" data-name="Path 24" d="M298.445,399.689a1.833,1.833,0,0,0-.745,1.84c0,2.178-.02,4.36,0,6.539,0,.693-.294.866-.918.842-.451-.02-.632-.2-.632-.636v-7.908c0-.527.229-.713.737-.68.4.024.805,0,1.55,0" transform="translate(-268.667 -398.077)" fill="#fff"/>
          <path id="Path_28" data-name="Path 28" d="M345.633,411.017h-1.522c.737-1.268.475-2.617.334-3.958a2.238,2.238,0,0,0-2.416-1.425c-1.8.036-3.624,0-5.669,0a9.742,9.742,0,0,1,1.852-1.977c.157-.064.3-.145.326-.334h0c.342-.032.5.1.4.459s-.628.5-.568,1.119c1.494,0,2.992-.032,4.485,0a2.945,2.945,0,0,1,3.112,2.661c-.036,1.156.568,2.376-.354,3.438" transform="translate(-292.687 -400.25)" fill="#fff"/>
          <path id="Path_29" data-name="Path 29" d="M363.752,413.253c-.455,1.892-.906,2.363-2.742,2.706a4.047,4.047,0,0,0,1.172-3.4c-.036-1.474,0-2.947,0-4.429,0-1.208,0-1.208,1.284-1.208.2,0,.4-.04.576.129-.62,1.8-.189,3.66-.294,5.488a.576.576,0,0,1,0,.7" transform="translate(-307.413 -402.401)" fill="#fff"/>
          <path id="Path_31" data-name="Path 31" d="M319.747,413.234c.777-1.264-.23-3.479.4-4.344.463.238.354.676.358,1.059,0,1.055-.02,2.11,0,3.161s.225,1.1,1.26.56a56.744,56.744,0,0,0,5.911.109c1.417.028,2.839-.032,4.256.02.765.028.97-.29.922-.982-.056-.805-.064-1.61-.093-2.416.382,1.361.777,2.722-.334,3.958l-13.222.073a8.633,8.633,0,0,1-.914-.024,2.146,2.146,0,0,1-1.494-.624.805.805,0,0,0,.68-.362c.234-.109.717.225,1.5.089" transform="translate(-281.003 -403.578)" fill="#fff"/>
          <path id="Path_34" data-name="Path 34" d="M249.038,408.052a1.091,1.091,0,0,1,.765-1.3,3.472,3.472,0,0,1,4.3,1.534,3.151,3.151,0,0,1-1.61,4.385c-.374.06-.846.4-.974-.306a3.382,3.382,0,0,0,1.119-3.9c-.544-1.292-1.965-1.47-3.257-.4a.234.234,0,0,1-.354,0" transform="translate(-240.506 -402.16)" fill="#fff"/>
          <path id="Path_36" data-name="Path 36" d="M393.6,412.553a1.585,1.585,0,0,0,.733-1.562V408.1c0-1.228,0-1.228,1.292-1.236h.833c-.733,1.011-.463,2.074-.475,3.092a3.193,3.193,0,0,1-1.208,2.818,1.606,1.606,0,0,1-.423.149c-.322.04-.733.278-.741-.35" transform="translate(-326.881 -402.365)" fill="#fff"/>
          <path id="Path_38" data-name="Path 38" d="M384.97,413.22a1.38,1.38,0,0,0-1.824.02,1.433,1.433,0,0,1-1.816-.036.4.4,0,0,1,.35-.322c1.349-.1,1.526-.242,1.57-1.45.036-.91,0-1.82,0-2.726,0-1.288,0-1.288,1.361-1.3h.773c-.805.805-.515,1.751-.556,2.629-.024.5,0,1.011,0,1.514a1.461,1.461,0,0,0,.805,1.353c0,.588-.362.4-.676.314" transform="translate(-319.551 -402.694)" fill="#fff"/>
          <path id="Path_40" data-name="Path 40" d="M377.212,413.269l-.35.322c-.592-.225-1.18-.544-1.776,0-.463.117-.982.479-1.236-.286a2.315,2.315,0,0,0,1.208-2.279v-1.679c0-1.292,0-1.292,1.353-1.288.153,0,.3.028.455.04s.153.121.125.193-.064.1-.1.1c-.4,1.659-.7,3.314.294,4.888" transform="translate(-315.083 -403.081)" fill="#fff"/>
          <path id="Path_43" data-name="Path 43" d="M239.993,407.356l-.427.052c-.443,1.466-.117,2.963-.2,4.429-.072,1.325-.109,1.365-1.518.93-.5-.946-.246-1.973-.3-2.967a3.475,3.475,0,0,0-.258-1.61c-.205-.322-.576-.4-.866-.6s-.552-.366-.085-.644h3.169c.209,0,.692-.169.483.4" transform="translate(-232.786 -402.402)" fill="#fff"/>
          <path id="Path_44" data-name="Path 44" d="M229.872,413.023a.169.169,0,0,1-.221-.113.805.805,0,0,1-.278-.234h0a2.868,2.868,0,0,1-.3-.29h0a1.026,1.026,0,0,1-.246-.282.129.129,0,0,1-.109-.177.728.728,0,0,0-.229-.443.157.157,0,0,1-.06-.229,2.014,2.014,0,0,1-.121-.954v-.37a2.683,2.683,0,0,1,.181-.684,1.6,1.6,0,0,1,.165-.294,2.508,2.508,0,0,1,.213-.25c.036-.036.076-.072.113-.113s.149-.153.225-.229l.113-.113a1.741,1.741,0,0,1,.25-.205l.282-.161c.153-.068.31-.125.463-.185l.33-.081a.615.615,0,0,1,.616.205.4.4,0,0,1,0,.322,1.614,1.614,0,0,1-.382.3l-.25.181-.221.205a1.419,1.419,0,0,0-.1.113,2.12,2.12,0,0,0-.181.242,1.462,1.462,0,0,0-.068.137,3.01,3.01,0,0,0-.1.459,3.141,3.141,0,0,1-.089.479,1.341,1.341,0,0,0,0,.632,3.893,3.893,0,0,1,.1.479,4.438,4.438,0,0,0,.1.459c.044.1.081.189.125.282a1.427,1.427,0,0,0,.31.35,2.553,2.553,0,0,1,.262.205,1.083,1.083,0,0,1,.205.278.643.643,0,0,0,.044.173.4.4,0,0,1-.165.3.807.807,0,0,1-.354-.065h-.129l-.1-.089a.931.931,0,0,0-.4-.229" transform="translate(-228.133 -402.806)" fill="#fff"/>
          <path id="Path_45" data-name="Path 45" d="M233.76,413.632l.4-.076a1.207,1.207,0,0,1,.515-.507,2.118,2.118,0,0,1,1.9.161c1,.487,1.208.431,1.24-.447.048-1.1,0-2.2.024-3.3,0-.471-.181-1.019.354-1.365-.024,1.61-.08,3.221-.064,4.86,0,.693-.173,1.071-.934.982-1.135-.133-2.323.294-3.418-.31" transform="translate(-231.397 -403.106)" fill="#fff"/>
          <path id="Path_47" data-name="Path 47" d="M342.213,402.076l-.4-.459a4.076,4.076,0,0,1,.479-.548c1.208-.978,1.7-.886,2.859.805a2.089,2.089,0,0,0-2.923.229" transform="translate(-295.943 -398.532)" fill="#fff"/>
          <path id="Path_53" data-name="Path 53" d="M282.889,401.814a.777.777,0,0,1-.854-.693.713.713,0,0,1,.749-.89.668.668,0,0,1,.749.737.769.769,0,0,1-.644.846" transform="translate(-260.222 -398.403)" fill="#fff"/>
          <path id="Path_54" data-name="Path 54" d="M239.993,401.814a.777.777,0,0,1-.85-.693.709.709,0,0,1,.749-.89.668.668,0,0,1,.749.737.773.773,0,0,1-.648.846" transform="translate(-234.598 -398.403)" fill="#fff"/>
          <path id="Path_55" data-name="Path 55" d="M235.564,401.815a.769.769,0,0,1-.85-.693.709.709,0,0,1,.745-.89.672.672,0,0,1,.753.737.773.773,0,0,1-.648.846" transform="translate(-231.952 -398.403)" fill="#fff"/>
          <path id="Path_56" data-name="Path 56" d="M251.339,421.05c.246.354.636.241.974.306-1.208.6-2.416.29-3.624.1.805-.672,1.78-.278,2.665-.4" transform="translate(-240.315 -410.842)" fill="#fff"/>
          <path id="Path_57" data-name="Path 57" d="M318.571,400.968c-.052.5-.274.805-.745.805a.769.769,0,0,1-.805-.866.741.741,0,0,1,.906-.745c.491.052.636.4.648.805" transform="translate(-281.131 -398.353)" fill="#fff"/>
          <path id="Path_58" data-name="Path 58" d="M323.746,400.969c-.048.5-.274.805-.741.805a.765.765,0,0,1-.805-.866.741.741,0,0,1,.9-.745.7.7,0,0,1,.648.805" transform="translate(-284.224 -398.354)" fill="#fff"/>
          <path id="Path_61" data-name="Path 61" d="M294.719,426.4a.282.282,0,0,1,.274-.262c.354-.121.423.068.4.366h-.02a1.035,1.035,0,0,0,.028,1.208c.423.4,1.047.181,1.518.491a6.1,6.1,0,0,1-2.7.056l.515-.459c-.06-.125-.125-.25-.189-.37a.672.672,0,0,1-.02-.636c.064-.129.185-.229.205-.4" transform="translate(-267.514 -413.858)" fill="#fff"/>
          <path id="Path_62" data-name="Path 62" d="M370.254,420.936c.33.435.805.209,1.236.286-.544.531-1.228.306-1.856.342s-1.208,0-1.8,0v-.7l2.436.06" transform="translate(-311.487 -410.728)" fill="#fff"/>
          <path id="Path_63" data-name="Path 63" d="M387.423,397.224a.653.653,0,0,1-.568,0,.637.637,0,0,1-.3-.246.757.757,0,0,1,.193-1.172.644.644,0,0,1,.721,0,.773.773,0,0,1,.23,1.172.4.4,0,0,1-.278.238" transform="translate(-322.556 -395.696)" fill="#fff"/>
          <path id="Path_64" data-name="Path 64" d="M384.826,401.731a.661.661,0,0,1-.564,0,.6.6,0,0,1-.3-.25.749.749,0,0,1,.193-1.168.636.636,0,0,1,.721,0,.773.773,0,0,1,.226,1.172.4.4,0,0,1-.278.237" transform="translate(-321.006 -398.388)" fill="#fff"/>
          <path id="Path_65" data-name="Path 65" d="M389.906,401.731a.668.668,0,0,1-.568,0,.6.6,0,0,1-.294-.25.749.749,0,0,1,.193-1.168.636.636,0,0,1,.721,0,.773.773,0,0,1,.226,1.172.4.4,0,0,1-.278.237" transform="translate(-324.04 -398.388)" fill="#fff"/>
          <path id="Path_68" data-name="Path 68" d="M359.39,417.339c.58-1.1.109-2.3.354-3.438a8.465,8.465,0,0,1,.177,3.1c0,.31-.254.382-.531.338" transform="translate(-306.445 -406.571)" fill="#fff"/>
          <path id="Path_69" data-name="Path 69" d="M296.5,426.106l-.4-.366c1.147-.439,1.147-.439,1.876.242a1.5,1.5,0,0,0-1.49.125" transform="translate(-268.637 -413.462)" fill="#fff"/>
          <path id="Path_70" data-name="Path 70" d="M390.37,421.344c.246-.056.523-.056.676-.314l.624-.02c.169.286.467.294.741.35a1.739,1.739,0,0,1-2.041,0" transform="translate(-324.952 -410.818)" fill="#fff"/>
          <path id="Path_72" data-name="Path 72" d="M296.6,428.288a.7.7,0,0,1-.024-1.208,2.472,2.472,0,0,0,.024,1.208" transform="translate(-268.726 -414.444)" fill="#fff"/>
          <path id="Path_73" data-name="Path 73" d="M227.906,413.223c.081-.06.161-.121.246-.173v1.437c-.362-.366-.153-.849-.262-1.264" transform="translate(-227.89 -406.063)" fill="#fff"/>
          <path id="Path_78" data-name="Path 78" d="M381.434,408.343a1.473,1.473,0,0,1-.024-.3c.193-.081.475-.077.491.1s-.27.209-.467.2" transform="translate(-319.599 -403.043)" fill="#fff"/>
          <path id="Path_79" data-name="Path 79" d="M229.568,418.73l.242.282a.254.254,0,0,1-.242-.282" transform="translate(-228.891 -409.456)" fill="#fff"/>
          <path id="Path_80" data-name="Path 80" d="M294.993,429.38c.06.125.125.246.189.37a.35.35,0,0,1-.189-.37" transform="translate(-267.973 -415.818)" fill="#fff"/>
          <path id="Path_81" data-name="Path 81" d="M295.145,426.84l-.205.4a.367.367,0,0,1,.205-.4" transform="translate(-267.94 -414.301)" fill="#fff"/>
          <path id="Path_82" data-name="Path 82" d="M232.21,421.07l.4.229a.35.35,0,0,1-.4-.229" transform="translate(-230.471 -410.854)" fill="#fff"/>
          <path id="Path_83" data-name="Path 83" d="M231,420.21l.278.234a.25.25,0,0,1-.278-.234" transform="translate(-229.748 -410.34)" fill="#fff"/>
          <path id="Path_84" data-name="Path 84" d="M230.2,419.46l.3.294a.306.306,0,0,1-.3-.294" transform="translate(-229.27 -409.892)" fill="#fff"/>
          <path id="Path_85" data-name="Path 85" d="M228.719,417.19a.508.508,0,0,1,.23.443.4.4,0,0,1-.23-.443" transform="translate(-228.381 -408.536)" fill="#fff"/>
          <path id="Path_87" data-name="Path 87" d="M341.306,403.36a.354.354,0,0,1-.326.334.378.378,0,0,1,.326-.334" transform="translate(-295.447 -400.274)" fill="#fff"/>
          <path id="Path_99" data-name="Path 99" d="M236.225,407.932l-1.812.052a.87.87,0,0,0-.733-.366q.056-.122.125-.238h.9c.374.548,1.143,0,1.522.56" transform="translate(-231.349 -402.676)" fill="#fff"/>
          <path id="Path_100" data-name="Path 100" d="M232.46,418.69a1.039,1.039,0,0,1,.427.576c-.334-.048-.4-.286-.427-.576" transform="translate(-230.62 -409.432)" fill="#fff"/>
          <path id="Path_101" data-name="Path 101" d="M231.751,416.9a.918.918,0,0,1,.27.725.644.644,0,0,1-.27-.725" transform="translate(-230.181 -408.363)" fill="#fff"/>
          <path id="Path_102" data-name="Path 102" d="M231.313,414.15v.608c-.294-.2-.294-.4,0-.608" transform="translate(-229.803 -406.72)" fill="#fff"/>
          <path id="Path_103" data-name="Path 103" d="M232.113,411.18a1.123,1.123,0,0,1-.33.721c-.032-.3-.02-.592.33-.721" transform="translate(-230.208 -404.946)" fill="#fff"/>
          <path id="Path_104" data-name="Path 104" d="M228.633,411.692a.592.592,0,0,1,.294-.632.624.624,0,0,1-.294.632" transform="translate(-228.327 -404.874)" fill="#fff"/>
          <path id="Path_105" data-name="Path 105" d="M234.642,408.868a.805.805,0,0,1-.612.342c.1-.306.338-.354.612-.342" transform="translate(-231.558 -403.564)" fill="#fff"/>
          <path id="Path_106" data-name="Path 106" d="M234.732,421l.29.064-.3.218V421" transform="translate(-231.97 -410.812)" fill="#fff"/>
          <path id="Path_107" data-name="Path 107" d="M234,420.46l.31.2-.31-.2" transform="translate(-231.54 -410.49)" fill="#fff"/>
          <path id="Path_108" data-name="Path 108" d="M232.844,410.38a.4.4,0,0,1-.294.358.4.4,0,0,1,.294-.358" transform="translate(-230.674 -404.468)" fill="#fff"/>
          <path id="Path_109" data-name="Path 109" d="M229.369,410.546a.354.354,0,0,1,.282-.366.439.439,0,0,1-.282.366" transform="translate(-228.773 -404.349)" fill="#fff"/>
          <path id="Path_110" data-name="Path 110" d="M233.586,409.66a.423.423,0,0,1-.346.306.423.423,0,0,1,.346-.306" transform="translate(-231.086 -404.038)" fill="#fff"/>
          <path id="Path_111" data-name="Path 111" d="M230,409.766a.4.4,0,0,1,.342-.326.4.4,0,0,1-.342.326" transform="translate(-229.15 -403.906)" fill="#fff"/>
          <path id="Path_112" data-name="Path 112" d="M230.79,409.109a.342.342,0,0,1,.366-.262l-.366.262" transform="translate(-229.623 -403.552)" fill="#fff"/>
        </g>
        <g id="Group_2" data-name="Group 2" transform="translate(0 0.014)">
          <path id="Path_19" data-name="Path 19" d="M189.052,408.568a.632.632,0,0,0,.612-.314c2.194.1,2.738-.4,2.762-2.565v-4.727c0-1.26,0-1.26,1.208-1.272h1.18a1.8,1.8,0,0,0-.85,1.8c.02,1.474-.024,2.947,0,4.429.044,1.8.58,2.3,2.416,2.375.4.157.9-.169,1.208.286a3.986,3.986,0,0,1-3.624-.064,1.015,1.015,0,0,0-1.208-.04,4.1,4.1,0,0,1-3.756.1" transform="translate(-112.918 -398.096)" fill="#fff"/>
          <path id="Path_22" data-name="Path 22" d="M60.379,412.635c1.208-.318,1.3-.4,1.349-1.449s0-2.033,0-3.048c0-1.208,0-1.208,1.156-1.208.2,0,.4.036.672.064a14.01,14.01,0,0,0-.209,3.418,2.15,2.15,0,0,0,1.309,2.206,6.343,6.343,0,0,0,1.989.125,5.682,5.682,0,0,1,1.288-.314.668.668,0,0,1,.4.149h0a7.909,7.909,0,0,0,2.545.173,3.226,3.226,0,0,1,.709.02.262.262,0,0,1,.1.4c-2.448.129-4.9.109-7.344,0a2.057,2.057,0,0,0-.741-.225c-.552-.3-1.019-.568-1.687-.052a1.84,1.84,0,0,1-2.227.024c.141-.29.455-.169.672-.286" transform="translate(-35.672 -402.421)" fill="#fff"/>
          <path id="Path_23" data-name="Path 23" d="M101.467,399.749a1.955,1.955,0,0,0-.552,1.707v6.382c0,.568.081,1.1-.805,1.087s-.745-.62-.749-1.143v-6.845c0-1.252,0-1.256,1.208-1.248.254,0,.5.028.9.052" transform="translate(-59.367 -398.094)" fill="#fff"/>
          <path id="Path_25" data-name="Path 25" d="M143.216,399.686a1.926,1.926,0,0,0-.664,1.86v6.4c0,.459.064.93-.64.958-.6,0-.95-.069-.942-.805.032-2.536.024-5.077,0-7.614,0-.552.137-.87.765-.805.4.036.805,0,1.474,0" transform="translate(-84.226 -398.084)" fill="#fff"/>
          <path id="Path_26" data-name="Path 26" d="M88.476,408.572h-.6c-.1-.056-.141-.121-.109-.185s.064-.1.1-.1c.439-.318.958-.572.958-1.232a3.249,3.249,0,0,0,.246-1.92c.028-1.425,0-2.851,0-4.276,0-1.152,0-1.152,1.168-1.172h1.16a1.981,1.981,0,0,0-.757,1.735q.04,2.291,0,4.578a2.48,2.48,0,0,1-1.5,2.577.507.507,0,0,1-.656-.02" transform="translate(-52.435 -398.096)" fill="#fff"/>
          <path id="Path_27" data-name="Path 27" d="M208.618,408.582c-.4-.048-.894.137-1.208-.286a2.629,2.629,0,0,0,1.184-2.492v-4.888c0-1.288-.064-1.208,1.272-1.208h1a1.936,1.936,0,0,0-.749,1.727c.028,1.526.044,3.056,0,4.582a2.487,2.487,0,0,1-1.5,2.573" transform="translate(-123.916 -398.106)" fill="#fff"/>
          <path id="Path_30" data-name="Path 30" d="M133.8,407.21c-.709.052-.56.616-.568,1.027-.024,1.514,0,3.028,0,4.546a2.606,2.606,0,0,1-1.647,2.786c-.31.137-.427-.061-.511-.306a5.774,5.774,0,0,1,.443-1.611.652.652,0,0,0,.044-.592,34.2,34.2,0,0,1,.109-5.294c0-.374-.145-.954.443-.934s1.313-.54,1.7.358" transform="translate(-78.312 -402.27)" fill="#fff"/>
          <path id="Path_32" data-name="Path 32" d="M118.4,412.422c1.292-.805,1.357-2.053,1.172-3.35a1.636,1.636,0,0,0-1.4-1.586c-.805-.113-1.647-.129-2.013.878-.04.117-.205.193-.334.31-.044-1.5.262-1.9,1.562-2.013.5-.044,1.011,0,1.518,0a2.357,2.357,0,0,1,2.255,2.1h0c.242,1.526.544,3.072-1.3,3.91l.024-.02c-.121.258-.366.3-.608.354-.4-.028-.878.085-.874-.564" transform="translate(-69.202 -402.248)" fill="#fff"/>
          <path id="Path_33" data-name="Path 33" d="M33.173,413.179a3.242,3.242,0,0,1-2.013,2.665.8.8,0,0,1-.294.06,1.65,1.65,0,0,1-.366-.1,4.348,4.348,0,0,0,1.055-3.338v-4.88c0-.4.06-.757.556-.693s1.055-.338,1.373.33l-.282.117a18.9,18.9,0,0,0-.024,5.834" transform="translate(-18.234 -402.364)" fill="#fff"/>
          <path id="Path_35" data-name="Path 35" d="M12.3,413.1a48.159,48.159,0,0,1-5.5,0,.471.471,0,0,1,0-.149c.217-.685,1.385-.322,1.377-1.18,0-1.184.334-2.416-.254-3.535-.459-.306-1.035-.213-1.518-.431-.278-.181-.656-.294-.544-.757a15.908,15.908,0,0,1,4.707-.125c.229,0,.1.213.093.338l-.455.064a15.436,15.436,0,0,0-.149,4.791c.044,1.027,1.055.366,1.611.556h.507a.27.27,0,0,1,.137.4" transform="translate(-3.509 -402.347)" fill="#fff"/>
          <path id="Path_37" data-name="Path 37" d="M54.978,412.958a.85.85,0,0,1-.672.286,1.435,1.435,0,0,0-1.836.028,1.458,1.458,0,0,1-1.82-.028.4.4,0,0,1,.354-.326c1.357-.081,1.538-.225,1.582-1.445.036-.962,0-1.928,0-2.891,0-1.075.028-1.079,1.1-1.111h.926c-.757,1.554-.455,3.144-.326,4.715.028.379.382.576.68.773" transform="translate(-30.271 -402.743)" fill="#fff"/>
          <path id="Path_39" data-name="Path 39" d="M46.548,413.286l-.354.326c-.588-.262-1.172-.523-1.763,0-.463.109-.986.479-1.24-.294a2.316,2.316,0,0,0,1.232-2.263c0-.982,0-1.924,0-2.887a7.015,7.015,0,0,1,2.134,0,5.434,5.434,0,0,0-.028,5.125" transform="translate(-25.815 -403.112)" fill="#fff"/>
          <path id="Path_41" data-name="Path 41" d="M21.27,413.052h-.3c-.1-.064-.137-.129-.1-.2s.064-.1.1-.1a2.543,2.543,0,0,0,1.156-2.3c.024-.7,0-1.405,0-2.106,0-1.131.024-1.131,1.139-1.151a4.2,4.2,0,0,1,.447.044.238.238,0,0,1,.064.4,18.413,18.413,0,0,0-.113,2.706,2.845,2.845,0,0,1-1.7,2.762.62.62,0,0,1-.7-.04" transform="translate(-12.471 -402.576)" fill="#fff"/>
          <path id="Path_42" data-name="Path 42" d="M2.312,407.783c.274.048.56.085.713.371a.624.624,0,0,1-.254.656,2.386,2.386,0,0,0-.3,3.39,1.3,1.3,0,0,1,.37.938c-.109.233-.266.358-.531.233C.2,412.538-.361,411.358.3,409.047a2.468,2.468,0,0,1,1.256-1.184H1.523c.221-.31.5-.254.805-.117" transform="translate(-0.036 -402.843)" fill="#fff"/>
          <path id="Path_46" data-name="Path 46" d="M39.019,413.3c.33.443.805.217,1.24.294-.6.564-1.337.286-2.013.334-.552.04-1.107,0-1.659,0-.68-1.494-.213-3.076-.33-4.61-.032-.431-.133-.926.354-1.208-.165,1.5-.04,3-.085,4.505,0,.507.169.733.693.713.6-.028,1.208,0,1.8,0" transform="translate(-21.644 -403.126)" fill="#fff"/>
          <path id="Path_48" data-name="Path 48" d="M5.652,414.144l.4-.382a2.235,2.235,0,0,0,1.711-2.818,2.453,2.453,0,0,1,.4-2.013c.4.209.342.584.346.93v3.028c0,1.091-.028,1.1-1.168,1.244a.962.962,0,0,0-.676.27,1.031,1.031,0,0,1-1.031-.226" transform="translate(-3.383 -403.616)" fill="#fff"/>
          <path id="Path_49" data-name="Path 49" d="M17.923,413.3v.3c-2.436.044-2.142.117-2.158-2.106v-2.444c0-.358,0-.725.358-.942a28.943,28.943,0,0,0-.093,4.05c0,1.152,0,1.152,1.135,1.156h.753" transform="translate(-9.429 -403.126)" fill="#fff"/>
          <path id="Path_50" data-name="Path 50" d="M10.121,401.779c-1.208-.089-1.276-.157-1.083-1.441a1.55,1.55,0,0,1,1.184-.048c.4.342.733.7.2,1.208l.032-.032a.471.471,0,0,1-.334.33Z" transform="translate(-5.364 -398.397)" fill="#fff"/>
          <path id="Path_51" data-name="Path 51" d="M78,425.51c.5.076.805.35.805.805a.729.729,0,0,1-.866.805c-.487-.036-.68-.374-.66-.829a.757.757,0,0,1,.721-.757" transform="translate(-46.177 -413.52)" fill="#fff"/>
          <path id="Path_52" data-name="Path 52" d="M117.965,420.994c.225.358.6.262.93.3-.745.568-3.177.664-3.752.133-.137-.129.032-.27.085-.4l2.738-.036" transform="translate(-68.766 -410.82)" fill="#fff"/>
          <path id="Path_59" data-name="Path 59" d="M22.621,426.366a.773.773,0,0,1-.761.765.688.688,0,0,1-.781-.713.717.717,0,0,1,.805-.849c.459,0,.684.354.749.805" transform="translate(-12.598 -413.551)" fill="#fff"/>
          <path id="Path_60" data-name="Path 60" d="M26.569,425.547a.765.765,0,0,1,.68.837.721.721,0,0,1-.769.745.773.773,0,0,1-.765-.9.805.805,0,0,1,.854-.684" transform="translate(-15.37 -413.541)" fill="#fff"/>
          <path id="Path_66" data-name="Path 66" d="M5.274,400.347a2.028,2.028,0,0,1,.024.27.729.729,0,0,1,.04.745l-.354.511h0a.4.4,0,0,1-.6-.028h0c-.592-.4-.753-.89-.262-1.49a1.739,1.739,0,0,1,1.152,0" transform="translate(-2.301 -398.434)" fill="#fff"/>
          <path id="Path_67" data-name="Path 67" d="M165.478,420.96c.161.262.443.266.7.326-.886.592-1.888.169-2.818.318v-.7l2.138.06" transform="translate(-97.602 -410.766)" fill="#fff"/>
          <path id="Path_71" data-name="Path 71" d="M130.066,427.758a1.259,1.259,0,0,0,.274-.048l.4.4c-.242.4-.672.274-.986.471-.185-.471.282-.544.3-.833" transform="translate(-77.501 -414.834)" fill="#fff"/>
          <path id="Path_74" data-name="Path 74" d="M28.034,407.573c-.02-.133-.04-.262-.064-.4.238-.1.592-.109.624.1s-.334.246-.56.294" transform="translate(-16.723 -402.525)" fill="#fff"/>
          <path id="Path_75" data-name="Path 75" d="M89.538,421.75l.656.02a.584.584,0,0,1-.664.246v-.266" transform="translate(-53.497 -411.274)" fill="#fff"/>
          <path id="Path_76" data-name="Path 76" d="M69.45,421.829a.668.668,0,0,1,.741.225.644.644,0,0,1-.741-.225" transform="translate(-41.502 -411.3)" fill="#fff"/>
          <path id="Path_77" data-name="Path 77" d="M21.884,421.75l.7.04a.588.588,0,0,1-.7.234c0-.092,0-.181,0-.274" transform="translate(-13.085 -411.274)" fill="#fff"/>
          <path id="Path_86" data-name="Path 86" d="M52.109,405.03l-.072.125-.056-.056Z" transform="translate(-31.066 -401.286)" fill="#fff"/>
          <path id="Path_88" data-name="Path 88" d="M78.421,412.724c-.314.455-.805.27-1.208.31q-.266-.149-.048-.374v-5.371a4.273,4.273,0,0,1,1.635-.109c.153,0,.358.1.314.218s-.266.29-.4.431c-.4,1.61.133,3.273-.278,4.884" transform="translate(-46.052 -402.549)" fill="#fff"/>
          <path id="Path_89" data-name="Path 89" d="M53.451,400.222c.531-.169,1.019-.246,1.357.37.1.193.334.073.491-.044a.467.467,0,0,1-.044.68c-.145,0-.366-.04-.4.036-.346.463-.741.753-1.272.342s-.362-.89-.121-1.373Z" transform="translate(-31.812 -398.342)" fill="#fff"/>
          <path id="Path_90" data-name="Path 90" d="M56.753,397.24a.656.656,0,0,1-.564,0A.487.487,0,0,1,55.9,397a.749.749,0,0,1,.2-1.164.652.652,0,0,1,.721,0,.765.765,0,0,1,.213,1.168.4.4,0,0,1-.282.234" transform="translate(-33.291 -395.73)" fill="#fff"/>
          <path id="Path_91" data-name="Path 91" d="M58.206,401.261c0-.225.028-.455.044-.68.362-.568.805-.527,1.208-.1a.7.7,0,0,1-.081,1.063c-.5.447-.9.278-1.208-.278" transform="translate(-34.764 -398.374)" fill="#fff"/>
          <path id="Path_92" data-name="Path 92" d="M80.416,413.754v-3.765c0-.4-.089-.805.282-1.119l.032,4.884Z" transform="translate(-48.047 -403.58)" fill="#fff"/>
          <path id="Path_93" data-name="Path 93" d="M83.908,420.946v.282c-.918-.113-1.9.322-2.758-.318l2.758.036" transform="translate(-48.491 -410.772)" fill="#fff"/>
          <path id="Path_94" data-name="Path 94" d="M74.172,420.81l.048.375c-.717-.089-1.49.27-2.15-.274a11.462,11.462,0,0,0,2.1-.1" transform="translate(-43.067 -410.712)" fill="#fff"/>
          <path id="Path_95" data-name="Path 95" d="M58.31,399.133a.274.274,0,0,1,.282-.234c0,.169-.089.274-.282.234" transform="translate(-34.847 -397.623)" fill="#fff"/>
          <path id="Path_96" data-name="Path 96" d="M56.19,398.909a.278.278,0,0,1,.29.238c-.2.048-.27-.064-.29-.238" transform="translate(-33.581 -397.629)" fill="#fff"/>
          <path id="Path_97" data-name="Path 97" d="M153.813,406.784a17.435,17.435,0,0,0-4.244.189,3.131,3.131,0,0,0-2.694,2.883c-.06,1.433.858,2.516,2.492,3.048a5.988,5.988,0,0,0,1.957.213c.475,0,.6.242.58.672a3.439,3.439,0,0,1-1.111,2.283c1.856-.234,2.384-.825,2.71-2.923a.543.543,0,0,0,0-.7c.1-1.88-.306-3.793.322-5.661m-1.912,3.285h0v1.977a.491.491,0,0,1-.423.531,2.818,2.818,0,0,1-2.6-.938,2.975,2.975,0,0,1-.1-3.169,2.581,2.581,0,0,1,2.561-.97.632.632,0,0,1,.572.741v1.828" transform="translate(-87.753 -402.311)" fill="#fff"/>
          <path id="Path_98" data-name="Path 98" d="M176.641,410.134a3.237,3.237,0,0,0-3.531-3.044,3.356,3.356,0,0,0-3.624,3.475,2.457,2.457,0,0,1-.906,2.146c0,.6.383.4.7.326.3,0,.491-.4.926-.036,2.082,1.78,3.684,1.78,5.713,0,.4-.338.616-.085.918-.028.358.193.648.254.612-.314-.805-.676-.684-1.651-.825-2.54m-1.7,2.118a1.771,1.771,0,0,1-1.5,1.349,1.679,1.679,0,0,1-1.78-.922,4.071,4.071,0,0,1-.374-3.523,1.776,1.776,0,0,1,1.743-1.441,1.87,1.87,0,0,1,1.82,1.377,5.7,5.7,0,0,1,.266,1.848,6.733,6.733,0,0,1-.173,1.313" transform="translate(-100.72 -402.516)" fill="#fff"/>
          <path id="Path_113" data-name="Path 113" d="M7.52,401.895c0-.25-.028-.5-.04-.745.282.234.362.479.04.745" transform="translate(-4.483 -398.968)" fill="#fff"/>
        </g>
      </g>
      <g id="Group_7" data-name="Group 7" transform="translate(1658.187 234.628)">
        <g id="Group_4" data-name="Group 4" transform="translate(0 0.005)">
          <path id="Path_114" data-name="Path 114" d="M5.337,451.131v.077a1.111,1.111,0,0,1-.133.592.717.717,0,0,1-.346.334,1.059,1.059,0,0,1-.483.141l-.5.028a7.244,7.244,0,0,1-1.743-.1,2.567,2.567,0,0,1-1.208-.576,2.533,2.533,0,0,1-.7-1.156,6.225,6.225,0,0,1-.229-1.848v-2.106a2.533,2.533,0,0,1,.234-1.208,1.243,1.243,0,0,1,.29-.358,1.616,1.616,0,0,1,.4-.221,2.382,2.382,0,0,1,.3-.093,2.739,2.739,0,0,1,.334-.064l.491-.032H3.554c.475,0,.805,0,1.027-.02l.4-.036h.089v.068a1.074,1.074,0,0,1-.137.592.97.97,0,0,1-.342.346,1.392,1.392,0,0,1-.475.133q-.254.024-.507.024h-1.9l-.113.02-.076.032a.2.2,0,0,0-.1.093.266.266,0,0,0-.056.149,1.767,1.767,0,0,0,0,.217l.02,1.353H4.133a1.127,1.127,0,0,1-.278.805,1.027,1.027,0,0,1-.805.3H1.379a4.718,4.718,0,0,0,.1,1.244,1.779,1.779,0,0,0,.4.805,1.491,1.491,0,0,0,.713.4,4.025,4.025,0,0,0,1.055.125q.725,0,1.123-.024l.483-.032h0Z" transform="translate(0.009 -444.423)" fill="#fff"/>
          <path id="Path_115" data-name="Path 115" d="M15.985,451.124v.882a.483.483,0,0,0,.024.2,1.655,1.655,0,0,1-1.055-.29,1.148,1.148,0,0,1-.362-.95v-3.958a3.192,3.192,0,0,1,.165-1.039,2.468,2.468,0,0,1,.483-.849,2.184,2.184,0,0,1,.761-.572,2.321,2.321,0,0,1,1.015-.209,1.345,1.345,0,0,1,.568.113.806.806,0,0,1,.4.334.842.842,0,0,1,.089.358.886.886,0,0,1-.032.234l-.024.068-.056-.024a2.382,2.382,0,0,0-.362-.093,2.31,2.31,0,0,0-.463-.04,1.726,1.726,0,0,0-.221.02,1.244,1.244,0,0,0-.29.1,1.153,1.153,0,0,0-.3.217,1.206,1.206,0,0,0-.238.374,1.932,1.932,0,0,0-.109.37,2.82,2.82,0,0,0-.036.479v.121h1.506a1.127,1.127,0,0,1-.282.805,1.02,1.02,0,0,1-.805.3h-.4Z" transform="translate(-8.71 -444.339)" fill="#fff"/>
          <path id="Path_116" data-name="Path 116" d="M23.295,453.267a2.283,2.283,0,0,1,.68-.282,3.184,3.184,0,0,1,.805-.1,3.57,3.57,0,0,1,1.1.169,1.977,1.977,0,0,0-.145-.616.955.955,0,0,0-.435-.5.785.785,0,0,0-.242-.085,1.278,1.278,0,0,0-.294-.028h-.121a2.131,2.131,0,0,0-.314.048q-.157.044-.314.1a2.717,2.717,0,0,1-.31.093,1.155,1.155,0,0,1-.3.04.665.665,0,0,1-.3-.068.656.656,0,0,1-.234-.254l-.024-.044.024-.036a2.646,2.646,0,0,1,.785-.572,2.686,2.686,0,0,1,.99-.254h.189a2.343,2.343,0,0,1,.934.181,2.268,2.268,0,0,1,.737.507,2.661,2.661,0,0,1,.66,1.82v.089a2.882,2.882,0,0,1-.6,1.88,2.3,2.3,0,0,1-.7.58,2.5,2.5,0,0,1-.91.282H24.68a3.484,3.484,0,0,1-.491-.04,1.9,1.9,0,0,1-.5-.153,1.829,1.829,0,0,1-.467-.262,1.308,1.308,0,0,1-.358-.4,1.445,1.445,0,0,1-.221-.805v-.068a1.344,1.344,0,0,1,.177-.725,1.42,1.42,0,0,1,.479-.5m2.307.544-.33-.044H24.9a2.4,2.4,0,0,0-.3,0,1.288,1.288,0,0,0-.266.06.829.829,0,0,0-.423.278.537.537,0,0,0-.093.153.806.806,0,0,0-.044.181.326.326,0,0,0,0,.1.878.878,0,0,0,.036.242.523.523,0,0,0,.133.238.673.673,0,0,0,.262.193,1.143,1.143,0,0,0,.463.076.532.532,0,0,0,.133,0,.974.974,0,0,0,.548-.177.743.743,0,0,0,.189-.161,1.256,1.256,0,0,0,.137-.209,1.4,1.4,0,0,0,.165-.435,2.235,2.235,0,0,0,.044-.4h-.1l-.133-.036" transform="translate(-13.519 -448.246)" fill="#fff"/>
          <path id="Path_117" data-name="Path 117" d="M40.743,449.813a3.036,3.036,0,0,1-.177,1.035,2.7,2.7,0,0,1-.5.854,2.382,2.382,0,0,1-.805.568,2.458,2.458,0,0,1-1.031.213,2.258,2.258,0,0,1-.966-.213,2.662,2.662,0,0,1-.805-.568,2.6,2.6,0,0,1-.531-.846,2.779,2.779,0,0,1-.193-1.043,3.064,3.064,0,0,1,.173-1.043,2.54,2.54,0,0,1,.5-.853,2.413,2.413,0,0,1,.785-.568,2.463,2.463,0,0,1,1.035-.213,2.271,2.271,0,0,1,1.135.29v-1.57a1.132,1.132,0,0,1,.37-.954,1.707,1.707,0,0,1,1.059-.286,1.579,1.579,0,0,0,0,.2,2.228,2.228,0,0,1-.02.334,4.9,4.9,0,0,0,0,.548Zm-2.488,1.707a1.058,1.058,0,0,0,.338-.064.966.966,0,0,0,.374-.254,1.517,1.517,0,0,0,.3-.523,3.221,3.221,0,0,0,0-1.751,1.517,1.517,0,0,0-.3-.523,1.018,1.018,0,0,0-.374-.254,1.058,1.058,0,0,0-.338-.065,1.079,1.079,0,0,0-.342.065,1.018,1.018,0,0,0-.374.254,1.517,1.517,0,0,0-.3.523,3.221,3.221,0,0,0,0,1.751,1.517,1.517,0,0,0,.3.523.966.966,0,0,0,.374.254,1.074,1.074,0,0,0,.342.064" transform="translate(-21.34 -444.502)" fill="#fff"/>
          <path id="Path_118" data-name="Path 118" d="M51.043,453.255a2.325,2.325,0,0,1,.68-.282,3.226,3.226,0,0,1,.805-.1,3.554,3.554,0,0,1,1.1.169,1.976,1.976,0,0,0-.145-.616.954.954,0,0,0-.431-.5.8.8,0,0,0-.238-.084,1.339,1.339,0,0,0-.3-.028H52.4a2.108,2.108,0,0,0-.314.048c-.1.028-.209.06-.31.1a3.073,3.073,0,0,1-.314.093,1.155,1.155,0,0,1-.3.04.665.665,0,0,1-.3-.068.656.656,0,0,1-.234-.254l-.024-.052.02-.036a2.67,2.67,0,0,1,1.776-.825h.189a2.259,2.259,0,0,1,1.679.689,2.677,2.677,0,0,1,.656,1.82v.089a2.883,2.883,0,0,1-.6,1.888,2.3,2.3,0,0,1-.7.58,2.484,2.484,0,0,1-.91.282H52.44a3.512,3.512,0,0,1-.491-.04,1.906,1.906,0,0,1-.5-.153,1.827,1.827,0,0,1-.467-.262,1.309,1.309,0,0,1-.358-.4,1.478,1.478,0,0,1-.221-.805v-.068a1.382,1.382,0,0,1,.177-.725,1.422,1.422,0,0,1,.467-.5m2.311.535-.3-.056h-.374a2.4,2.4,0,0,0-.3,0,1.276,1.276,0,0,0-.266.06.85.85,0,0,0-.4.278.449.449,0,0,0-.089.153.632.632,0,0,0-.048.181.593.593,0,0,0,0,.1.87.87,0,0,0,.032.242.608.608,0,0,0,.133.238.7.7,0,0,0,.262.193,1.144,1.144,0,0,0,.463.077.583.583,0,0,0,.137,0,.962.962,0,0,0,.544-.177.681.681,0,0,0,.189-.161,1.248,1.248,0,0,0,.137-.209,1.4,1.4,0,0,0,.165-.435,1.934,1.934,0,0,0,.044-.4h-.1l-.133-.036" transform="translate(-30.103 -448.233)" fill="#fff"/>
          <path id="Path_119" data-name="Path 119" d="M68.465,451.286v.882a1.583,1.583,0,0,0,0,.2,1.682,1.682,0,0,1-1.059-.29,1.14,1.14,0,0,1-.366-.95v-1.57a2.391,2.391,0,0,0-.1-.753,1.148,1.148,0,0,0-.246-.447.729.729,0,0,0-.334-.217,1.259,1.259,0,0,0-.745,0,.74.74,0,0,0-.338.217,1.143,1.143,0,0,0-.238.447,2.549,2.549,0,0,0-.089.753v2.609a.482.482,0,0,0,.024.2,1.655,1.655,0,0,1-1.055-.29,1.148,1.148,0,0,1-.362-.95v-5.274a1.16,1.16,0,0,1,.346-.954,1.61,1.61,0,0,1,1.035-.286v2.693a2.376,2.376,0,0,1,.531-.121,3.919,3.919,0,0,1,1.4.06,2.013,2.013,0,0,1,.805.362,1.916,1.916,0,0,1,.568.741,2.963,2.963,0,0,1,.217,1.208Z" transform="translate(-37.962 -444.501)" fill="#fff"/>
          <path id="Path_120" data-name="Path 120" d="M89.093,445.866a1.184,1.184,0,0,1,.35-.962,1.609,1.609,0,0,1,1.043-.29.76.76,0,0,1-.024.213,1.488,1.488,0,0,0,0,.33v6.68a3.247,3.247,0,0,0,0,.33,1.581,1.581,0,0,0,0,.2,1.654,1.654,0,0,1-1.047-.286,1.152,1.152,0,0,1-.358-.954v-2.388H85.924v3.426a.482.482,0,0,0,.024.2,1.678,1.678,0,0,1-1.055-.286,1.139,1.139,0,0,1-.362-.954v-5.262a1.208,1.208,0,0,1,.354-.962,1.611,1.611,0,0,1,1.043-.29.763.763,0,0,1-.024.213,1.484,1.484,0,0,0,0,.33v2.48h3.144Z" transform="translate(-50.49 -444.501)" fill="#fff"/>
          <path id="Path_121" data-name="Path 121" d="M106.488,453.994a2.842,2.842,0,0,1-.221,1.208,1.958,1.958,0,0,1-.576.737,2.015,2.015,0,0,1-.805.366,3.722,3.722,0,0,1-1.719,0,2.015,2.015,0,0,1-.805-.366,1.91,1.91,0,0,1-.572-.737,2.907,2.907,0,0,1-.217-1.208V452.42a1.14,1.14,0,0,1,.362-.95,1.662,1.662,0,0,1,1.055-.286,1.582,1.582,0,0,0,0,.2,2.226,2.226,0,0,1-.02.334,4.9,4.9,0,0,0,0,.548v1.727a2.549,2.549,0,0,0,.089.753,1.127,1.127,0,0,0,.242.443.756.756,0,0,0,.334.209,1.261,1.261,0,0,0,.745,0,.784.784,0,0,0,.334-.209,1.127,1.127,0,0,0,.242-.443,2.548,2.548,0,0,0,.089-.753V452.42a1.127,1.127,0,0,1,.366-.95,1.687,1.687,0,0,1,1.063-.286.714.714,0,0,1-.024.2,1.525,1.525,0,0,0,0,.334v.548Z" transform="translate(-60.669 -448.425)" fill="#fff"/>
          <path id="Path_122" data-name="Path 122" d="M122.973,453.328a2.391,2.391,0,0,0-.1-.753,1.1,1.1,0,0,0-.25-.447.763.763,0,0,0-.346-.217,1.228,1.228,0,0,0-.378-.056,1.2,1.2,0,0,0-.374.056.749.749,0,0,0-.334.217,1.207,1.207,0,0,0-.246.447,2.416,2.416,0,0,0-.093.753V455.6a1.283,1.283,0,0,0,.024.334c.024.081,0,.157.02.2a1.683,1.683,0,0,1-1.059-.29,1.14,1.14,0,0,1-.366-.95v-1.57a2.414,2.414,0,0,0-.093-.753,1.206,1.206,0,0,0-.25-.447.8.8,0,0,0-.346-.217,1.26,1.26,0,0,0-.4-.056,1.16,1.16,0,0,0-.37.056.727.727,0,0,0-.334.217,1.143,1.143,0,0,0-.242.447,2.549,2.549,0,0,0-.089.753v2.609a.481.481,0,0,0,.024.2,1.675,1.675,0,0,1-1.059-.29,1.14,1.14,0,0,1-.37-.95v-1.57a2.962,2.962,0,0,1,.217-1.208,1.865,1.865,0,0,1,1.341-1.1,3.845,3.845,0,0,1,.85-.1,3.959,3.959,0,0,1,.926.113,1.916,1.916,0,0,1,.805.4,1.9,1.9,0,0,1,.805-.4,4,4,0,0,1,.926-.113,3.955,3.955,0,0,1,.858.1,2.047,2.047,0,0,1,.805.362,1.917,1.917,0,0,1,.568.741,2.962,2.962,0,0,1,.217,1.208v2.609a1.592,1.592,0,0,0,.02.2,1.663,1.663,0,0,1-1.055-.29,1.148,1.148,0,0,1-.362-.95Z" transform="translate(-69.255 -448.27)" fill="#fff"/>
          <path id="Path_123" data-name="Path 123" d="M139.653,453.267a2.329,2.329,0,0,1,.68-.282,3.217,3.217,0,0,1,.805-.1,3.553,3.553,0,0,1,1.1.169,1.976,1.976,0,0,0-.145-.616.954.954,0,0,0-.435-.5.8.8,0,0,0-.238-.084,1.334,1.334,0,0,0-.3-.028h-.121a2.124,2.124,0,0,0-.314.048c-.1.028-.209.06-.31.1a3.053,3.053,0,0,1-.314.093,1.154,1.154,0,0,1-.3.04.55.55,0,0,1-.535-.322l-.02-.044.02-.036a2.668,2.668,0,0,1,1.776-.825h.189a2.258,2.258,0,0,1,1.675.688,2.678,2.678,0,0,1,.656,1.82v.089a2.883,2.883,0,0,1-.592,1.884,2.3,2.3,0,0,1-.7.58,2.486,2.486,0,0,1-.91.282h-.278a3.521,3.521,0,0,1-.491-.04,1.908,1.908,0,0,1-.5-.153,1.833,1.833,0,0,1-.467-.262,1.309,1.309,0,0,1-.358-.4,1.477,1.477,0,0,1-.221-.805v-.068a1.381,1.381,0,0,1,.177-.725,1.422,1.422,0,0,1,.479-.5m2.311.536-.33-.044h-.374a2.42,2.42,0,0,0-.3,0,1.279,1.279,0,0,0-.266.06.849.849,0,0,0-.423.278.448.448,0,0,0-.089.153.634.634,0,0,0-.048.181.583.583,0,0,0,0,.1.867.867,0,0,0,.032.242.608.608,0,0,0,.133.237.7.7,0,0,0,.262.193,1.142,1.142,0,0,0,.463.076.581.581,0,0,0,.137,0,.961.961,0,0,0,.544-.177.679.679,0,0,0,.189-.161,1.252,1.252,0,0,0,.137-.209,1.4,1.4,0,0,0,.165-.435,1.932,1.932,0,0,0,.044-.4h-.1l-.133-.036" transform="translate(-83.036 -448.246)" fill="#fff"/>
          <path id="Path_124" data-name="Path 124" d="M152.213,453.328a2.964,2.964,0,0,1,.217-1.208,1.972,1.972,0,0,1,.556-.741,1.911,1.911,0,0,1,.769-.362,3.891,3.891,0,0,1,1.723,0,2.014,2.014,0,0,1,.805.362,1.917,1.917,0,0,1,.568.741,2.963,2.963,0,0,1,.217,1.208l.044,2.818a1.654,1.654,0,0,1-1.047-.29,1.139,1.139,0,0,1-.37-.95v-1.57a2.392,2.392,0,0,0-.1-.753,1.1,1.1,0,0,0-.25-.447.765.765,0,0,0-.346-.217,1.23,1.23,0,0,0-.378-.056,1.212,1.212,0,0,0-.374.056.75.75,0,0,0-.334.217,1.209,1.209,0,0,0-.246.447,2.414,2.414,0,0,0-.093.753v2.81a1.682,1.682,0,0,1-1.059-.29,1.14,1.14,0,0,1-.366-.95Z" transform="translate(-90.885 -448.27)" fill="#fff"/>
        </g>
        <g id="Group_3" data-name="Group 3" transform="translate(69.757)">
          <path id="Path_125" data-name="Path 125" d="M174.632,451.117V452a.483.483,0,0,0,.024.2,1.667,1.667,0,0,1-1.051-.286,1.151,1.151,0,0,1-.354-.954v-4.719a1.855,1.855,0,0,1,.189-.89,1.492,1.492,0,0,1,.519-.576,2.229,2.229,0,0,1,.805-.314,7.834,7.834,0,0,1,.994-.129,4.211,4.211,0,0,1,.737.028,4.127,4.127,0,0,1,.773.181,3.983,3.983,0,0,1,.733.326,2.593,2.593,0,0,1,.608.5,2.34,2.34,0,0,1,.4.672,2.054,2.054,0,0,1-1.433,2.75,1.032,1.032,0,0,1,.435.282,2.051,2.051,0,0,1,.318.471c.093.181.185.378.278.6s.2.435.31.656a2.965,2.965,0,0,0,.266.463c.1.141.185.262.27.362a2.131,2.131,0,0,0,.278.314.916.916,0,0,1-.225.169,1.458,1.458,0,0,1-.29.089,1.317,1.317,0,0,1-.4,0,1.41,1.41,0,0,1-.491-.157,1.694,1.694,0,0,1-.447-.379,4.991,4.991,0,0,1-.475-.68c-.165-.282-.358-.636-.576-1.059a1.472,1.472,0,0,0-.455-.544,2.269,2.269,0,0,0-.66-.294l-.125-.036a.4.4,0,0,1-.121-.032l-.217-.04-.282-.048-.346-.068Zm1.127-5.689a2.184,2.184,0,0,0-.552.117,1.123,1.123,0,0,0-.346.2.64.64,0,0,0-.185.262.806.806,0,0,0-.056.29v1.61c.169.04.346.073.523.1s.314.044.491.06a4.642,4.642,0,0,0,.523.028,1.924,1.924,0,0,0,1.107-.278,1.237,1.237,0,0,0,.479-.914,1.159,1.159,0,0,0-.125-.708,1.236,1.236,0,0,0-.455-.467,2.014,2.014,0,0,0-.672-.246,2.583,2.583,0,0,0-.745-.04" transform="translate(-173.245 -444.327)" fill="#fff"/>
          <path id="Path_126" data-name="Path 126" d="M195.041,455.031a.806.806,0,0,1,.258.27l.032.032-.032.032a2.653,2.653,0,0,1-1.973.862,2.315,2.315,0,0,1-.966-.209,2.483,2.483,0,0,1-.805-.572,2.6,2.6,0,0,1-.531-.845,2.779,2.779,0,0,1-.193-1.043,3.065,3.065,0,0,1,.173-1.043,2.542,2.542,0,0,1,.5-.854,2.414,2.414,0,0,1,.805-.568,2.462,2.462,0,0,1,1.035-.213,2.774,2.774,0,0,1,.684.1,2.4,2.4,0,0,1,.7.3,1.712,1.712,0,0,1,.535.539,1.474,1.474,0,0,1,.213.805,1.147,1.147,0,0,1-.233.741,1.721,1.721,0,0,1-.56.447,2.526,2.526,0,0,1-.684.221,3.942,3.942,0,0,1-.632.06,4.722,4.722,0,0,1-.721-.048l-.4-.072a1.9,1.9,0,0,0,.181.652,1.359,1.359,0,0,0,.3.4.936.936,0,0,0,.334.2,1.072,1.072,0,0,0,.3.048,2.008,2.008,0,0,0,.443-.044,2.752,2.752,0,0,0,.4-.1c.109-.036.217-.073.318-.113a.843.843,0,0,1,.294-.052.5.5,0,0,1,.278.076m-1.776-3.209a1.565,1.565,0,0,0-.29.06.944.944,0,0,0-.33.185,1.291,1.291,0,0,0-.3.379,1.871,1.871,0,0,0-.189.624,3.762,3.762,0,0,0,.507.1,2.588,2.588,0,0,0,.66,0,1.428,1.428,0,0,0,.58-.189.632.632,0,0,0,.274-.528.56.56,0,0,0-.217-.479.986.986,0,0,0-.7-.177" transform="translate(-183.75 -448.242)" fill="#fff"/>
          <path id="Path_127" data-name="Path 127" d="M206.416,454.822a.362.362,0,0,0-.1-.318,1.38,1.38,0,0,0-.366-.246c-.161-.081-.35-.161-.564-.254a4.44,4.44,0,0,1-.68-.354,1.562,1.562,0,0,1-.443-.375,1.47,1.47,0,0,1-.318-.982,1.44,1.44,0,0,1,.125-.519,1.209,1.209,0,0,1,.29-.4,1.473,1.473,0,0,1,.4-.274,1.856,1.856,0,0,1,.443-.153,2.2,2.2,0,0,1,.4-.044h.133a2.633,2.633,0,0,1,1.921.97l.032.036-.032.044a.834.834,0,0,1-.246.233.507.507,0,0,1-.278.077.775.775,0,0,1-.3-.061l-.314-.129c-.141-.056-.274-.109-.4-.149a1.208,1.208,0,0,0-.374-.06.531.531,0,0,0-.366.1.39.39,0,0,0-.012.6,1.724,1.724,0,0,0,.455.262c.233.1.479.2.737.318a2.768,2.768,0,0,1,.693.4,1.642,1.642,0,0,1,.459.6,1.312,1.312,0,0,1,.032.853,1.611,1.611,0,0,1-.189.4,1.451,1.451,0,0,1-.374.4,2.173,2.173,0,0,1-.58.294,2.373,2.373,0,0,1-.805.117h-.145a2.592,2.592,0,0,1-1.055-.282,2.532,2.532,0,0,1-.866-.68l-.032-.032.032-.044a.648.648,0,0,1,.125-.145l.121-.1a.625.625,0,0,1,.27-.068.718.718,0,0,1,.3.064l.31.125a2.344,2.344,0,0,0,.35.137,2.672,2.672,0,0,0,.431.077.85.85,0,0,0,.576-.157.531.531,0,0,0,.193-.31" transform="translate(-191.432 -448.254)" fill="#fff"/>
          <path id="Path_128" data-name="Path 128" d="M219.916,451.673a2.575,2.575,0,0,1,.54.841,2.82,2.82,0,0,1,.2,1.043,2.94,2.94,0,0,1-.181,1.043,2.529,2.529,0,0,1-.5.845,2.321,2.321,0,0,1-.805.58,2.455,2.455,0,0,1-1.031.209,2.253,2.253,0,0,1-.966-.209,2.566,2.566,0,0,1-.805-.58,2.742,2.742,0,0,1-.531-.846,2.779,2.779,0,0,1-.193-1.043,3.065,3.065,0,0,1,.173-1.043,2.54,2.54,0,0,1,.5-.841,2.321,2.321,0,0,1,.805-.58,2.444,2.444,0,0,1,1.031-.213,2.255,2.255,0,0,1,.974.213,2.489,2.489,0,0,1,.805.58m-1.763,3.6a1.074,1.074,0,0,0,.338-.069.915.915,0,0,0,.374-.254,1.506,1.506,0,0,0,.3-.523,3.22,3.22,0,0,0,0-1.747,1.4,1.4,0,0,0-.3-.523.914.914,0,0,0-.374-.254,1.058,1.058,0,0,0-.338-.065,1.1,1.1,0,0,0-.342.065.925.925,0,0,0-.37.254,1.4,1.4,0,0,0-.3.523,3.12,3.12,0,0,0,0,1.747,1.5,1.5,0,0,0,.3.523.925.925,0,0,0,.37.254,1.121,1.121,0,0,0,.342.069" transform="translate(-198.571 -448.242)" fill="#fff"/>
          <path id="Path_129" data-name="Path 129" d="M235.028,453.994a2.843,2.843,0,0,1-.221,1.208,1.957,1.957,0,0,1-.576.737,2.015,2.015,0,0,1-.785.366,3.722,3.722,0,0,1-1.719,0,2.015,2.015,0,0,1-.785-.366,1.873,1.873,0,0,1-.572-.737,2.906,2.906,0,0,1-.217-1.208V452.42a1.14,1.14,0,0,1,.362-.95,1.662,1.662,0,0,1,1.055-.286,1.582,1.582,0,0,0-.02.2v2.609a2.546,2.546,0,0,0,.089.753,1.122,1.122,0,0,0,.238.443.807.807,0,0,0,.338.209,1.261,1.261,0,0,0,.745,0,.784.784,0,0,0,.334-.209,1.128,1.128,0,0,0,.242-.443,2.549,2.549,0,0,0,.089-.753V452.42a1.127,1.127,0,0,1,.366-.95,1.683,1.683,0,0,1,1.059-.286c0,.044,0,.113,0,.2v.882Z" transform="translate(-207.237 -448.421)" fill="#fff"/>
          <path id="Path_130" data-name="Path 130" d="M244.556,453.628a2.928,2.928,0,0,1,.217-1.208,1.859,1.859,0,0,1,1.341-1.107,4.112,4.112,0,0,1,.85-.093h.548a1.079,1.079,0,0,1,.024.435.629.629,0,0,1-.153.322.588.588,0,0,1-.4.189,1.971,1.971,0,0,0-.37.085.8.8,0,0,0-.33.213,1.153,1.153,0,0,0-.242.427,2.516,2.516,0,0,0-.093.749v2.48a.483.483,0,0,0,.024.2,1.691,1.691,0,0,1-1.051-.286,1.144,1.144,0,0,1-.366-.954Z" transform="translate(-215.839 -448.445)" fill="#fff"/>
          <path id="Path_131" data-name="Path 131" d="M254.966,451.83a1.051,1.051,0,0,0-.338.064,1.015,1.015,0,0,0-.374.254,1.457,1.457,0,0,0-.3.523,3.219,3.219,0,0,0,0,1.751,1.455,1.455,0,0,0,.3.523.968.968,0,0,0,.374.254,1.05,1.05,0,0,0,.338.064,2.01,2.01,0,0,0,.447-.044,2.58,2.58,0,0,0,.378-.1c.113-.044.217-.085.318-.117a.977.977,0,0,1,.3-.048.6.6,0,0,1,.29.076,1.1,1.1,0,0,1,.258.258l.02.044-.032.032a2.653,2.653,0,0,1-.878.632,2.6,2.6,0,0,1-1.087.229,2.267,2.267,0,0,1-.974-.213,2.664,2.664,0,0,1-.805-.568,2.6,2.6,0,0,1-.531-.846,2.781,2.781,0,0,1-.2-1.043,2.974,2.974,0,0,1,.181-1.043,2.628,2.628,0,0,1,.5-.853,2.378,2.378,0,0,1,1.8-.781,2.653,2.653,0,0,1,1.977.862l.032.032-.032.044a.624.624,0,0,1-.258.258.442.442,0,0,1-.278.076.976.976,0,0,1-.3-.048l-.318-.109a3.078,3.078,0,0,0-.378-.117,2.016,2.016,0,0,0-.447-.048" transform="translate(-220.572 -448.241)" fill="#fff"/>
          <path id="Path_132" data-name="Path 132" d="M269.655,455.031a.807.807,0,0,1,.254.27l.036.032-.036.032a2.6,2.6,0,0,1-.874.632,2.639,2.639,0,0,1-1.1.229,2.313,2.313,0,0,1-.966-.209,2.525,2.525,0,0,1-.805-.572,2.664,2.664,0,0,1-.527-.845,2.7,2.7,0,0,1-.2-1.043,3.065,3.065,0,0,1,.173-1.043,2.684,2.684,0,0,1,.5-.854,2.413,2.413,0,0,1,.805-.568,2.445,2.445,0,0,1,1.031-.213,2.731,2.731,0,0,1,.685.1,2.464,2.464,0,0,1,.7.3,1.758,1.758,0,0,1,.536.539,1.473,1.473,0,0,1,.209.805,1.128,1.128,0,0,1-.234.741,1.748,1.748,0,0,1-.556.447,2.551,2.551,0,0,1-.689.221,3.912,3.912,0,0,1-.628.06,4.692,4.692,0,0,1-.721-.048l-.4-.072a1.822,1.822,0,0,0,.177.652,1.431,1.431,0,0,0,.3.4,1.009,1.009,0,0,0,.334.2,1.112,1.112,0,0,0,.3.048,2.007,2.007,0,0,0,.447-.044,2.689,2.689,0,0,0,.378-.1c.113-.036.217-.072.318-.113a.856.856,0,0,1,.294-.052.52.52,0,0,1,.282.076m-1.719-3.2a1.7,1.7,0,0,0-.29.06.94.94,0,0,0-.33.185,1.208,1.208,0,0,0-.294.379,1.87,1.87,0,0,0-.189.624,3.453,3.453,0,0,0,.507.1,2.551,2.551,0,0,0,.656,0,1.388,1.388,0,0,0,.58-.189.612.612,0,0,0,.274-.527.54.54,0,0,0-.217-.479.978.978,0,0,0-.7-.177" transform="translate(-228.32 -448.242)" fill="#fff"/>
          <path id="Path_133" data-name="Path 133" d="M281.012,454.816a.362.362,0,0,0-.109-.318,1.309,1.309,0,0,0-.366-.245c-.161-.081-.346-.161-.564-.254a4.611,4.611,0,0,1-.68-.354,1.541,1.541,0,0,1-.439-.374,1.432,1.432,0,0,1-.254-.467,1.483,1.483,0,0,1-.064-.515,1.521,1.521,0,0,1,.121-.519,1.347,1.347,0,0,1,.29-.4,1.559,1.559,0,0,1,.4-.274,1.833,1.833,0,0,1,.423-.157,2.253,2.253,0,0,1,.4-.044h.133a2.618,2.618,0,0,1,1.917.97l.036.036-.036.044a.748.748,0,0,1-.246.233.493.493,0,0,1-.278.076.777.777,0,0,1-.3-.06l-.31-.129c-.141-.057-.274-.109-.4-.149a1.176,1.176,0,0,0-.37-.06.543.543,0,0,0-.37.1.39.39,0,0,0-.012.6,1.689,1.689,0,0,0,.459.262l.737.318a2.846,2.846,0,0,1,.692.4,1.676,1.676,0,0,1,.455.6,1.312,1.312,0,0,1,.036.854,1.653,1.653,0,0,1-.193.4,1.5,1.5,0,0,1-.37.4,2.167,2.167,0,0,1-.58.294,2.413,2.413,0,0,1-.805.117h-.145a2.577,2.577,0,0,1-1.051-.282,2.5,2.5,0,0,1-.866-.68l-.032-.032.032-.044a.551.551,0,0,1,.121-.145l.141-.072a.594.594,0,0,1,.266-.069.72.72,0,0,1,.3.064l.314.125a2.368,2.368,0,0,0,.35.137,2.579,2.579,0,0,0,.431.076.837.837,0,0,0,.572-.157.54.54,0,0,0,.2-.31" transform="translate(-235.984 -448.248)" fill="#fff"/>
          <path id="Path_134" data-name="Path 134" d="M300.4,452.319a4.1,4.1,0,0,1-1.425-.258,3.543,3.543,0,0,1-1.208-.761,3.731,3.731,0,0,1-.854-1.248,4.8,4.8,0,0,1,0-3.459,3.733,3.733,0,0,1,.854-1.248,3.462,3.462,0,0,1,1.208-.753,4.091,4.091,0,0,1,1.425-.254,2.818,2.818,0,0,1,.825.109,2.963,2.963,0,0,1,.62.25,2.05,2.05,0,0,1,.4.3,1.587,1.587,0,0,1,.213.237.82.82,0,0,1-.081.125.4.4,0,0,1-.085.1.347.347,0,0,1-.1.073.5.5,0,0,1-.278.076.839.839,0,0,1-.29-.048l-.3-.1a2.624,2.624,0,0,0-.383-.109,2.694,2.694,0,0,0-.56-.048,2.142,2.142,0,0,0-1.611.725,2.79,2.79,0,0,0-.535.942,4.686,4.686,0,0,0,0,2.718,2.871,2.871,0,0,0,.535.942,2.179,2.179,0,0,0,.753.552,2.136,2.136,0,0,0,.854.177,2.707,2.707,0,0,0,.56-.048,3.29,3.29,0,0,0,.383-.109l.3-.1a.845.845,0,0,1,.29-.048.5.5,0,0,1,.278.077,1.026,1.026,0,0,1,.189.177.818.818,0,0,1,.081.125,1.378,1.378,0,0,1-.213.25,1.9,1.9,0,0,1-.4.29,3.215,3.215,0,0,1-.62.246,2.818,2.818,0,0,1-.825.109" transform="translate(-246.928 -444.334)" fill="#fff"/>
          <path id="Path_135" data-name="Path 135" d="M316.556,451.673a2.577,2.577,0,0,1,.539.841,2.727,2.727,0,0,1,.2,1.043,3.031,3.031,0,0,1-.177,1.043,2.607,2.607,0,0,1-.5.846,2.345,2.345,0,0,1-.785.58,2.475,2.475,0,0,1-1.035.209,2.223,2.223,0,0,1-.962-.209,2.63,2.63,0,0,1-.805-.58,2.66,2.66,0,0,1-.527-.846,2.7,2.7,0,0,1-.2-1.043,3.163,3.163,0,0,1,.173-1.043,2.485,2.485,0,0,1,.5-.841,2.268,2.268,0,0,1,.785-.58,2.46,2.46,0,0,1,1.031-.213,2.287,2.287,0,0,1,.978.213,2.415,2.415,0,0,1,.785.58m-1.764,3.6a1.117,1.117,0,0,0,.342-.069.964.964,0,0,0,.375-.254,1.572,1.572,0,0,0,.3-.523,3.121,3.121,0,0,0,0-1.747,1.458,1.458,0,0,0-.3-.523.966.966,0,0,0-.375-.254,1.1,1.1,0,0,0-.342-.064,1.057,1.057,0,0,0-.338.064.915.915,0,0,0-.374.254,1.4,1.4,0,0,0-.3.523,3.22,3.22,0,0,0,0,1.747,1.5,1.5,0,0,0,.3.523.913.913,0,0,0,.374.254,1.067,1.067,0,0,0,.338.069" transform="translate(-256.313 -448.242)" fill="#fff"/>
          <path id="Path_136" data-name="Path 136" d="M333.67,453.328a2.417,2.417,0,0,0-.093-.753,1.206,1.206,0,0,0-.25-.447.8.8,0,0,0-.346-.217,1.254,1.254,0,0,0-.382-.056,1.159,1.159,0,0,0-.37.056.74.74,0,0,0-.338.217,1.209,1.209,0,0,0-.242.447,2.389,2.389,0,0,0-.1.753V455.6a1.53,1.53,0,0,0,.02.334c.02.081,0,.157.024.2a1.675,1.675,0,0,1-1.059-.29,1.14,1.14,0,0,1-.37-.95v-1.57a2.389,2.389,0,0,0-.1-.753,1.1,1.1,0,0,0-.25-.447.764.764,0,0,0-.346-.217,1.228,1.228,0,0,0-.379-.056,1.2,1.2,0,0,0-.374.056.749.749,0,0,0-.334.217,1.143,1.143,0,0,0-.242.447,2.7,2.7,0,0,0-.089.753v2.609a.57.57,0,0,0,.02.2,1.683,1.683,0,0,1-1.059-.29,1.139,1.139,0,0,1-.366-.95v-1.57a2.959,2.959,0,0,1,.221-1.208,1.9,1.9,0,0,1,.56-.741,2.013,2.013,0,0,1,.777-.362,3.892,3.892,0,0,1,.854-.1,4,4,0,0,1,.926.113,1.9,1.9,0,0,1,.805.4,1.923,1.923,0,0,1,.805-.4,4.018,4.018,0,0,1,.926-.113,3.954,3.954,0,0,1,.862.1,2.016,2.016,0,0,1,.785.363,1.917,1.917,0,0,1,.568.741,2.961,2.961,0,0,1,.217,1.208v2.609a.48.48,0,0,0,.024.2,1.655,1.655,0,0,1-1.055-.29,1.148,1.148,0,0,1-.362-.95Z" transform="translate(-264.884 -448.266)" fill="#fff"/>
          <path id="Path_137" data-name="Path 137" d="M349.792,453.557a2.727,2.727,0,0,1,.2-1.043,2.682,2.682,0,0,1,.527-.841,2.488,2.488,0,0,1,.805-.58,2.256,2.256,0,0,1,.974-.213,2.442,2.442,0,0,1,1.031.213,2.321,2.321,0,0,1,.805.58,2.551,2.551,0,0,1,.5.841,2.968,2.968,0,0,1,.181,1.043,2.7,2.7,0,0,1-.2,1.043,2.553,2.553,0,0,1-.539.845,2.521,2.521,0,0,1-.785.58,2.281,2.281,0,0,1-.978.209,2.414,2.414,0,0,1-1.127-.254v2.577a.483.483,0,0,0,.024.2,1.679,1.679,0,0,1-1.055-.29,1.168,1.168,0,0,1-.362-.962Zm2.5,1.719a1.121,1.121,0,0,0,.342-.069.914.914,0,0,0,.37-.25,1.4,1.4,0,0,0,.3-.523,2.549,2.549,0,0,0,.125-.878,2.517,2.517,0,0,0-.125-.87,1.452,1.452,0,0,0-.3-.519.96.96,0,0,0-.371-.25,1.118,1.118,0,0,0-.342-.069,1.068,1.068,0,0,0-.338.069.941.941,0,0,0-.374.25,1.449,1.449,0,0,0-.3.519,2.609,2.609,0,0,0-.125.87,2.653,2.653,0,0,0,.125.878,1.4,1.4,0,0,0,.3.523.9.9,0,0,0,.374.25,1.073,1.073,0,0,0,.338.069" transform="translate(-278.707 -448.242)" fill="#fff"/>
          <path id="Path_138" data-name="Path 138" d="M364.8,453.267a2.284,2.284,0,0,1,.68-.282,3.183,3.183,0,0,1,.805-.1,3.569,3.569,0,0,1,1.1.169,1.973,1.973,0,0,0-.145-.616.955.955,0,0,0-.435-.5.806.806,0,0,0-.238-.085,1.334,1.334,0,0,0-.3-.028h-.121a2.131,2.131,0,0,0-.314.048l-.314.1a2.715,2.715,0,0,1-.31.093,1.155,1.155,0,0,1-.3.04.665.665,0,0,1-.3-.068.657.657,0,0,1-.234-.254l-.02-.044.02-.036a2.649,2.649,0,0,1,.785-.572,2.686,2.686,0,0,1,.991-.254h.189a2.342,2.342,0,0,1,.934.181,2.269,2.269,0,0,1,.737.507,2.661,2.661,0,0,1,.66,1.82v.089a2.883,2.883,0,0,1-.592,1.884,2.3,2.3,0,0,1-.7.58,2.508,2.508,0,0,1-.91.282H366.2a3.531,3.531,0,0,1-.491-.04,1.91,1.91,0,0,1-.5-.153,1.831,1.831,0,0,1-.467-.262,1.306,1.306,0,0,1-.358-.4,1.446,1.446,0,0,1-.221-.805v-.068a1.343,1.343,0,0,1,.177-.725,1.422,1.422,0,0,1,.479-.5m2.311.536-.33-.044h-.374a2.444,2.444,0,0,0-.3,0,1.274,1.274,0,0,0-.266.06.83.83,0,0,0-.4.278.534.534,0,0,0-.093.153.811.811,0,0,0-.044.181.35.35,0,0,0,0,.1.873.873,0,0,0,.032.241.524.524,0,0,0,.133.238.7.7,0,0,0,.262.193,1.146,1.146,0,0,0,.463.077.539.539,0,0,0,.133,0,.974.974,0,0,0,.547-.177.739.739,0,0,0,.189-.161,1.246,1.246,0,0,0,.137-.209,1.4,1.4,0,0,0,.165-.435,2.222,2.222,0,0,0,.044-.4h-.1l-.133-.036" transform="translate(-287.291 -448.242)" fill="#fff"/>
          <path id="Path_139" data-name="Path 139" d="M377.412,453.328a2.965,2.965,0,0,1,.218-1.208,1.983,1.983,0,0,1,.56-.741,1.909,1.909,0,0,1,.769-.362,3.891,3.891,0,0,1,1.723,0,2.045,2.045,0,0,1,.805.362,1.917,1.917,0,0,1,.568.741,2.966,2.966,0,0,1,.217,1.208l.044,2.818a1.675,1.675,0,0,1-1.051-.29,1.151,1.151,0,0,1-.366-.95v-1.57a2.392,2.392,0,0,0-.1-.753,1.105,1.105,0,0,0-.249-.447.806.806,0,0,0-.346-.217,1.23,1.23,0,0,0-.378-.056,1.169,1.169,0,0,0-.375.056.75.75,0,0,0-.334.217,1.207,1.207,0,0,0-.246.447,2.392,2.392,0,0,0-.1.753v1.727a4.334,4.334,0,0,0,.02.548,1.814,1.814,0,0,1,0,.334,1.6,1.6,0,0,0,.02.2,1.682,1.682,0,0,1-1.059-.29,1.139,1.139,0,0,1-.366-.95Z" transform="translate(-295.195 -448.266)" fill="#fff"/>
          <path id="Path_140" data-name="Path 140" d="M393.934,451.679a.89.89,0,0,1,.4-.487,1.559,1.559,0,0,1,.523-.149,2.058,2.058,0,0,1,.636.056q-.713,1.715-1.284,3.08-.242.58-.483,1.148c-.161.378-.3.721-.431,1.027s-.229.556-.318.757-.133.318-.149.346a.95.95,0,0,1-.4.491,1.391,1.391,0,0,1-.511.157,1.614,1.614,0,0,1-.636-.068l.29-.68c.089-.213.193-.463.306-.741s.242-.576.374-.886c-.02-.052-.068-.161-.141-.326l-.246-.592c-.093-.23-.2-.479-.31-.753s-.229-.544-.342-.805q-.4-.974-.9-2.142a2.058,2.058,0,0,1,.636-.056,1.54,1.54,0,0,1,.519.149.946.946,0,0,1,.4.487,1.841,1.841,0,0,0,.117.286l.234.572c.093.234.2.487.318.765l.358.842.378-.89c.117-.286.226-.536.318-.761s.165-.4.221-.552l.1-.262" transform="translate(-302.914 -448.336)" fill="#fff"/>
        </g>
      </g>
    </g>
  </g>
</svg>
