<svg xmlns="http://www.w3.org/2000/svg" width="117.399" height="136.983" viewBox="0 0 117.399 136.983">
  <g id="Group_8" data-name="Group 8" transform="translate(-1658.187 -55.73)">
    <g id="Group_5" data-name="Group 5" transform="translate(1681.39 55.73)">
      <path id="Path_1" data-name="Path 1" d="M186.016,86.646c-1.933-3-2.484-6.406-2.891-9.865-.224-1.907-.221-3.826-.291-5.742a33.783,33.783,0,0,1,3.465-15.6,90.844,90.844,0,0,1,6.842-11.6c1.983-2.973,4.009-5.919,5.8-9.026a34.782,34.782,0,0,0,3.809-8.91,22.638,22.638,0,0,0-.946-13.461,53.773,53.773,0,0,0-5.3-10.3A10.157,10.157,0,0,1,195.392,0c.224.154.451.291.667.466A39.174,39.174,0,0,1,204,8.426a25.192,25.192,0,0,1,3.785,24.167,55.9,55.9,0,0,1-6.231,12.282c-2.312,3.64-4.807,7.16-7.029,10.858A40.986,40.986,0,0,0,189.446,67.2a25.861,25.861,0,0,0-.239,10.642,7.579,7.579,0,0,0,6.382,6.481,10.505,10.505,0,0,0,7.393-1.031,7.042,7.042,0,0,0,3.925-7.5c-.367-.218-.609.111-.888.23a15.873,15.873,0,0,1-2.213.99,5.625,5.625,0,0,1-6.915-6.738,14.655,14.655,0,0,1,.809-2.4,5.162,5.162,0,0,1,3.9-3.1,3.576,3.576,0,0,1,3.113.8A6.461,6.461,0,0,1,206.5,67.8a25.588,25.588,0,0,1,2.984,11.772A12.8,12.8,0,0,1,197.2,92.088a13.743,13.743,0,0,1-7.672-2.038c-.1-.143-.341-.079-.411-.274l.02.017a.472.472,0,0,1-.265-.2h0c-.37-.291-.923-.376-1.089-.914h0a.4.4,0,0,1-.239-.236h0a.253.253,0,0,1-.227-.227h0a2.955,2.955,0,0,1-1.328-1.607" transform="translate(-152.787 0)" fill="#4a1714"/>
      <path id="Path_2" data-name="Path 2" d="M241.688,150.045a21.086,21.086,0,0,0-5.934-7.014,5.38,5.38,0,0,0,.076,2.315c.268,1.185.6,2.353.859,3.541a5.532,5.532,0,0,1-.946,4.659c-.323-.029-.338-.247-.387-.4-1.141-3.462-2.259-6.927-3.18-10.456a21.431,21.431,0,0,1-.515-5.477c0-.737.035-1.473.076-2.21.064-1.133.582-1.505,1.674-1.229a4.4,4.4,0,0,1,1.395.655,22.047,22.047,0,0,1,6.115,6.444,42.5,42.5,0,0,1,6.382,15.412,39.935,39.935,0,0,1-1.226,21.255c-.486,1.357-1.191,2.621-1.767,3.922a2.221,2.221,0,0,1-.446.7h0a2.091,2.091,0,0,1-.46.664h0a2.3,2.3,0,0,1-.693.894,20.472,20.472,0,0,1-9.131,5.375,41.08,41.08,0,0,1-13.132,2.131,4.538,4.538,0,0,1-2.457-.536c.14-.446.547-.4.818-.483,1.3-.408,2.6-.809,3.925-1.133a39.9,39.9,0,0,0,10.191-4.443c1.165-.649,2.227-1.438,3.343-2.152a18.471,18.471,0,0,0,6.26-7.006,34.767,34.767,0,0,0,2.877-7.16,14.533,14.533,0,0,0,.48-5.145c-.2-2.428-.14-2.26-1.374-7.131a31.13,31.13,0,0,0-1.261-3.2c-.728-1.517-1.473-2.478-1.575-2.743" transform="translate(-177.718 -94.764)" fill="#c89b2c"/>
      <path id="Path_3" data-name="Path 3" d="M181.932,42.289l-2.853,4.423a37.733,37.733,0,0,1-2.3-3.512,51.376,51.376,0,0,1-5.087-10.505,24.88,24.88,0,0,1,1.066-19.508,2.339,2.339,0,0,0,.108-.312c.087-.151.044-.364.224-.469h0a5.036,5.036,0,0,1,.4-.7h0c.146-.111.1-.32.233-.434a44.644,44.644,0,0,1,6.214-7.7,3.238,3.238,0,0,1,1.307-1.15h0a1.254,1.254,0,0,1,.233-.215h0a.565.565,0,0,1,.242-.218h0A.4.4,0,0,1,182,1.77,14.435,14.435,0,0,0,183.743.454c.262-.233.4-.183.4.175a62.907,62.907,0,0,0-5.911,10.709,24.429,24.429,0,0,0-2.085,10.651A25.423,25.423,0,0,0,178.953,32a53.881,53.881,0,0,0,4,6.863,1.411,1.411,0,0,1-.035,2.038,7.023,7.023,0,0,0-.53.7c-.163.087-.117.312-.262.411h0a1.348,1.348,0,0,0-.181.268" transform="translate(-143.846 -0.221)" fill="#c89b2c"/>
      <path id="Path_4" data-name="Path 4" d="M108.015,228a26.034,26.034,0,0,0,4.4-5.055c.186-.093.151-.291.242-.448h0c.175-.093.128-.312.242-.437h0c.154-.122.114-.329.207-.478a15.3,15.3,0,0,0,.722-8.153,7.336,7.336,0,0,0-.245-.958,4.629,4.629,0,0,0-7.844-2.053,7.551,7.551,0,0,0-1.887,2.69,2.449,2.449,0,0,0,0,1.928,30.251,30.251,0,0,0,1.747,3.316,8.781,8.781,0,0,1,.475,8.153c-.262.122-.344-.108-.475-.245a60.907,60.907,0,0,0-3.3-6.208,9.107,9.107,0,0,1-1.042-6.406,16.044,16.044,0,0,1,2.4-6.115,7.354,7.354,0,0,1,8.959-2.932.475.475,0,0,1,.277.221h0a1.569,1.569,0,0,1,.684.649h0c.5.224.623.734.874,1.165,2.242,4.534,2.178,9.317,1.456,14.148a19.546,19.546,0,0,1-1.671,5.352,15.723,15.723,0,0,1-5.657,6.624,28.22,28.22,0,0,1-12.142,4.694,9.262,9.262,0,0,1-3.512-.134,1.929,1.929,0,0,1-1.336-.737c2.743-1,5.433-1.942,8.028-3.11a39.116,39.116,0,0,0,7.279-4.563.582.582,0,0,0,.259-.2h0a4.166,4.166,0,0,0,.874-.713" transform="translate(-88.122 -144.637)" fill="#c89b2c"/>
      <path id="Path_5" data-name="Path 5" d="M122.849,117.263a41.377,41.377,0,0,1,.454-4.394,5.676,5.676,0,0,1,1.948-3.494,3.375,3.375,0,0,1,2.356-.772,2.126,2.126,0,0,1,2.1,1.9,1.866,1.866,0,0,1,.026.44,28.791,28.791,0,0,1-.9,4.545c-1.427-1.232-2.114-1.165-3.2.291a5.333,5.333,0,0,0-.853,4.723,7.862,7.862,0,0,0,2.519,4.076,2.733,2.733,0,0,1,.783.76,3.3,3.3,0,0,1-1.709,0,6.924,6.924,0,0,1-4.539-3.75,14.841,14.841,0,0,1-1.692-7.783,37.517,37.517,0,0,1,1.529-8.563,8.634,8.634,0,0,0,.346-2.725,3.815,3.815,0,0,0-.539-1.779,1.859,1.859,0,0,0-2.644-.769,3.424,3.424,0,0,0-1.409,1.226c.122.291.431.221.641.309a2.344,2.344,0,0,1,1.476,2.562,2.449,2.449,0,0,1-2.184,2.152,2.261,2.261,0,0,1-2.449-1.639,3.235,3.235,0,0,1-.183-1.412,5.316,5.316,0,0,1,5.209-4.5,3.334,3.334,0,0,1,3.057,2.009,6.669,6.669,0,0,1,.186,4.746,33.085,33.085,0,0,0-1.258,6.49,15.622,15.622,0,0,0,.533,5.357c.137.154.274.55.4,0" transform="translate(-104.504 -69.931)" fill="#4c1515"/>
      <path id="Path_6" data-name="Path 6" d="M89.867,183.1a11.686,11.686,0,0,1-.189,2.527,2.862,2.862,0,0,1-1.68,2.3,29.458,29.458,0,0,1-3.3,1.255c-.836.291-1.674.562-2.5.874-.466.172-.71,0-.78-.451a9.978,9.978,0,0,1,.349-4.915,2.474,2.474,0,0,1,1.421-1.322,13.026,13.026,0,0,1,2.522-.8,9.772,9.772,0,0,0,3.445-1.433c.451-.32.673-.224.719.309s0,1.1,0,1.657" transform="translate(-80.796 -128.262)" fill="#4a1714"/>
      <path id="Path_7" data-name="Path 7" d="M242.147,181.962a2.733,2.733,0,0,1-.4.981c-.833,1.392-1.837,2.67-2.786,3.983-.4.562-.731.62-1.342.291a33.876,33.876,0,0,1-3.736-2.556.67.67,0,0,1-.169-.9,5.714,5.714,0,0,1,.463-.874c.932-1.328,1.887-2.638,2.819-3.966a.805.805,0,0,1,1.22-.291c1.316.751,2.417,1.811,3.715,2.589.262.157.239.434.213.737" transform="translate(-188.793 -126.503)" fill="#4a1714"/>
      <path id="Path_8" data-name="Path 8" d="M283.644,334.935a18.6,18.6,0,0,0,2.4-2.265,8.969,8.969,0,0,0,.728-.97c.4-.67.32-.873-.448-1.069-.568-.14-1.165-.186-1.727-.347-1.165-.326-1.456-.815-1.438-2a11.669,11.669,0,0,1,1.211-4.772,4.563,4.563,0,0,1,2.082-2.207c.632-.312,1.007-.07.978.646a9.6,9.6,0,0,1-.463,2.152c-.114.4-.527.486-.833.673-.4.25-.839.457-1.031.946s-.082.8.393.97a6.319,6.319,0,0,0,1.511.291c1.68.16,2.056.559,1.919,2.248a8.689,8.689,0,0,1-1.086,3.672,4.883,4.883,0,0,1-3.465,2.309c-.291.035-.684.326-.731-.291" transform="translate(-223.91 -227.656)" fill="#4b1714"/>
      <path id="Path_9" data-name="Path 9" d="M145.874,286.29A.914.914,0,0,1,145,287a1.528,1.528,0,0,1,.874-.713" transform="translate(-125.98 -202.931)" fill="#c8ab5c"/>
      <path id="Path_10" data-name="Path 10" d="M139.69,280.41l.475.245c0,.14-.041.317-.2.265a.46.46,0,0,1-.271-.51" transform="translate(-122.21 -198.763)" fill="#cdb27b"/>
      <path id="Path_11" data-name="Path 11" d="M163.41,267.39c.032.21,0,.379-.242.448a.5.5,0,0,1,.242-.448" transform="translate(-138.858 -189.534)" fill="#d3a95d"/>
      <path id="Path_12" data-name="Path 12" d="M164.17,265.92a.349.349,0,0,1-.242.437.469.469,0,0,1,.242-.437" transform="translate(-139.397 -188.492)" fill="#d3a95d"/>
      <path id="Path_13" data-name="Path 13" d="M164.947,264.3a.39.39,0,0,1-.207.475.46.46,0,0,1,.207-.475" transform="translate(-139.967 -187.344)" fill="#d3a95d"/>
      <path id="Path_14" data-name="Path 14" d="M211.111,142.531a.373.373,0,0,1,.262-.411.414.414,0,0,1-.262.411" transform="translate(-172.839 -100.739)" fill="#ccaf68"/>
      <path id="Path_15" data-name="Path 15" d="M210.48,143.828a.274.274,0,0,1,.181-.268.274.274,0,0,1-.181.268" transform="translate(-172.394 -101.76)" fill="#ccaf68"/>
      <path id="Path_16" data-name="Path 16" d="M144.362,288.73a.274.274,0,0,1-.262.2.291.291,0,0,1,.262-.2" transform="translate(-125.342 -204.661)" fill="#c8ab5c"/>
      <path id="Path_17" data-name="Path 17" d="M89.814,242.4a2.58,2.58,0,0,0-2.28-1.651,4.638,4.638,0,0,0-4.429,1.928,16.387,16.387,0,0,0-3.357,8.511,10.853,10.853,0,0,0,.652,5.32,3.047,3.047,0,0,0,3.529,2,4,4,0,0,0,1.928-.769,8.68,8.68,0,0,0,3.322-4.3,27.329,27.329,0,0,0,1.284-7.116,10.155,10.155,0,0,0-.649-3.925m-2.664,7.2c0,.1-.064.352-.084.609-.108,1.409-.958,2.1-2.664,2.242a1.644,1.644,0,0,1-1.887-1.706,3.972,3.972,0,0,1,1.805-3.587,1.65,1.65,0,0,1,2.507.681,3.41,3.41,0,0,1,.323,1.762" transform="translate(-79.678 -170.623)" fill="#4a1714"/>
    </g>
    <g id="Group_6" data-name="Group 6" transform="translate(1658.2 170.945)">
      <g id="Group_1" data-name="Group 1" transform="translate(66.344)">
        <path id="Path_18" data-name="Path 18" d="M272.712,402.331c0,1.138,0,2.28.023,3.421,0,.416-.137.582-.582.582q-3.369-.017-6.738,0c-.384,0-.515-.157-.515-.524v-5.634c0-.373.134-.539.515-.512.291.02.582,0,1.057,0a1.357,1.357,0,0,0-.457,1.074c0,1.508.017,3.02,0,4.528,0,.469.137.7.626.632.74-.1,1.523.239,2.225-.23.51-.137,1.037.291,1.543-.038.667-.079.873-.486.873-1.115a3.908,3.908,0,0,1,.262-2.2c.6.026.51.521.547.874.067.632.023,1.267.026,2.012.076-.725,0-1.345.061-1.954.044-.358-.07-.844.509-.923" transform="translate(-254.124 -398.506)" fill="#fff"/>
        <path id="Path_20" data-name="Path 20" d="M277.753,410.92c-.553.469-.972.079-1.406-.216a2.024,2.024,0,0,1,.562-3.637,8.28,8.28,0,0,1,3.7-.21l-.422.5c-.335.291-.2.678-.212,1.028-.02.769,0,1.537-.02,2.3a.325.325,0,0,1-.32.367c-.213,0-.312-.178-.314-.376,0-.766,0-1.534-.02-2.3,0-.346.131-.742-.236-1.013a1.112,1.112,0,0,1-.582.259c-1.663.338-2.061,1.482-.99,2.83a1.029,1.029,0,0,1,.274.463" transform="translate(-261.596 -403.537)" fill="#fff"/>
        <path id="Path_21" data-name="Path 21" d="M313.749,410.9c-1.395-1.331-1.054-3.04.751-3.648a11.444,11.444,0,0,1,3.386-.21c-.472,1.363-.149,2.688-.268,3.98,0,.582-.437.39-.7.361-.416-.041-.454-.425-.5-.751a13.706,13.706,0,0,0-.157-2.516,1.223,1.223,0,0,0-1.89.815,3.634,3.634,0,0,0-.049.972,2.521,2.521,0,0,0,.076.419c.038.09.07.181.1.271a1.21,1.21,0,0,1,.067.291.648.648,0,0,1-.029.146.323.323,0,0,1-.5.076h0a.431.431,0,0,0-.291-.2" transform="translate(-288.14 -403.722)" fill="#fff"/>
        <path id="Path_24" data-name="Path 24" d="M297.81,399.687a1.325,1.325,0,0,0-.539,1.331c0,1.575-.015,3.153,0,4.729,0,.5-.213.626-.664.609-.326-.015-.457-.146-.457-.46v-5.719c0-.381.166-.515.533-.492.291.017.582,0,1.121,0" transform="translate(-276.275 -398.521)" fill="#fff"/>
        <path id="Path_28" data-name="Path 28" d="M343.066,408.886h-1.1a4.437,4.437,0,0,0,.242-2.862,1.619,1.619,0,0,0-1.747-1.031c-1.3.026-2.621,0-4.1,0a7.046,7.046,0,0,1,1.339-1.43c.114-.047.215-.1.236-.242h0c.248-.023.361.073.291.332s-.454.364-.411.809c1.08,0,2.163-.023,3.244,0a2.129,2.129,0,0,1,2.251,1.925c-.026.836.411,1.718-.256,2.487" transform="translate(-304.777 -401.099)" fill="#fff"/>
        <path id="Path_29" data-name="Path 29" d="M362.993,411.5c-.329,1.368-.655,1.709-1.983,1.957a2.927,2.927,0,0,0,.847-2.457c-.026-1.066,0-2.131,0-3.2,0-.873,0-.873.929-.873.143,0,.291-.029.416.093-.448,1.3-.137,2.647-.213,3.969a.416.416,0,0,1,0,.51" transform="translate(-322.25 -403.652)" fill="#fff"/>
        <path id="Path_31" data-name="Path 31" d="M318.931,412.032c.562-.914-.166-2.516.291-3.142.335.172.256.489.259.766,0,.763-.015,1.526,0,2.286s.163.8.911.4a41.045,41.045,0,0,0,4.274.079c1.025.02,2.053-.023,3.078.015.553.02.7-.21.667-.71-.041-.582-.047-1.165-.067-1.747.277.984.562,1.968-.242,2.862l-9.562.052a6.236,6.236,0,0,1-.661-.018,1.552,1.552,0,0,1-1.08-.451.582.582,0,0,0,.492-.262c.169-.079.518.163,1.083.064" transform="translate(-290.912 -405.048)" fill="#fff"/>
        <path id="Path_34" data-name="Path 34" d="M249.03,407.627a.789.789,0,0,1,.553-.938,2.511,2.511,0,0,1,3.107,1.109,2.279,2.279,0,0,1-1.165,3.171c-.271.044-.611.291-.7-.221a2.446,2.446,0,0,0,.809-2.822c-.393-.935-1.421-1.063-2.356-.291a.169.169,0,0,1-.256,0" transform="translate(-242.86 -403.366)" fill="#fff"/>
        <path id="Path_36" data-name="Path 36" d="M393.6,410.977a1.146,1.146,0,0,0,.53-1.13v-2.094c0-.888,0-.888.935-.894h.6a3.4,3.4,0,0,0-.344,2.236,2.309,2.309,0,0,1-.874,2.038,1.163,1.163,0,0,1-.306.108c-.233.029-.53.2-.536-.253" transform="translate(-345.35 -403.609)" fill="#fff"/>
        <path id="Path_38" data-name="Path 38" d="M383.962,411.612a1,1,0,0,0-1.319.014,1.037,1.037,0,0,1-1.313-.026.291.291,0,0,1,.253-.233c.975-.07,1.1-.175,1.136-1.048.026-.658,0-1.316,0-1.971,0-.932,0-.932.984-.938h.559c-.582.582-.373,1.267-.4,1.9-.017.364,0,.731,0,1.095a1.057,1.057,0,0,0,.582.978c0,.425-.262.291-.489.227" transform="translate(-336.653 -403.999)" fill="#fff"/>
        <path id="Path_40" data-name="Path 40" d="M376.281,411.827l-.253.233c-.428-.163-.853-.393-1.284,0-.335.084-.71.346-.894-.207a1.674,1.674,0,0,0,.873-1.648v-1.214c0-.935,0-.935.978-.932.111,0,.218.02.329.029s.111.087.09.14-.047.076-.073.076a4.319,4.319,0,0,0,.213,3.535" transform="translate(-331.351 -404.459)" fill="#fff"/>
        <path id="Path_43" data-name="Path 43" d="M238.911,407.236l-.309.038a13.138,13.138,0,0,0-.143,3.2c-.052.958-.079.987-1.1.673a4.917,4.917,0,0,1-.218-2.146,2.513,2.513,0,0,0-.186-1.165c-.148-.233-.416-.291-.626-.434s-.4-.265-.061-.466h2.292c.151,0,.5-.122.349.291" transform="translate(-233.699 -403.653)" fill="#fff"/>
        <path id="Path_44" data-name="Path 44" d="M229.436,411.521a.122.122,0,0,1-.16-.081.582.582,0,0,1-.2-.169h0a2.076,2.076,0,0,1-.215-.21h0a.743.743,0,0,1-.178-.2.093.093,0,0,1-.079-.128.527.527,0,0,0-.166-.32.114.114,0,0,1-.044-.166,1.456,1.456,0,0,1-.087-.69v-.268a1.94,1.94,0,0,1,.131-.495,1.159,1.159,0,0,1,.119-.213,1.811,1.811,0,0,1,.154-.18c.026-.026.055-.052.082-.081s.108-.111.163-.166l.082-.082a1.258,1.258,0,0,1,.18-.148l.2-.116c.111-.049.224-.09.335-.134l.239-.058a.445.445,0,0,1,.445.148.291.291,0,0,1,0,.233,1.166,1.166,0,0,1-.277.218l-.181.131-.16.149a1.024,1.024,0,0,0-.076.081,1.534,1.534,0,0,0-.131.175,1.056,1.056,0,0,0-.05.1,2.177,2.177,0,0,0-.07.332,2.272,2.272,0,0,1-.064.346.97.97,0,0,0,0,.457,2.811,2.811,0,0,1,.07.346,3.208,3.208,0,0,0,.076.332c.032.07.058.137.09.2a1.031,1.031,0,0,0,.224.253,1.847,1.847,0,0,1,.189.148.783.783,0,0,1,.148.2.465.465,0,0,0,.032.125.292.292,0,0,1-.119.219.584.584,0,0,1-.256-.047h-.093l-.073-.064a.673.673,0,0,0-.291-.166" transform="translate(-228.178 -404.133)" fill="#fff"/>
        <path id="Path_45" data-name="Path 45" d="M233.76,412.1l.291-.055a.873.873,0,0,1,.373-.367,1.532,1.532,0,0,1,1.371.116c.722.352.874.312.9-.323.035-.795,0-1.59.017-2.385,0-.341-.131-.737.256-.987-.017,1.165-.058,2.329-.047,3.514,0,.5-.125.775-.676.71-.821-.1-1.68.213-2.472-.224" transform="translate(-232.051 -404.488)" fill="#fff"/>
        <path id="Path_47" data-name="Path 47" d="M342.1,401.624l-.291-.332a2.945,2.945,0,0,1,.346-.4c.874-.708,1.226-.641,2.067.582a1.511,1.511,0,0,0-2.114.166" transform="translate(-308.64 -399.061)" fill="#fff"/>
        <path id="Path_53" data-name="Path 53" d="M282.647,401.375a.562.562,0,0,1-.617-.5.515.515,0,0,1,.542-.643.483.483,0,0,1,.542.533.556.556,0,0,1-.466.612" transform="translate(-266.254 -398.908)" fill="#fff"/>
        <path id="Path_54" data-name="Path 54" d="M239.751,401.375a.562.562,0,0,1-.614-.5.512.512,0,0,1,.542-.643.483.483,0,0,1,.542.533.559.559,0,0,1-.469.611" transform="translate(-235.85 -398.908)" fill="#fff"/>
        <path id="Path_55" data-name="Path 55" d="M235.322,401.375a.556.556,0,0,1-.614-.5.512.512,0,0,1,.539-.644.486.486,0,0,1,.544.533.559.559,0,0,1-.469.612" transform="translate(-232.71 -398.908)" fill="#fff"/>
        <path id="Path_56" data-name="Path 56" d="M250.606,421.05c.178.256.46.175.7.221a4.1,4.1,0,0,1-2.621.073c.582-.486,1.287-.2,1.928-.291" transform="translate(-242.634 -413.668)" fill="#fff"/>
        <path id="Path_57" data-name="Path 57" d="M318.14,400.739c-.038.358-.2.582-.539.582a.556.556,0,0,1-.582-.626.536.536,0,0,1,.655-.539c.355.038.46.291.469.582" transform="translate(-291.064 -398.849)" fill="#fff"/>
        <path id="Path_58" data-name="Path 58" d="M323.316,400.741c-.035.358-.2.582-.536.582a.553.553,0,0,1-.582-.626.536.536,0,0,1,.652-.539.509.509,0,0,1,.469.582" transform="translate(-294.735 -398.85)" fill="#fff"/>
        <path id="Path_61" data-name="Path 61" d="M294.581,426.314a.2.2,0,0,1,.2-.189c.256-.087.306.049.291.265h-.015a.748.748,0,0,0,.02.873c.306.291.757.131,1.1.355a4.415,4.415,0,0,1-1.954.041l.373-.332c-.044-.09-.09-.181-.137-.268a.486.486,0,0,1-.015-.46c.047-.093.134-.166.148-.291" transform="translate(-274.907 -417.246)" fill="#fff"/>
        <path id="Path_62" data-name="Path 62" d="M369.583,420.915c.239.314.582.151.894.207-.393.384-.888.221-1.342.247s-.873,0-1.3,0v-.51l1.762.044" transform="translate(-327.084 -413.533)" fill="#fff"/>
        <path id="Path_63" data-name="Path 63" d="M387.129,396.8a.472.472,0,0,1-.411,0,.46.46,0,0,1-.215-.178.547.547,0,0,1,.14-.847.466.466,0,0,1,.521,0,.559.559,0,0,1,.166.847.291.291,0,0,1-.2.172" transform="translate(-340.219 -395.696)" fill="#fff"/>
        <path id="Path_64" data-name="Path 64" d="M384.532,401.308a.478.478,0,0,1-.408,0,.437.437,0,0,1-.215-.181.542.542,0,0,1,.14-.844.46.46,0,0,1,.521,0,.559.559,0,0,1,.163.847.291.291,0,0,1-.2.172" transform="translate(-338.379 -398.89)" fill="#fff"/>
        <path id="Path_65" data-name="Path 65" d="M389.612,401.308a.483.483,0,0,1-.411,0,.431.431,0,0,1-.213-.181.542.542,0,0,1,.14-.844.46.46,0,0,1,.521,0,.559.559,0,0,1,.163.847.291.291,0,0,1-.2.172" transform="translate(-341.98 -398.89)" fill="#fff"/>
        <path id="Path_68" data-name="Path 68" d="M359.39,416.387c.419-.795.079-1.665.256-2.487a6.121,6.121,0,0,1,.128,2.242c0,.224-.183.277-.384.245" transform="translate(-321.101 -408.6)" fill="#fff"/>
        <path id="Path_69" data-name="Path 69" d="M296.391,425.92l-.291-.265c.83-.317.83-.317,1.357.175a1.086,1.086,0,0,0-1.077.09" transform="translate(-276.239 -416.776)" fill="#fff"/>
        <path id="Path_70" data-name="Path 70" d="M390.37,421.252c.178-.041.379-.041.489-.227l.451-.015c.122.207.338.213.536.253a1.258,1.258,0,0,1-1.476,0" transform="translate(-343.061 -413.639)" fill="#fff"/>
        <path id="Path_72" data-name="Path 72" d="M296.505,427.954a.509.509,0,0,1-.017-.874,1.787,1.787,0,0,0,.017.874" transform="translate(-276.345 -417.942)" fill="#fff"/>
        <path id="Path_73" data-name="Path 73" d="M227.9,413.175c.058-.044.116-.087.178-.125v1.039c-.262-.265-.111-.614-.189-.914" transform="translate(-227.89 -407.997)" fill="#fff"/>
        <path id="Path_78" data-name="Path 78" d="M381.427,408.247a1.062,1.062,0,0,1-.018-.215c.14-.058.344-.055.355.073s-.2.151-.338.143" transform="translate(-336.709 -404.414)" fill="#fff"/>
        <path id="Path_79" data-name="Path 79" d="M229.567,418.73l.175.2a.183.183,0,0,1-.175-.2" transform="translate(-229.078 -412.023)" fill="#fff"/>
        <path id="Path_80" data-name="Path 80" d="M294.992,429.38c.044.09.09.178.137.268a.253.253,0,0,1-.137-.268" transform="translate(-275.451 -419.572)" fill="#fff"/>
        <path id="Path_81" data-name="Path 81" d="M295.086,426.84l-.148.291a.265.265,0,0,1,.148-.291" transform="translate(-275.412 -417.772)" fill="#fff"/>
        <path id="Path_82" data-name="Path 82" d="M232.21,421.07l.291.166a.253.253,0,0,1-.291-.166" transform="translate(-230.952 -413.682)" fill="#fff"/>
        <path id="Path_83" data-name="Path 83" d="M231,420.21l.2.169a.181.181,0,0,1-.2-.169" transform="translate(-230.094 -413.072)" fill="#fff"/>
        <path id="Path_84" data-name="Path 84" d="M230.2,419.46l.215.213a.221.221,0,0,1-.215-.213" transform="translate(-229.527 -412.541)" fill="#fff"/>
        <path id="Path_85" data-name="Path 85" d="M228.717,417.19a.367.367,0,0,1,.166.32.291.291,0,0,1-.166-.32" transform="translate(-228.473 -410.932)" fill="#fff"/>
        <path id="Path_87" data-name="Path 87" d="M341.216,403.36a.256.256,0,0,1-.236.242.274.274,0,0,1,.236-.242" transform="translate(-308.052 -401.129)" fill="#fff"/>
        <path id="Path_99" data-name="Path 99" d="M235.52,407.779l-1.31.038a.629.629,0,0,0-.53-.265q.041-.088.09-.172h.649c.271.4.827,0,1.1.4" transform="translate(-231.994 -403.978)" fill="#fff"/>
        <path id="Path_100" data-name="Path 100" d="M232.46,418.69a.751.751,0,0,1,.309.416c-.242-.035-.291-.207-.309-.416" transform="translate(-231.129 -411.995)" fill="#fff"/>
        <path id="Path_101" data-name="Path 101" d="M231.743,416.9a.664.664,0,0,1,.2.524.466.466,0,0,1-.2-.524" transform="translate(-230.608 -410.726)" fill="#fff"/>
        <path id="Path_102" data-name="Path 102" d="M231.252,414.15v.44c-.213-.146-.213-.291,0-.44" transform="translate(-230.16 -408.777)" fill="#fff"/>
        <path id="Path_103" data-name="Path 103" d="M232.018,411.18a.812.812,0,0,1-.239.521c-.023-.218-.015-.428.239-.521" transform="translate(-230.641 -406.672)" fill="#fff"/>
        <path id="Path_104" data-name="Path 104" d="M228.63,411.517a.428.428,0,0,1,.213-.457.451.451,0,0,1-.213.457" transform="translate(-228.409 -406.587)" fill="#fff"/>
        <path id="Path_105" data-name="Path 105" d="M234.473,408.867a.582.582,0,0,1-.443.248c.07-.221.245-.256.443-.248" transform="translate(-232.242 -405.031)" fill="#fff"/>
        <path id="Path_106" data-name="Path 106" d="M234.729,421l.21.047-.218.157V421" transform="translate(-232.731 -413.632)" fill="#fff"/>
        <path id="Path_107" data-name="Path 107" d="M234,420.46l.224.146L234,420.46" transform="translate(-232.221 -413.25)" fill="#fff"/>
        <path id="Path_108" data-name="Path 108" d="M232.763,410.38a.291.291,0,0,1-.213.259.291.291,0,0,1,.213-.259" transform="translate(-231.193 -406.105)" fill="#fff"/>
        <path id="Path_109" data-name="Path 109" d="M229.369,410.445a.256.256,0,0,1,.2-.265.317.317,0,0,1-.2.265" transform="translate(-228.938 -405.963)" fill="#fff"/>
        <path id="Path_110" data-name="Path 110" d="M233.49,409.66a.306.306,0,0,1-.25.221.306.306,0,0,1,.25-.221" transform="translate(-231.682 -405.594)" fill="#fff"/>
        <path id="Path_111" data-name="Path 111" d="M230,409.676a.291.291,0,0,1,.247-.236.291.291,0,0,1-.247.236" transform="translate(-229.386 -405.438)" fill="#fff"/>
        <path id="Path_112" data-name="Path 112" d="M230.79,409.036a.247.247,0,0,1,.265-.189l-.265.189" transform="translate(-229.946 -405.017)" fill="#fff"/>
      </g>
      <g id="Group_2" data-name="Group 2" transform="translate(0 0.01)">
        <path id="Path_19" data-name="Path 19" d="M189.038,406.11a.457.457,0,0,0,.443-.227c1.587.073,1.98-.291,2-1.855V400.61c0-.911,0-.911.874-.92h.853a1.3,1.3,0,0,0-.614,1.3c.015,1.066-.018,2.131,0,3.2.032,1.3.419,1.665,1.747,1.718.291.114.652-.122.874.207a2.883,2.883,0,0,1-2.621-.047.734.734,0,0,0-.874-.029,2.961,2.961,0,0,1-2.717.073" transform="translate(-133.979 -398.537)" fill="#fff"/>
        <path id="Path_22" data-name="Path 22" d="M60.188,411.056c.874-.23.943-.291.975-1.048s0-1.47,0-2.2c0-.874,0-.874.836-.874.146,0,.291.026.486.047a10.132,10.132,0,0,0-.151,2.472,1.555,1.555,0,0,0,.946,1.6,4.589,4.589,0,0,0,1.438.09,4.111,4.111,0,0,1,.932-.227.483.483,0,0,1,.291.108h0a5.72,5.72,0,0,0,1.84.125,2.332,2.332,0,0,1,.512.015.189.189,0,0,1,.073.291c-1.77.093-3.541.079-5.311,0a1.488,1.488,0,0,0-.536-.163c-.4-.218-.737-.411-1.22-.038a1.331,1.331,0,0,1-1.61.017c.1-.21.329-.122.486-.207" transform="translate(-42.32 -403.669)" fill="#fff"/>
        <path id="Path_23" data-name="Path 23" d="M100.882,399.732a1.414,1.414,0,0,0-.4,1.235v4.615c0,.411.058.8-.582.786s-.539-.448-.542-.827v-4.95c0-.906,0-.908.874-.9.183,0,.364.02.652.038" transform="translate(-70.436 -398.535)" fill="#fff"/>
        <path id="Path_25" data-name="Path 25" d="M142.595,399.681a1.393,1.393,0,0,0-.48,1.345v4.627c0,.332.047.673-.463.693-.431,0-.687-.05-.681-.582.023-1.834.017-3.672,0-5.506,0-.4.1-.629.553-.582.291.026.582,0,1.066,0" transform="translate(-99.934 -398.523)" fill="#fff"/>
        <path id="Path_26" data-name="Path 26" d="M88.275,406.113h-.437c-.076-.041-.1-.087-.079-.134s.047-.07.073-.07c.317-.23.693-.414.693-.891a2.35,2.35,0,0,0,.178-1.389c.02-1.031,0-2.061,0-3.092,0-.833,0-.833.844-.847h.839a1.433,1.433,0,0,0-.547,1.255q.029,1.657,0,3.311a1.794,1.794,0,0,1-1.086,1.863.367.367,0,0,1-.475-.015" transform="translate(-62.211 -398.537)" fill="#fff"/>
        <path id="Path_27" data-name="Path 27" d="M208.284,406.126c-.291-.035-.646.1-.874-.207a1.9,1.9,0,0,0,.856-1.8v-3.535c0-.932-.047-.873.92-.873h.725a1.4,1.4,0,0,0-.542,1.249c.02,1.1.032,2.21,0,3.313a1.8,1.8,0,0,1-1.086,1.861" transform="translate(-147.029 -398.55)" fill="#fff"/>
        <path id="Path_30" data-name="Path 30" d="M133.041,407.063c-.512.038-.4.445-.411.742-.017,1.095,0,2.19,0,3.287a1.885,1.885,0,0,1-1.191,2.015c-.224.1-.309-.044-.37-.221a4.174,4.174,0,0,1,.32-1.165.472.472,0,0,0,.032-.428,24.73,24.73,0,0,1,.079-3.829c0-.271-.1-.69.32-.675s.949-.39,1.232.259" transform="translate(-92.917 -403.49)" fill="#fff"/>
        <path id="Path_32" data-name="Path 32" d="M117.686,410.822a2.161,2.161,0,0,0,.847-2.423,1.183,1.183,0,0,0-1.013-1.147c-.582-.082-1.191-.093-1.456.635-.029.084-.148.14-.242.224-.032-1.086.189-1.377,1.13-1.456.364-.032.731,0,1.1,0a1.7,1.7,0,0,1,1.631,1.52h0c.175,1.1.393,2.222-.938,2.827l.017-.015c-.087.186-.265.215-.44.256-.291-.02-.635.061-.632-.408" transform="translate(-82.107 -403.464)" fill="#fff"/>
        <path id="Path_33" data-name="Path 33" d="M32.433,411.423a2.345,2.345,0,0,1-1.456,1.927.582.582,0,0,1-.213.044,1.193,1.193,0,0,1-.265-.07,3.145,3.145,0,0,0,.763-2.414v-3.529c0-.291.044-.547.4-.5s.763-.245.993.239l-.2.084a13.668,13.668,0,0,0-.017,4.219" transform="translate(-21.63 -403.602)" fill="#fff"/>
        <path id="Path_35" data-name="Path 35" d="M10.517,411.355a34.828,34.828,0,0,1-3.974,0,.34.34,0,0,1,0-.108c.157-.5,1-.233,1-.853a5.2,5.2,0,0,0-.183-2.556c-.332-.221-.748-.154-1.1-.312-.2-.131-.475-.213-.393-.547a11.505,11.505,0,0,1,3.4-.09c.166,0,.073.154.067.245l-.329.047a11.163,11.163,0,0,0-.108,3.465c.032.742.763.265,1.165.4h.367a.2.2,0,0,1,.1.291" transform="translate(-4.157 -403.581)" fill="#fff"/>
        <path id="Path_37" data-name="Path 37" d="M53.78,411.439a.615.615,0,0,1-.486.207,1.038,1.038,0,0,0-1.328.02,1.054,1.054,0,0,1-1.316-.02.291.291,0,0,1,.256-.236c.981-.058,1.112-.163,1.144-1.045.026-.7,0-1.395,0-2.091,0-.777.02-.78.795-.8h.67a6.2,6.2,0,0,0-.236,3.41c.02.274.277.416.492.559" transform="translate(-35.913 -404.052)" fill="#fff"/>
        <path id="Path_39" data-name="Path 39" d="M45.618,411.847l-.256.236c-.425-.189-.847-.378-1.275,0-.335.079-.713.346-.9-.213a1.675,1.675,0,0,0,.891-1.636c0-.71,0-1.392,0-2.088a5.073,5.073,0,0,1,1.543,0,3.93,3.93,0,0,0-.02,3.707" transform="translate(-30.625 -404.489)" fill="#fff"/>
        <path id="Path_41" data-name="Path 41" d="M21.154,411.429h-.218c-.073-.047-.1-.093-.076-.143s.047-.076.073-.076a1.839,1.839,0,0,0,.836-1.666c.017-.507,0-1.016,0-1.523,0-.818.017-.818.824-.833a3.035,3.035,0,0,1,.323.032.172.172,0,0,1,.047.291,13.316,13.316,0,0,0-.082,1.957,2.058,2.058,0,0,1-1.229,2,.449.449,0,0,1-.507-.029" transform="translate(-14.791 -403.853)" fill="#fff"/>
        <path id="Path_42" data-name="Path 42" d="M1.682,407.743c.2.035.4.061.515.268a.451.451,0,0,1-.183.475,1.725,1.725,0,0,0-.218,2.452.944.944,0,0,1,.268.678c-.079.169-.192.259-.384.169-1.526-.6-1.93-1.456-1.456-3.127a1.785,1.785,0,0,1,.908-.856h-.02c.16-.224.361-.183.582-.084" transform="translate(-0.036 -404.17)" fill="#fff"/>
        <path id="Path_46" data-name="Path 46" d="M38.241,411.863c.239.32.582.157.9.213-.431.408-.967.207-1.456.242-.4.029-.8,0-1.2,0-.492-1.08-.154-2.225-.239-3.334-.023-.312-.1-.67.256-.874-.119,1.086-.029,2.172-.061,3.258,0,.367.122.53.5.515.434-.02.874,0,1.3,0" transform="translate(-25.676 -404.506)" fill="#fff"/>
        <path id="Path_48" data-name="Path 48" d="M5.649,412.7l.291-.277a1.616,1.616,0,0,0,1.237-2.038,1.774,1.774,0,0,1,.291-1.456c.291.151.247.422.25.673v2.19c0,.789-.02.795-.844.9a.7.7,0,0,0-.489.2.745.745,0,0,1-.745-.163" transform="translate(-4.008 -405.087)" fill="#fff"/>
        <path id="Path_49" data-name="Path 49" d="M17.324,411.863v.218c-1.762.032-1.549.084-1.561-1.523v-1.767c0-.259,0-.524.259-.681a20.931,20.931,0,0,0-.067,2.929c0,.833,0,.833.821.836h.544" transform="translate(-11.182 -404.506)" fill="#fff"/>
        <path id="Path_50" data-name="Path 50" d="M9.8,401.341c-.874-.064-.923-.114-.783-1.042a1.121,1.121,0,0,1,.856-.035c.291.247.53.51.143.874l.023-.023a.341.341,0,0,1-.242.239Z" transform="translate(-6.358 -398.895)" fill="#fff"/>
        <path id="Path_51" data-name="Path 51" d="M77.8,425.51c.364.055.582.253.582.582a.527.527,0,0,1-.626.582c-.352-.026-.492-.271-.478-.6a.547.547,0,0,1,.521-.547" transform="translate(-54.786 -416.839)" fill="#fff"/>
        <path id="Path_52" data-name="Path 52" d="M117.169,420.993c.163.259.434.189.673.218a3.254,3.254,0,0,1-2.714.1c-.1-.093.023-.2.061-.291l1.98-.026" transform="translate(-81.59 -413.635)" fill="#fff"/>
        <path id="Path_59" data-name="Path 59" d="M22.191,426.144a.559.559,0,0,1-.55.553.5.5,0,0,1-.565-.515.518.518,0,0,1,.582-.614c.332,0,.495.256.542.582" transform="translate(-14.942 -416.876)" fill="#fff"/>
        <path id="Path_60" data-name="Path 60" d="M26.329,425.546a.553.553,0,0,1,.492.606.521.521,0,0,1-.556.539.559.559,0,0,1-.553-.649.582.582,0,0,1,.617-.495" transform="translate(-18.231 -416.864)" fill="#fff"/>
        <path id="Path_66" data-name="Path 66" d="M4.874,400.322a1.467,1.467,0,0,1,.017.195.527.527,0,0,1,.029.539l-.256.37h0a.291.291,0,0,1-.437-.02h0c-.428-.291-.544-.643-.189-1.077a1.258,1.258,0,0,1,.833,0" transform="translate(-2.724 -398.939)" fill="#fff"/>
        <path id="Path_67" data-name="Path 67" d="M164.892,420.944c.116.189.32.192.507.236-.641.428-1.366.122-2.038.23V420.9l1.546.044" transform="translate(-115.805 -413.571)" fill="#fff"/>
        <path id="Path_71" data-name="Path 71" d="M129.968,427.745a.909.909,0,0,0,.2-.035l.291.291c-.175.291-.486.2-.713.341-.134-.341.2-.393.215-.6" transform="translate(-91.954 -418.398)" fill="#fff"/>
        <path id="Path_74" data-name="Path 74" d="M28.017,407.443c-.015-.1-.029-.189-.047-.291.172-.07.428-.079.451.073s-.242.178-.4.213" transform="translate(-19.836 -403.792)" fill="#fff"/>
        <path id="Path_75" data-name="Path 75" d="M89.536,421.75l.475.015a.422.422,0,0,1-.48.178v-.192" transform="translate(-63.472 -414.174)" fill="#fff"/>
        <path id="Path_76" data-name="Path 76" d="M69.45,421.819a.483.483,0,0,1,.536.163.466.466,0,0,1-.536-.163" transform="translate(-49.239 -414.205)" fill="#fff"/>
        <path id="Path_77" data-name="Path 77" d="M21.883,421.75l.507.029a.425.425,0,0,1-.51.169c0-.067,0-.131,0-.2" transform="translate(-15.519 -414.174)" fill="#fff"/>
        <path id="Path_86" data-name="Path 86" d="M52.073,405.03l-.052.09-.041-.041Z" transform="translate(-36.855 -402.322)" fill="#fff"/>
        <path id="Path_88" data-name="Path 88" d="M78.046,411.179c-.227.329-.582.2-.874.224q-.192-.108-.035-.271v-3.884a3.091,3.091,0,0,1,1.182-.079c.111,0,.259.073.227.157s-.192.21-.291.312c-.291,1.165.1,2.367-.2,3.532" transform="translate(-54.638 -403.822)" fill="#fff"/>
        <path id="Path_89" data-name="Path 89" d="M53.39,400.189c.384-.122.737-.178.981.268.076.14.242.052.355-.032a.338.338,0,0,1-.032.492c-.1,0-.265-.029-.291.026-.25.335-.536.544-.92.247s-.262-.643-.087-.993Z" transform="translate(-37.741 -398.829)" fill="#fff"/>
        <path id="Path_90" data-name="Path 90" d="M56.463,396.822a.474.474,0,0,1-.408,0,.352.352,0,0,1-.21-.172.542.542,0,0,1,.143-.841.471.471,0,0,1,.521,0,.553.553,0,0,1,.154.844.291.291,0,0,1-.2.169" transform="translate(-39.495 -395.73)" fill="#fff"/>
        <path id="Path_91" data-name="Path 91" d="M58.2,400.955c0-.163.02-.329.032-.492.262-.411.582-.381.874-.076a.5.5,0,0,1-.058.769c-.358.323-.652.2-.874-.2" transform="translate(-41.243 -398.868)" fill="#fff"/>
        <path id="Path_92" data-name="Path 92" d="M80.414,412.4V409.68c0-.291-.064-.582.2-.809l.023,3.532Z" transform="translate(-57.005 -405.044)" fill="#fff"/>
        <path id="Path_93" data-name="Path 93" d="M83.145,420.936v.2c-.664-.082-1.374.233-1.994-.23l1.994.026" transform="translate(-57.532 -413.578)" fill="#fff"/>
        <path id="Path_94" data-name="Path 94" d="M73.59,420.81l.035.271c-.518-.064-1.077.2-1.555-.2a8.289,8.289,0,0,0,1.52-.073" transform="translate(-51.096 -413.508)" fill="#fff"/>
        <path id="Path_95" data-name="Path 95" d="M58.31,399.069a.2.2,0,0,1,.2-.169c0,.122-.064.2-.2.169" transform="translate(-41.342 -397.977)" fill="#fff"/>
        <path id="Path_96" data-name="Path 96" d="M56.19,398.909a.2.2,0,0,1,.21.172c-.146.035-.2-.047-.21-.172" transform="translate(-39.84 -397.983)" fill="#fff"/>
        <path id="Path_97" data-name="Path 97" d="M151.892,406.773a12.608,12.608,0,0,0-3.069.137,2.264,2.264,0,0,0-1.948,2.085,2.232,2.232,0,0,0,1.8,2.2,4.331,4.331,0,0,0,1.415.154c.344,0,.437.175.419.486a2.487,2.487,0,0,1-.8,1.651c1.342-.169,1.724-.6,1.96-2.114a.393.393,0,0,0,0-.509c.076-1.36-.221-2.743.233-4.094m-1.383,2.376h0v1.43a.355.355,0,0,1-.306.384,2.038,2.038,0,0,1-1.881-.678,2.152,2.152,0,0,1-.07-2.292,1.866,1.866,0,0,1,1.852-.7.457.457,0,0,1,.414.536v1.322" transform="translate(-104.118 -403.538)" fill="#fff"/>
        <path id="Path_98" data-name="Path 98" d="M174.409,409.291a2.341,2.341,0,0,0-2.554-2.2,2.427,2.427,0,0,0-2.621,2.513,1.777,1.777,0,0,1-.655,1.552c0,.434.277.291.507.236.218,0,.355-.291.67-.026,1.505,1.287,2.664,1.287,4.132,0,.291-.245.445-.061.664-.02.259.14.469.183.443-.227-.582-.489-.495-1.194-.6-1.837m-1.226,1.532a1.281,1.281,0,0,1-1.086.975,1.214,1.214,0,0,1-1.287-.667,2.944,2.944,0,0,1-.271-2.548,1.284,1.284,0,0,1,1.261-1.042,1.352,1.352,0,0,1,1.316,1,4.12,4.12,0,0,1,.192,1.336,4.869,4.869,0,0,1-.125.949" transform="translate(-119.505 -403.782)" fill="#fff"/>
        <path id="Path_113" data-name="Path 113" d="M7.509,401.689c0-.181-.02-.358-.029-.539.2.169.262.347.029.539" transform="translate(-5.312 -399.572)" fill="#fff"/>
      </g>
    </g>
    <g id="Group_7" data-name="Group 7" transform="translate(1658.187 185.105)">
      <g id="Group_4" data-name="Group 4" transform="translate(0 0.003)">
        <path id="Path_114" data-name="Path 114" d="M3.857,449.29v.055a.8.8,0,0,1-.1.428.518.518,0,0,1-.25.242.766.766,0,0,1-.349.1l-.361.02a5.239,5.239,0,0,1-1.261-.076,1.856,1.856,0,0,1-.874-.416,1.832,1.832,0,0,1-.507-.836,4.5,4.5,0,0,1-.166-1.336v-1.523a1.831,1.831,0,0,1,.169-.874.9.9,0,0,1,.21-.259,1.169,1.169,0,0,1,.291-.16,1.726,1.726,0,0,1,.218-.067,1.982,1.982,0,0,1,.242-.047l.355-.023H2.567c.344,0,.582,0,.742-.015l.291-.026h.064v.049a.777.777,0,0,1-.1.428.7.7,0,0,1-.247.25,1.007,1.007,0,0,1-.344.1q-.183.017-.367.017H1.237l-.082.015-.055.023a.148.148,0,0,0-.073.067.193.193,0,0,0-.041.108,1.277,1.277,0,0,0,0,.157L1,446.67H2.987a.815.815,0,0,1-.2.582.743.743,0,0,1-.582.218H1a3.412,3.412,0,0,0,.07.9,1.286,1.286,0,0,0,.291.582,1.078,1.078,0,0,0,.515.291,2.909,2.909,0,0,0,.763.09q.524,0,.812-.018l.349-.023h0Z" transform="translate(0.009 -444.439)" fill="#fff"/>
        <path id="Path_115" data-name="Path 115" d="M15.6,449.245v.638a.349.349,0,0,0,.017.146,1.2,1.2,0,0,1-.763-.21.83.83,0,0,1-.262-.687V446.27a2.309,2.309,0,0,1,.119-.751,1.784,1.784,0,0,1,.349-.614,1.579,1.579,0,0,1,.55-.414,1.678,1.678,0,0,1,.734-.151.973.973,0,0,1,.411.081.583.583,0,0,1,.291.242.609.609,0,0,1,.064.259.641.641,0,0,1-.023.169l-.017.049-.041-.017a1.729,1.729,0,0,0-.262-.067,1.672,1.672,0,0,0-.335-.029,1.246,1.246,0,0,0-.16.015.9.9,0,0,0-.21.073.833.833,0,0,0-.215.157.872.872,0,0,0-.172.271,1.4,1.4,0,0,0-.079.268,2.039,2.039,0,0,0-.026.347v.087h1.089a.815.815,0,0,1-.2.582.737.737,0,0,1-.582.218h-.291Z" transform="translate(-10.337 -444.339)" fill="#fff"/>
        <path id="Path_116" data-name="Path 116" d="M23.113,452.606a1.652,1.652,0,0,1,.492-.2,2.3,2.3,0,0,1,.582-.07,2.583,2.583,0,0,1,.8.122,1.43,1.43,0,0,0-.1-.445.69.69,0,0,0-.314-.361.567.567,0,0,0-.175-.061.923.923,0,0,0-.213-.02h-.087a1.538,1.538,0,0,0-.227.035q-.114.032-.227.07a1.959,1.959,0,0,1-.224.067.834.834,0,0,1-.218.029.481.481,0,0,1-.218-.05.474.474,0,0,1-.169-.183l-.017-.032.017-.026a1.913,1.913,0,0,1,.568-.413,1.943,1.943,0,0,1,.716-.183h.137a1.694,1.694,0,0,1,.676.131,1.64,1.64,0,0,1,.533.367,1.924,1.924,0,0,1,.478,1.316v.064a2.084,2.084,0,0,1-.437,1.36,1.665,1.665,0,0,1-.5.419,1.812,1.812,0,0,1-.658.2h-.2a2.522,2.522,0,0,1-.355-.029,1.373,1.373,0,0,1-.364-.111,1.323,1.323,0,0,1-.338-.189.946.946,0,0,1-.259-.291,1.045,1.045,0,0,1-.16-.582v-.049a.972.972,0,0,1,.128-.524,1.027,1.027,0,0,1,.346-.364m1.668.393-.239-.032h-.271a1.727,1.727,0,0,0-.218,0,.93.93,0,0,0-.192.044.6.6,0,0,0-.306.2.388.388,0,0,0-.067.111.584.584,0,0,0-.032.131.236.236,0,0,0,0,.073.635.635,0,0,0,.026.175.378.378,0,0,0,.1.172.487.487,0,0,0,.189.14.826.826,0,0,0,.335.055.383.383,0,0,0,.1,0,.7.7,0,0,0,.4-.128.536.536,0,0,0,.137-.116.907.907,0,0,0,.1-.151,1.013,1.013,0,0,0,.119-.314,1.616,1.616,0,0,0,.032-.291h-.073l-.1-.026" transform="translate(-16.043 -448.975)" fill="#fff"/>
        <path id="Path_117" data-name="Path 117" d="M39.355,448.373a2.2,2.2,0,0,1-.128.748,1.954,1.954,0,0,1-.364.617,1.723,1.723,0,0,1-.582.411,1.777,1.777,0,0,1-.745.154,1.633,1.633,0,0,1-.7-.154,1.925,1.925,0,0,1-.582-.411,1.881,1.881,0,0,1-.384-.611,2.01,2.01,0,0,1-.14-.754,2.216,2.216,0,0,1,.125-.754,1.837,1.837,0,0,1,.358-.617,1.746,1.746,0,0,1,.568-.411,1.781,1.781,0,0,1,.748-.154,1.643,1.643,0,0,1,.821.21v-1.136a.818.818,0,0,1,.268-.69,1.235,1.235,0,0,1,.766-.207,1.143,1.143,0,0,0,0,.146,1.612,1.612,0,0,1-.015.242,3.544,3.544,0,0,0,0,.4Zm-1.8,1.235a.765.765,0,0,0,.245-.047.7.7,0,0,0,.271-.183,1.1,1.1,0,0,0,.218-.379,2.329,2.329,0,0,0,0-1.267,1.1,1.1,0,0,0-.218-.379.736.736,0,0,0-.271-.183.766.766,0,0,0-.245-.047.781.781,0,0,0-.247.047.736.736,0,0,0-.271.183,1.1,1.1,0,0,0-.218.379,2.329,2.329,0,0,0,0,1.267,1.1,1.1,0,0,0,.218.379.7.7,0,0,0,.271.183.778.778,0,0,0,.247.047" transform="translate(-25.324 -444.532)" fill="#fff"/>
        <path id="Path_118" data-name="Path 118" d="M50.864,452.591a1.683,1.683,0,0,1,.492-.2,2.332,2.332,0,0,1,.582-.07,2.571,2.571,0,0,1,.8.122,1.429,1.429,0,0,0-.1-.445.69.69,0,0,0-.312-.361.581.581,0,0,0-.172-.061.968.968,0,0,0-.215-.02h-.087a1.523,1.523,0,0,0-.227.035c-.076.02-.151.044-.224.07a2.228,2.228,0,0,1-.227.067.835.835,0,0,1-.218.029.481.481,0,0,1-.218-.049.475.475,0,0,1-.169-.183l-.017-.038.015-.026a1.931,1.931,0,0,1,1.284-.6h.137a1.633,1.633,0,0,1,1.214.5,1.936,1.936,0,0,1,.475,1.316v.064a2.085,2.085,0,0,1-.431,1.366,1.666,1.666,0,0,1-.5.419,1.8,1.8,0,0,1-.658.2h-.2a2.541,2.541,0,0,1-.355-.029,1.379,1.379,0,0,1-.364-.111,1.321,1.321,0,0,1-.338-.189.946.946,0,0,1-.259-.291,1.069,1.069,0,0,1-.16-.582v-.049a1,1,0,0,1,.128-.524,1.028,1.028,0,0,1,.338-.358m1.671.387-.215-.041H52.05a1.727,1.727,0,0,0-.218,0,.922.922,0,0,0-.192.044.614.614,0,0,0-.291.2.324.324,0,0,0-.064.111.457.457,0,0,0-.035.131.428.428,0,0,0,0,.073.629.629,0,0,0,.023.175.44.44,0,0,0,.1.172.509.509,0,0,0,.189.14.828.828,0,0,0,.335.055.426.426,0,0,0,.1,0,.7.7,0,0,0,.393-.128.492.492,0,0,0,.137-.117.9.9,0,0,0,.1-.151,1.014,1.014,0,0,0,.119-.314,1.4,1.4,0,0,0,.032-.291H52.7l-.1-.026" transform="translate(-35.721 -448.96)" fill="#fff"/>
        <path id="Path_119" data-name="Path 119" d="M67.105,449.438v.638a1.148,1.148,0,0,0,0,.146,1.217,1.217,0,0,1-.766-.21.824.824,0,0,1-.265-.687v-1.135a1.729,1.729,0,0,0-.07-.545.83.83,0,0,0-.178-.323.528.528,0,0,0-.242-.157.911.911,0,0,0-.539,0,.535.535,0,0,0-.245.157.827.827,0,0,0-.172.323,1.843,1.843,0,0,0-.064.545v1.887a.349.349,0,0,0,.017.146,1.2,1.2,0,0,1-.763-.21.83.83,0,0,1-.262-.687V445.51a.839.839,0,0,1,.25-.69,1.165,1.165,0,0,1,.748-.207v1.948a1.717,1.717,0,0,1,.384-.087,2.834,2.834,0,0,1,1.01.044,1.455,1.455,0,0,1,.582.262,1.386,1.386,0,0,1,.411.536,2.143,2.143,0,0,1,.157.874Z" transform="translate(-45.046 -444.531)" fill="#fff"/>
        <path id="Path_120" data-name="Path 120" d="M87.829,445.518a.856.856,0,0,1,.253-.7,1.164,1.164,0,0,1,.754-.21.55.55,0,0,1-.017.154,1.076,1.076,0,0,0,0,.239v4.831a2.353,2.353,0,0,0,0,.239,1.143,1.143,0,0,0,0,.146,1.2,1.2,0,0,1-.757-.207.833.833,0,0,1-.259-.69V447.6H85.537v2.478a.348.348,0,0,0,.017.146,1.214,1.214,0,0,1-.763-.207.824.824,0,0,1-.262-.69v-3.806a.873.873,0,0,1,.256-.7,1.165,1.165,0,0,1,.754-.21.552.552,0,0,1-.017.154,1.073,1.073,0,0,0,0,.239V446.8H87.8Z" transform="translate(-59.911 -444.531)" fill="#fff"/>
        <path id="Path_121" data-name="Path 121" d="M105.126,453.215a2.056,2.056,0,0,1-.16.874,1.416,1.416,0,0,1-.416.533,1.458,1.458,0,0,1-.582.265,2.693,2.693,0,0,1-1.243,0,1.458,1.458,0,0,1-.582-.265,1.382,1.382,0,0,1-.413-.533,2.1,2.1,0,0,1-.157-.874v-1.138a.824.824,0,0,1,.262-.687,1.2,1.2,0,0,1,.763-.207,1.145,1.145,0,0,0,0,.146,1.61,1.61,0,0,1-.015.242,3.546,3.546,0,0,0,0,.4v1.249a1.843,1.843,0,0,0,.064.544.815.815,0,0,0,.175.32.547.547,0,0,0,.242.151.912.912,0,0,0,.539,0,.567.567,0,0,0,.242-.151.815.815,0,0,0,.175-.32,1.843,1.843,0,0,0,.064-.544v-1.138a.815.815,0,0,1,.265-.687,1.22,1.22,0,0,1,.769-.207.516.516,0,0,1-.017.146,1.1,1.1,0,0,0,0,.242v.4Z" transform="translate(-71.991 -449.188)" fill="#fff"/>
        <path id="Path_122" data-name="Path 122" d="M121.025,452.661a1.729,1.729,0,0,0-.07-.544.8.8,0,0,0-.181-.323.552.552,0,0,0-.25-.157.887.887,0,0,0-.274-.041.869.869,0,0,0-.271.041.542.542,0,0,0-.242.157.873.873,0,0,0-.178.323,1.747,1.747,0,0,0-.067.544v1.645a.927.927,0,0,0,.017.242c.017.058,0,.114.015.146a1.217,1.217,0,0,1-.766-.21.824.824,0,0,1-.265-.687v-1.136a1.746,1.746,0,0,0-.067-.544.873.873,0,0,0-.181-.323.582.582,0,0,0-.25-.157.91.91,0,0,0-.291-.041.838.838,0,0,0-.268.041.526.526,0,0,0-.242.157.827.827,0,0,0-.175.323,1.844,1.844,0,0,0-.064.544v1.887a.348.348,0,0,0,.017.146,1.211,1.211,0,0,1-.766-.21.824.824,0,0,1-.268-.687v-1.136a2.142,2.142,0,0,1,.157-.873,1.348,1.348,0,0,1,.97-.8,2.778,2.778,0,0,1,.614-.07,2.863,2.863,0,0,1,.67.082,1.385,1.385,0,0,1,.582.291,1.372,1.372,0,0,1,.582-.291,2.889,2.889,0,0,1,.67-.082,2.857,2.857,0,0,1,.62.07,1.48,1.48,0,0,1,.582.262,1.386,1.386,0,0,1,.411.536,2.143,2.143,0,0,1,.157.873v1.887a1.149,1.149,0,0,0,.015.146,1.2,1.2,0,0,1-.763-.21.83.83,0,0,1-.262-.687Z" transform="translate(-82.178 -449.004)" fill="#fff"/>
        <path id="Path_123" data-name="Path 123" d="M139.475,452.606a1.684,1.684,0,0,1,.492-.2,2.328,2.328,0,0,1,.582-.07,2.57,2.57,0,0,1,.8.122,1.428,1.428,0,0,0-.1-.445.69.69,0,0,0-.314-.361.58.58,0,0,0-.172-.061.964.964,0,0,0-.215-.02h-.087a1.531,1.531,0,0,0-.227.035c-.076.02-.151.044-.224.07a2.209,2.209,0,0,1-.227.067.835.835,0,0,1-.218.029.4.4,0,0,1-.387-.233l-.015-.032.015-.026a1.93,1.93,0,0,1,1.284-.6h.137a1.633,1.633,0,0,1,1.211.5,1.936,1.936,0,0,1,.475,1.316v.064a2.085,2.085,0,0,1-.428,1.363,1.664,1.664,0,0,1-.5.419,1.8,1.8,0,0,1-.658.2h-.2a2.555,2.555,0,0,1-.355-.029,1.38,1.38,0,0,1-.364-.111,1.325,1.325,0,0,1-.338-.189.946.946,0,0,1-.259-.291,1.068,1.068,0,0,1-.16-.582v-.05a1,1,0,0,1,.128-.524,1.028,1.028,0,0,1,.347-.364m1.671.387-.239-.032h-.271a1.75,1.75,0,0,0-.218,0,.926.926,0,0,0-.192.044.614.614,0,0,0-.306.2.324.324,0,0,0-.064.111.458.458,0,0,0-.035.131.423.423,0,0,0,0,.073.627.627,0,0,0,.023.175.44.44,0,0,0,.1.172.508.508,0,0,0,.189.14.826.826,0,0,0,.335.055.421.421,0,0,0,.1,0,.7.7,0,0,0,.393-.128.491.491,0,0,0,.137-.116.906.906,0,0,0,.1-.151,1.015,1.015,0,0,0,.119-.314,1.4,1.4,0,0,0,.032-.291h-.073l-.1-.026" transform="translate(-98.53 -448.974)" fill="#fff"/>
        <path id="Path_124" data-name="Path 124" d="M152.195,452.661a2.144,2.144,0,0,1,.157-.874,1.426,1.426,0,0,1,.4-.536,1.382,1.382,0,0,1,.556-.262,2.814,2.814,0,0,1,1.246,0,1.457,1.457,0,0,1,.582.262,1.386,1.386,0,0,1,.411.536,2.143,2.143,0,0,1,.157.874l.032,2.038a1.2,1.2,0,0,1-.757-.21.824.824,0,0,1-.268-.687v-1.136a1.73,1.73,0,0,0-.07-.544.8.8,0,0,0-.181-.323.553.553,0,0,0-.25-.157.889.889,0,0,0-.274-.041.875.875,0,0,0-.271.041.542.542,0,0,0-.242.157.874.874,0,0,0-.178.323,1.746,1.746,0,0,0-.067.544V454.7a1.217,1.217,0,0,1-.766-.21.824.824,0,0,1-.265-.687Z" transform="translate(-107.844 -449.004)" fill="#fff"/>
      </g>
      <g id="Group_3" data-name="Group 3" transform="translate(50.446)">
        <path id="Path_125" data-name="Path 125" d="M174.248,449.237v.638a.349.349,0,0,0,.017.146,1.206,1.206,0,0,1-.76-.207.833.833,0,0,1-.256-.69v-3.413a1.342,1.342,0,0,1,.137-.643,1.079,1.079,0,0,1,.376-.416,1.612,1.612,0,0,1,.582-.227,5.668,5.668,0,0,1,.719-.093,3.046,3.046,0,0,1,.533.02,2.986,2.986,0,0,1,.559.131,2.877,2.877,0,0,1,.53.236,1.876,1.876,0,0,1,.44.361,1.692,1.692,0,0,1,.291.486,1.485,1.485,0,0,1-1.037,1.989.746.746,0,0,1,.314.2,1.483,1.483,0,0,1,.23.341c.067.131.134.274.2.431s.143.314.224.475a2.142,2.142,0,0,0,.192.335c.07.1.134.189.2.262a1.542,1.542,0,0,0,.2.227.662.662,0,0,1-.163.122,1.051,1.051,0,0,1-.21.064.951.951,0,0,1-.291,0,1.019,1.019,0,0,1-.355-.113,1.225,1.225,0,0,1-.323-.274,3.609,3.609,0,0,1-.344-.492c-.119-.2-.259-.46-.416-.766a1.065,1.065,0,0,0-.329-.393,1.641,1.641,0,0,0-.477-.213l-.09-.026a.291.291,0,0,1-.087-.023l-.157-.029-.2-.035-.25-.049Zm.815-4.114a1.58,1.58,0,0,0-.4.084.811.811,0,0,0-.25.146.463.463,0,0,0-.134.189.582.582,0,0,0-.041.21v1.165c.122.029.25.052.379.073s.227.032.355.044a3.351,3.351,0,0,0,.379.02,1.392,1.392,0,0,0,.8-.2.894.894,0,0,0,.347-.661.838.838,0,0,0-.09-.512.894.894,0,0,0-.329-.338,1.456,1.456,0,0,0-.486-.178,1.868,1.868,0,0,0-.539-.029" transform="translate(-173.245 -444.327)" fill="#fff"/>
        <path id="Path_126" data-name="Path 126" d="M193.875,453.882a.583.583,0,0,1,.186.2l.023.023-.023.023a1.919,1.919,0,0,1-1.427.623,1.673,1.673,0,0,1-.7-.151,1.8,1.8,0,0,1-.582-.414,1.881,1.881,0,0,1-.384-.611,2.01,2.01,0,0,1-.14-.754,2.217,2.217,0,0,1,.125-.754,1.838,1.838,0,0,1,.358-.617,1.746,1.746,0,0,1,.582-.411,1.781,1.781,0,0,1,.748-.154,2,2,0,0,1,.495.07,1.732,1.732,0,0,1,.5.219,1.238,1.238,0,0,1,.387.39,1.066,1.066,0,0,1,.154.582.83.83,0,0,1-.169.536,1.244,1.244,0,0,1-.4.323,1.826,1.826,0,0,1-.495.16,2.85,2.85,0,0,1-.457.044,3.415,3.415,0,0,1-.521-.035l-.291-.052a1.377,1.377,0,0,0,.131.472.983.983,0,0,0,.218.291.677.677,0,0,0,.242.143.775.775,0,0,0,.218.035,1.456,1.456,0,0,0,.32-.032,1.991,1.991,0,0,0,.291-.073c.079-.026.157-.052.23-.082a.609.609,0,0,1,.213-.038.359.359,0,0,1,.2.055m-1.284-2.321a1.132,1.132,0,0,0-.21.044.682.682,0,0,0-.239.134.933.933,0,0,0-.215.274,1.353,1.353,0,0,0-.137.451,2.723,2.723,0,0,0,.367.076,1.872,1.872,0,0,0,.478,0,1.033,1.033,0,0,0,.419-.137.457.457,0,0,0,.2-.381.4.4,0,0,0-.157-.346.713.713,0,0,0-.5-.128" transform="translate(-185.71 -448.972)" fill="#fff"/>
        <path id="Path_127" data-name="Path 127" d="M205.661,453.736a.262.262,0,0,0-.076-.23,1,1,0,0,0-.265-.178c-.116-.058-.253-.116-.408-.183a3.211,3.211,0,0,1-.492-.256,1.129,1.129,0,0,1-.32-.271,1.063,1.063,0,0,1-.23-.71,1.041,1.041,0,0,1,.09-.376.874.874,0,0,1,.21-.291,1.066,1.066,0,0,1,.291-.2,1.343,1.343,0,0,1,.32-.111,1.585,1.585,0,0,1,.291-.032h.1a1.9,1.9,0,0,1,1.389.7l.023.026-.023.032a.6.6,0,0,1-.178.169.367.367,0,0,1-.2.055.561.561,0,0,1-.218-.044l-.227-.093c-.1-.041-.2-.079-.291-.108a.874.874,0,0,0-.271-.044.384.384,0,0,0-.265.076.282.282,0,0,0-.009.437,1.246,1.246,0,0,0,.329.189c.169.07.346.146.533.23a2,2,0,0,1,.5.291,1.187,1.187,0,0,1,.332.437.949.949,0,0,1,.023.617,1.164,1.164,0,0,1-.137.291,1.049,1.049,0,0,1-.271.291,1.572,1.572,0,0,1-.419.213,1.717,1.717,0,0,1-.582.084h-.1a1.875,1.875,0,0,1-.763-.2,1.831,1.831,0,0,1-.626-.492l-.023-.023.023-.032a.469.469,0,0,1,.09-.1l.087-.073a.452.452,0,0,1,.2-.049.52.52,0,0,1,.218.047l.224.09a1.7,1.7,0,0,0,.253.1,1.933,1.933,0,0,0,.312.055.615.615,0,0,0,.416-.114.384.384,0,0,0,.14-.224" transform="translate(-194.825 -448.986)" fill="#fff"/>
        <path id="Path_128" data-name="Path 128" d="M218.732,451.453a1.862,1.862,0,0,1,.39.608,2.039,2.039,0,0,1,.143.754,2.126,2.126,0,0,1-.131.754,1.829,1.829,0,0,1-.361.611,1.679,1.679,0,0,1-.582.419,1.775,1.775,0,0,1-.745.151,1.63,1.63,0,0,1-.7-.151,1.856,1.856,0,0,1-.582-.419,1.984,1.984,0,0,1-.384-.612,2.009,2.009,0,0,1-.14-.754,2.216,2.216,0,0,1,.125-.754,1.836,1.836,0,0,1,.358-.608,1.679,1.679,0,0,1,.582-.419,1.767,1.767,0,0,1,.745-.154,1.631,1.631,0,0,1,.7.154,1.8,1.8,0,0,1,.582.419m-1.275,2.606a.777.777,0,0,0,.245-.05.661.661,0,0,0,.271-.183,1.089,1.089,0,0,0,.218-.379,2.329,2.329,0,0,0,0-1.264,1.013,1.013,0,0,0-.218-.379.661.661,0,0,0-.271-.183.765.765,0,0,0-.245-.047.791.791,0,0,0-.247.047.669.669,0,0,0-.268.183,1.012,1.012,0,0,0-.218.379,2.256,2.256,0,0,0,0,1.264,1.088,1.088,0,0,0,.218.379.669.669,0,0,0,.268.183.811.811,0,0,0,.247.05" transform="translate(-203.296 -448.972)" fill="#fff"/>
        <path id="Path_129" data-name="Path 129" d="M233.676,453.215a2.056,2.056,0,0,1-.16.874,1.416,1.416,0,0,1-.416.533,1.457,1.457,0,0,1-.568.265,2.693,2.693,0,0,1-1.243,0,1.458,1.458,0,0,1-.568-.265,1.355,1.355,0,0,1-.413-.533,2.1,2.1,0,0,1-.157-.874v-1.138a.824.824,0,0,1,.262-.687,1.2,1.2,0,0,1,.763-.207,1.14,1.14,0,0,0-.015.146v1.887a1.841,1.841,0,0,0,.064.544.811.811,0,0,0,.172.32.583.583,0,0,0,.245.151.912.912,0,0,0,.539,0,.567.567,0,0,0,.242-.151.816.816,0,0,0,.175-.32,1.844,1.844,0,0,0,.064-.544v-1.138a.815.815,0,0,1,.265-.687,1.217,1.217,0,0,1,.766-.207c0,.032,0,.082,0,.146v.638Z" transform="translate(-213.578 -449.185)" fill="#fff"/>
        <path id="Path_130" data-name="Path 130" d="M244.554,452.961a2.117,2.117,0,0,1,.157-.873,1.345,1.345,0,0,1,.97-.8,2.975,2.975,0,0,1,.614-.067h.4a.78.78,0,0,1,.017.315.455.455,0,0,1-.111.233.425.425,0,0,1-.291.137,1.427,1.427,0,0,0-.268.061.582.582,0,0,0-.239.154.834.834,0,0,0-.175.309,1.82,1.82,0,0,0-.067.542v1.794a.349.349,0,0,0,.017.146,1.223,1.223,0,0,1-.76-.207.827.827,0,0,1-.265-.69Z" transform="translate(-223.786 -449.213)" fill="#fff"/>
        <path id="Path_131" data-name="Path 131" d="M254.275,451.567a.761.761,0,0,0-.245.047.734.734,0,0,0-.271.183,1.054,1.054,0,0,0-.218.379,2.328,2.328,0,0,0,0,1.267,1.053,1.053,0,0,0,.218.379.7.7,0,0,0,.271.183.759.759,0,0,0,.245.047,1.452,1.452,0,0,0,.323-.032,1.866,1.866,0,0,0,.274-.073c.082-.032.157-.061.23-.084a.707.707,0,0,1,.215-.035.433.433,0,0,1,.21.055.8.8,0,0,1,.186.186l.015.032-.023.023a1.918,1.918,0,0,1-.635.457,1.883,1.883,0,0,1-.786.166,1.64,1.64,0,0,1-.7-.154,1.926,1.926,0,0,1-.582-.411,1.881,1.881,0,0,1-.384-.611,2.011,2.011,0,0,1-.143-.754,2.151,2.151,0,0,1,.131-.754,1.9,1.9,0,0,1,.364-.617,1.72,1.72,0,0,1,1.3-.565,1.919,1.919,0,0,1,1.43.623l.023.023-.023.032a.451.451,0,0,1-.186.186.32.32,0,0,1-.2.055.706.706,0,0,1-.215-.035l-.23-.079a2.22,2.22,0,0,0-.274-.084,1.458,1.458,0,0,0-.323-.035" transform="translate(-229.402 -448.972)" fill="#fff"/>
        <path id="Path_132" data-name="Path 132" d="M268.488,453.882a.583.583,0,0,1,.183.2l.026.023-.026.023a1.877,1.877,0,0,1-.632.457,1.908,1.908,0,0,1-.795.166,1.673,1.673,0,0,1-.7-.151,1.827,1.827,0,0,1-.582-.414,1.926,1.926,0,0,1-.381-.611,1.952,1.952,0,0,1-.143-.754,2.216,2.216,0,0,1,.125-.754,1.941,1.941,0,0,1,.358-.617,1.746,1.746,0,0,1,.582-.411,1.768,1.768,0,0,1,.745-.154,1.972,1.972,0,0,1,.5.07,1.781,1.781,0,0,1,.507.218,1.271,1.271,0,0,1,.387.39,1.065,1.065,0,0,1,.151.582.816.816,0,0,1-.169.536,1.264,1.264,0,0,1-.4.323,1.844,1.844,0,0,1-.5.16,2.834,2.834,0,0,1-.454.044,3.4,3.4,0,0,1-.521-.035l-.291-.052a1.318,1.318,0,0,0,.128.472,1.034,1.034,0,0,0,.218.291.73.73,0,0,0,.242.143.8.8,0,0,0,.218.035,1.454,1.454,0,0,0,.323-.032,1.948,1.948,0,0,0,.274-.073c.082-.026.157-.052.23-.082a.619.619,0,0,1,.213-.038.376.376,0,0,1,.2.055m-1.243-2.315a1.229,1.229,0,0,0-.21.044.68.68,0,0,0-.239.134.874.874,0,0,0-.213.274,1.353,1.353,0,0,0-.137.451,2.5,2.5,0,0,0,.367.076,1.844,1.844,0,0,0,.475,0,1,1,0,0,0,.419-.137.443.443,0,0,0,.2-.381.39.39,0,0,0-.157-.346.707.707,0,0,0-.5-.128" transform="translate(-238.595 -448.972)" fill="#fff"/>
        <path id="Path_133" data-name="Path 133" d="M280.253,453.729a.262.262,0,0,0-.079-.23.947.947,0,0,0-.265-.178c-.117-.058-.25-.117-.408-.184a3.333,3.333,0,0,1-.492-.256,1.115,1.115,0,0,1-.317-.271,1.036,1.036,0,0,1-.183-.338,1.072,1.072,0,0,1-.047-.373,1.1,1.1,0,0,1,.087-.376.974.974,0,0,1,.21-.291,1.128,1.128,0,0,1,.291-.2,1.325,1.325,0,0,1,.306-.114,1.629,1.629,0,0,1,.291-.032h.1a1.893,1.893,0,0,1,1.386.7l.026.026-.026.032a.541.541,0,0,1-.178.169.357.357,0,0,1-.2.055.562.562,0,0,1-.218-.044l-.224-.093c-.1-.041-.2-.079-.291-.108a.851.851,0,0,0-.268-.044.393.393,0,0,0-.268.076.282.282,0,0,0-.009.437,1.224,1.224,0,0,0,.332.189l.533.23a2.059,2.059,0,0,1,.5.291,1.212,1.212,0,0,1,.329.437.949.949,0,0,1,.026.617,1.2,1.2,0,0,1-.14.291,1.082,1.082,0,0,1-.268.291,1.568,1.568,0,0,1-.419.213,1.745,1.745,0,0,1-.582.085h-.1a1.863,1.863,0,0,1-.76-.2,1.807,1.807,0,0,1-.626-.492l-.023-.023.023-.032a.4.4,0,0,1,.087-.1l.1-.052a.429.429,0,0,1,.192-.05.52.52,0,0,1,.218.047l.227.09a1.71,1.71,0,0,0,.253.1,1.867,1.867,0,0,0,.312.055.605.605,0,0,0,.413-.113.39.39,0,0,0,.143-.224" transform="translate(-247.69 -448.979)" fill="#fff"/>
        <path id="Path_134" data-name="Path 134" d="M299.345,450.11a2.963,2.963,0,0,1-1.031-.186,2.562,2.562,0,0,1-.873-.55,2.7,2.7,0,0,1-.617-.9,3.474,3.474,0,0,1,0-2.5,2.7,2.7,0,0,1,.617-.9,2.5,2.5,0,0,1,.873-.544,2.957,2.957,0,0,1,1.031-.183,2.038,2.038,0,0,1,.6.079,2.142,2.142,0,0,1,.448.181,1.483,1.483,0,0,1,.291.215,1.148,1.148,0,0,1,.154.172.6.6,0,0,1-.058.09.29.29,0,0,1-.061.076.251.251,0,0,1-.076.052.358.358,0,0,1-.2.055.606.606,0,0,1-.21-.035l-.215-.076a1.9,1.9,0,0,0-.277-.079,1.949,1.949,0,0,0-.4-.035,1.549,1.549,0,0,0-1.165.524,2.018,2.018,0,0,0-.387.681,3.389,3.389,0,0,0,0,1.965,2.076,2.076,0,0,0,.387.681,1.576,1.576,0,0,0,.544.4,1.544,1.544,0,0,0,.617.128,1.955,1.955,0,0,0,.4-.035,2.378,2.378,0,0,0,.277-.079l.215-.076a.612.612,0,0,1,.21-.035.359.359,0,0,1,.2.055.741.741,0,0,1,.137.128.592.592,0,0,1,.058.09,1,1,0,0,1-.154.181,1.376,1.376,0,0,1-.291.21,2.33,2.33,0,0,1-.448.178,2.039,2.039,0,0,1-.6.079" transform="translate(-260.676 -444.336)" fill="#fff"/>
        <path id="Path_135" data-name="Path 135" d="M315.377,451.453a1.864,1.864,0,0,1,.39.609,1.972,1.972,0,0,1,.143.754,2.192,2.192,0,0,1-.128.754,1.885,1.885,0,0,1-.364.611,1.7,1.7,0,0,1-.568.419,1.789,1.789,0,0,1-.748.151,1.608,1.608,0,0,1-.7-.151,1.9,1.9,0,0,1-.582-.419,1.924,1.924,0,0,1-.381-.611,1.954,1.954,0,0,1-.143-.754,2.287,2.287,0,0,1,.125-.754,1.8,1.8,0,0,1,.361-.609,1.64,1.64,0,0,1,.568-.419,1.779,1.779,0,0,1,.745-.154,1.655,1.655,0,0,1,.708.154,1.746,1.746,0,0,1,.568.419m-1.275,2.606a.807.807,0,0,0,.247-.05.7.7,0,0,0,.271-.183,1.136,1.136,0,0,0,.215-.379,2.257,2.257,0,0,0,0-1.264,1.055,1.055,0,0,0-.215-.378.7.7,0,0,0-.271-.183.791.791,0,0,0-.247-.047.764.764,0,0,0-.245.047.661.661,0,0,0-.271.183,1.013,1.013,0,0,0-.218.378,2.328,2.328,0,0,0,0,1.264,1.088,1.088,0,0,0,.218.379.66.66,0,0,0,.271.183.771.771,0,0,0,.245.05" transform="translate(-271.811 -448.972)" fill="#fff"/>
        <path id="Path_136" data-name="Path 136" d="M331.726,452.661a1.748,1.748,0,0,0-.067-.544.873.873,0,0,0-.18-.323.582.582,0,0,0-.25-.157.906.906,0,0,0-.277-.041.837.837,0,0,0-.268.041.535.535,0,0,0-.245.157.874.874,0,0,0-.175.323,1.728,1.728,0,0,0-.07.544v1.645a1.106,1.106,0,0,0,.015.242c.015.058,0,.114.017.146a1.211,1.211,0,0,1-.766-.21.824.824,0,0,1-.268-.687v-1.136a1.728,1.728,0,0,0-.07-.544.8.8,0,0,0-.181-.323.552.552,0,0,0-.25-.157.888.888,0,0,0-.274-.041.869.869,0,0,0-.271.041.542.542,0,0,0-.242.157.827.827,0,0,0-.175.323,1.95,1.95,0,0,0-.064.544v1.887a.413.413,0,0,0,.015.146,1.217,1.217,0,0,1-.766-.21.824.824,0,0,1-.265-.687v-1.136a2.14,2.14,0,0,1,.16-.873,1.374,1.374,0,0,1,.4-.536,1.456,1.456,0,0,1,.562-.262,2.812,2.812,0,0,1,.617-.07,2.89,2.89,0,0,1,.67.082,1.373,1.373,0,0,1,.582.291,1.39,1.39,0,0,1,.582-.291,2.906,2.906,0,0,1,.67-.082,2.857,2.857,0,0,1,.623.07,1.458,1.458,0,0,1,.568.262,1.387,1.387,0,0,1,.411.536,2.142,2.142,0,0,1,.157.873v1.887a.347.347,0,0,0,.018.146,1.2,1.2,0,0,1-.763-.21.83.83,0,0,1-.262-.687Z" transform="translate(-281.981 -449)" fill="#fff"/>
        <path id="Path_137" data-name="Path 137" d="M349.791,452.816a1.972,1.972,0,0,1,.143-.754,1.94,1.94,0,0,1,.381-.609,1.8,1.8,0,0,1,.582-.419,1.631,1.631,0,0,1,.7-.154,1.767,1.767,0,0,1,.745.154,1.679,1.679,0,0,1,.582.419,1.845,1.845,0,0,1,.361.608,2.146,2.146,0,0,1,.131.754,1.952,1.952,0,0,1-.143.754,1.847,1.847,0,0,1-.39.611,1.824,1.824,0,0,1-.568.419,1.65,1.65,0,0,1-.707.151,1.746,1.746,0,0,1-.815-.184v1.864a.349.349,0,0,0,.017.146,1.214,1.214,0,0,1-.763-.21.845.845,0,0,1-.262-.7Zm1.805,1.243a.811.811,0,0,0,.247-.05.661.661,0,0,0,.268-.18,1.015,1.015,0,0,0,.218-.379,1.843,1.843,0,0,0,.09-.635,1.82,1.82,0,0,0-.09-.629,1.049,1.049,0,0,0-.218-.376.693.693,0,0,0-.268-.18.807.807,0,0,0-.247-.05.772.772,0,0,0-.245.05.681.681,0,0,0-.271.18,1.047,1.047,0,0,0-.218.376,1.888,1.888,0,0,0-.09.629,1.919,1.919,0,0,0,.09.635,1.013,1.013,0,0,0,.218.379.653.653,0,0,0,.271.18.777.777,0,0,0,.245.05" transform="translate(-298.383 -448.972)" fill="#fff"/>
        <path id="Path_138" data-name="Path 138" d="M364.624,452.606a1.652,1.652,0,0,1,.492-.2,2.3,2.3,0,0,1,.582-.07,2.582,2.582,0,0,1,.8.122,1.427,1.427,0,0,0-.1-.445.69.69,0,0,0-.314-.361.582.582,0,0,0-.172-.061.961.961,0,0,0-.215-.02H365.6a1.539,1.539,0,0,0-.227.035l-.227.07a1.958,1.958,0,0,1-.224.067.834.834,0,0,1-.218.029.481.481,0,0,1-.218-.05.475.475,0,0,1-.169-.183l-.015-.032.015-.026a1.915,1.915,0,0,1,.568-.413,1.943,1.943,0,0,1,.716-.183h.137a1.694,1.694,0,0,1,.675.131,1.641,1.641,0,0,1,.533.367,1.925,1.925,0,0,1,.477,1.316v.064A2.085,2.085,0,0,1,367,454.12a1.666,1.666,0,0,1-.5.419,1.815,1.815,0,0,1-.658.2h-.2a2.555,2.555,0,0,1-.355-.029,1.382,1.382,0,0,1-.364-.111,1.324,1.324,0,0,1-.338-.189.945.945,0,0,1-.259-.291,1.046,1.046,0,0,1-.16-.582v-.049a.972.972,0,0,1,.128-.524,1.028,1.028,0,0,1,.347-.364m1.671.387-.239-.032h-.271a1.774,1.774,0,0,0-.218,0,.923.923,0,0,0-.192.044.6.6,0,0,0-.291.2.387.387,0,0,0-.067.111.587.587,0,0,0-.032.131.253.253,0,0,0,0,.073.632.632,0,0,0,.023.175.379.379,0,0,0,.1.172.509.509,0,0,0,.189.14.828.828,0,0,0,.335.055.39.39,0,0,0,.1,0,.7.7,0,0,0,.4-.128.534.534,0,0,0,.137-.116.9.9,0,0,0,.1-.151,1.016,1.016,0,0,0,.119-.314,1.608,1.608,0,0,0,.032-.291h-.073l-.1-.026" transform="translate(-308.569 -448.972)" fill="#fff"/>
        <path id="Path_139" data-name="Path 139" d="M377.406,452.661a2.144,2.144,0,0,1,.157-.874,1.434,1.434,0,0,1,.4-.536,1.381,1.381,0,0,1,.556-.262,2.814,2.814,0,0,1,1.246,0,1.479,1.479,0,0,1,.582.262,1.386,1.386,0,0,1,.411.536,2.144,2.144,0,0,1,.157.874l.032,2.038a1.211,1.211,0,0,1-.76-.21.832.832,0,0,1-.265-.687v-1.136a1.729,1.729,0,0,0-.07-.544.8.8,0,0,0-.18-.323.582.582,0,0,0-.25-.157.889.889,0,0,0-.274-.041.845.845,0,0,0-.271.041.543.543,0,0,0-.242.157.874.874,0,0,0-.178.323,1.729,1.729,0,0,0-.07.544v1.249a3.133,3.133,0,0,0,.015.4,1.315,1.315,0,0,1,0,.242,1.154,1.154,0,0,0,.015.146,1.217,1.217,0,0,1-.766-.21.824.824,0,0,1-.265-.687Z" transform="translate(-317.947 -449)" fill="#fff"/>
        <path id="Path_140" data-name="Path 140" d="M392.931,451.5a.644.644,0,0,1,.291-.352,1.128,1.128,0,0,1,.379-.108,1.49,1.49,0,0,1,.46.041q-.515,1.241-.929,2.227-.175.419-.349.83c-.116.274-.218.521-.312.742s-.166.4-.23.547-.1.23-.108.25a.687.687,0,0,1-.291.355,1.006,1.006,0,0,1-.37.114,1.166,1.166,0,0,1-.46-.05l.21-.492c.064-.154.14-.335.221-.536s.175-.416.271-.641c-.015-.038-.049-.116-.1-.236l-.178-.428c-.067-.166-.143-.346-.224-.545s-.166-.393-.247-.582q-.291-.7-.652-1.549a1.489,1.489,0,0,1,.46-.041,1.115,1.115,0,0,1,.376.108.684.684,0,0,1,.291.352,1.332,1.332,0,0,0,.084.207l.169.413c.067.169.143.352.23.553l.259.609.274-.643c.084-.207.163-.387.23-.55s.119-.291.16-.4l.076-.189" transform="translate(-327.107 -449.084)" fill="#fff"/>
      </g>
    </g>
  </g>
</svg>
