<svg xmlns="http://www.w3.org/2000/svg" width="184" height="184" viewBox="0 0 184 184">
  <g id="Group_11422" data-name="Group 11422" transform="translate(-1202 -1150)">
    <rect id="Rectangle_13922" data-name="Rectangle 13922" width="184" height="184" rx="20" transform="translate(1202 1150)" fill="none"/>
    <g id="svgexport-6_3_" data-name="svgexport-6 (3)" transform="translate(1240 1187.578)">
      <g id="Group_11429" data-name="Group 11429" transform="translate(0 0.422)">
        <path id="Path_11964" data-name="Path 11964" d="M102.016,74.866a18.929,18.929,0,0,0-20.151-4.19l-3.025-3.018a6.567,6.567,0,0,0,.69-.6l7.547-7.53a6.559,6.559,0,0,0,0-9.27h0a6.559,6.559,0,0,0-5-1.905,7.413,7.413,0,0,0,.069-1A7.256,7.256,0,0,0,75.211,40.1a7.253,7.253,0,0,0-7.736-9.508,7.45,7.45,0,0,0,.049-.836A7.206,7.206,0,0,0,65.4,24.62a7.294,7.294,0,0,0-10.287,0l-4.824,4.813-.373-.372a4.648,4.648,0,0,0-6.555.006l-1.6,1.6L37.1,26A18.746,18.746,0,0,0,16.083.753c-.878.165-3.55.668-4.1,2.713-.536,2,1.371,3.639,2.287,4.427.093.08,7.532,7.488,7.532,7.488a5.274,5.274,0,0,1,.314,7.109,5.311,5.311,0,0,1-7.134-.313s-7.425-7.422-7.5-7.515c-.79-.914-2.434-2.816-4.433-2.279C1,12.931.5,15.6.332,16.471a18.742,18.742,0,0,0,5.155,16.78,18.929,18.929,0,0,0,20.151,4.19l5.4,5.389a13.028,13.028,0,0,0-.854,5.46c.256,4.225-1.984,8.369-7.489,13.857L16.96,67.87a5.177,5.177,0,0,0-6.011.935L2.917,76.82a5.159,5.159,0,0,0,0,7.292L25.1,106.243a5.175,5.175,0,0,0,7.3,0l8.032-8.014a5.166,5.166,0,0,0,.942-6l9.756-9.734c2.892-2.885,3.362-2.807,6.425-2.3.515.086,1.1.184,1.757.277,2.674.384,5.778-.974,7.54-1.915l3.56,3.553a18.946,18.946,0,0,0-1.266,7.651,1.575,1.575,0,0,0,1.572,1.509h.067a1.575,1.575,0,0,0,1.507-1.639A15.724,15.724,0,0,1,73.7,82.408a1.575,1.575,0,0,0-.317-1.775l-25.2-25.148a13.8,13.8,0,0,0,1.669-6,17.267,17.267,0,0,0,6.531,3.456,11.455,11.455,0,0,0,5.3.265c0,.018,0,.035,0,.053A7.257,7.257,0,0,0,68.616,60.5a6.594,6.594,0,0,0-.284,1.922,6.543,6.543,0,0,0,6.558,6.55,6.591,6.591,0,0,0,.766-.046l4.734,4.724a1.575,1.575,0,0,0,1.769.317,15.763,15.763,0,0,1,17.633,3.126,15.594,15.594,0,0,1,4.285,13.965,5.4,5.4,0,0,1-.464,1.521,6.773,6.773,0,0,1-1.2-1.184c-.136-.158-7.664-7.686-7.664-7.686a8.47,8.47,0,0,0-11.509-.389,1.616,1.616,0,0,0-.151.15,8.431,8.431,0,0,0,.39,11.493l8.885,8.842a5.453,5.453,0,0,1-1.523.461,15.6,15.6,0,0,1-16.857-8.2,1.575,1.575,0,1,0-2.8,1.437,18.721,18.721,0,0,0,16.711,10.185,19.05,19.05,0,0,0,3.532-.331c.878-.165,3.55-.668,4.1-2.713.536-2-1.371-3.639-2.287-4.427-.093-.08-7.532-7.488-7.532-7.488a4.832,4.832,0,1,1,6.82-6.8s7.425,7.422,7.5,7.515c.79.915,2.435,2.817,4.433,2.279,2.044-.55,2.548-3.215,2.713-4.089a18.74,18.74,0,0,0-5.155-16.779ZM71.236,34.893a4.13,4.13,0,0,1,.058,5.761L66.232,45.7c-.869-1.259-5.651-6-5.651-6L65.4,34.894A4.139,4.139,0,0,1,71.236,34.893Zm-13.9-8.043a4.139,4.139,0,0,1,5.838,0,4.123,4.123,0,0,1,0,5.815l-4.824,4.813-5.833-5.82ZM27.113,34.464a1.575,1.575,0,0,0-1.769-.317A15.763,15.763,0,0,1,7.711,31.021,15.594,15.594,0,0,1,3.426,17.057a5.4,5.4,0,0,1,.464-1.521,6.772,6.772,0,0,1,1.2,1.184c.136.158,7.664,7.686,7.664,7.686a8.469,8.469,0,0,0,11.509.389,1.616,1.616,0,0,0,.151-.15,8.431,8.431,0,0,0-.39-11.493S15.293,4.536,15.143,4.31a5.453,5.453,0,0,1,1.523-.461A15.6,15.6,0,0,1,33.8,25.71a1.575,1.575,0,0,0,.318,1.773l5.413,5.406-5.868,5.855a11.047,11.047,0,0,0-1.044,1.215Zm36.7,13.65a7.3,7.3,0,0,0-1.055,1.333c-3.354,2.078-8.658-.211-11.3-2.753l-.327-.326c-2.413-2.4-3.7-3.685-3.814-3.806l-.006-.006-.017-.018c-.008-.008-.017-.014-.025-.022a1.574,1.574,0,0,0-2.231,2.219l.032.033a5.969,5.969,0,0,1,1.643,4.344,12.18,12.18,0,0,1-3.805,8.242,1.575,1.575,0,0,0,2.225,2.229,17.911,17.911,0,0,0,1.275-1.421L64.5,76.216a9.5,9.5,0,0,1-4.747,1.139c-.622-.089-1.187-.183-1.685-.266-3.649-.609-5.284-.7-9.168,3.173l-9.586,9.564-7.921-7.9a1.575,1.575,0,1,0-2.224,2.229L38.2,93.162h0l0,0A2.009,2.009,0,0,1,38.2,96l-8.033,8.015a2.02,2.02,0,0,1-2.849,0L5.142,81.882a2.009,2.009,0,0,1,0-2.833l8.032-8.015a2.02,2.02,0,0,1,2.849,0l7.943,7.925A1.575,1.575,0,0,0,26.19,76.73l-6.826-6.81,5.555-5.543c6.21-6.191,8.725-11.058,8.409-16.276a9.5,9.5,0,0,1,2.559-7.129l9.7-9.676a1.511,1.511,0,0,1,2.106-.006l1.483,1.48L59.437,43.01c.277.276.553.55.826.819a25.937,25.937,0,0,1,3.7,4.142Zm5.144,9.248a4.111,4.111,0,0,1-2.919-7.018l5.912-5.9a4.139,4.139,0,0,1,5.838,0h0a4.112,4.112,0,0,1,0,5.812l0,0-5.913,5.9a4.094,4.094,0,0,1-2.917,1.2Zm3.514,7.469a3.41,3.41,0,0,1,0-4.811l7.541-7.53a3.43,3.43,0,0,1,4.838,0h0a3.41,3.41,0,0,1,0,4.811l-7.547,7.53a3.427,3.427,0,0,1-4.832,0Z" transform="translate(0 -0.422)" fill="#4a1714"/>
      </g>
    </g>
  </g>
</svg>
