<svg id="Group_11509" data-name="Group 11509" xmlns="http://www.w3.org/2000/svg" width="76.33" height="101.797" viewBox="0 0 76.33 101.797">
  <path id="Path_11993" data-name="Path 11993" d="M68.114,101.8H83.095a1.491,1.491,0,0,0,0-2.983h-4.1V73a1.491,1.491,0,1,0-2.983,0V98.813H68.114a1.1,1.1,0,0,1-1.1-1.1v-23.2a11.828,11.828,0,0,1,6.827-10.656L86.3,59l7.52,6.236a2.9,2.9,0,0,0,3.089.389l1.042,1.63-3.285,31.56H90.054a1.491,1.491,0,0,0,0,2.983h46.233a4.083,4.083,0,0,0,4.078-4.078V88.374a1.491,1.491,0,1,0-2.983,0v9.344a1.1,1.1,0,0,1-1.1,1.1h-7.894V73a1.491,1.491,0,0,0-2.983,0V98.813H109.735l-3.285-31.56,1.042-1.63a2.9,2.9,0,0,0,3.089-.389l7.487-6.209,12.489,4.837a11.806,11.806,0,0,1,6.825,10.656v6.9a1.491,1.491,0,1,0,2.983,0v-6.9a14.7,14.7,0,0,0-8.686-13.42l-.029-.012-20.021-7.754,0-3.936a15.823,15.823,0,0,0,6.239-10.276,7.17,7.17,0,0,0,5.546-12.35l.5-8.828a10.976,10.976,0,0,1,.387-2.331A20.5,20.5,0,0,0,123.359,2.4a2.485,2.485,0,0,0-3.7-1.117c-.991.673-3.322,1.622-7.8.416C94.816-2.9,88.5,2.7,86.2,8.2a1.546,1.546,0,0,1-1.039.924,5.658,5.658,0,0,0-4.705,5.761c0,2.452.281,7.669.535,11.884A7.17,7.17,0,0,0,86.52,39.122a15.484,15.484,0,0,0,6.245,10.3v3.851L72.748,61.088l-.025.01a14.7,14.7,0,0,0-8.686,13.42v23.2A4.083,4.083,0,0,0,68.114,101.8Zm29.551-2.983.309-2.967,2.966,2.967Zm9.071,0h-1.577l-6.787-6.787.4-3.864,7.65,7.65ZM104.49,77.232l.5,4.761-5.044-5.045.4-3.864Zm-3.749-7.968.092-.884h2.736L104,72.524ZM105.476,86.7l.458,4.4-6.762-6.762.372-3.573ZM104.1,65.4h-3.791l-1.338-2.092c1.529-2.264,1.524-2.24,1.639-2.465h3.19c.111.216.082.16,1.639,2.465Zm.429-8.114a2.917,2.917,0,0,0-.529.575h-3.591a2.931,2.931,0,0,0-.529-.575l-4.167-3.456a3.1,3.1,0,0,0,.038-.461V51.115a16.4,16.4,0,0,0,12.9.038l0,2.227a2.985,2.985,0,0,0,.037.457Zm10.359.509-6.137,5.089-2.261-3.349,4.1-3.4Zm3.168-21.649V27.8a4.192,4.192,0,1,1,0,8.34Zm-31.7,0a4.192,4.192,0,1,1,0-8.34Zm0-13.125V24.81a7.338,7.338,0,0,0-2.471.283c-.289-4.955-.441-8.461-.441-10.2,0-.977.251-2.336,2.424-2.862a4.538,4.538,0,0,0,3.09-2.674c3.375-8.081,13.733-7.04,22.14-4.775,4.839,1.3,7.9.528,9.72-.5a17.666,17.666,0,0,1,.612,10.733,14,14,0,0,0-.492,2.966l-.413,7.316a7.334,7.334,0,0,0-2.466-.281V23.019a5.146,5.146,0,0,0-6.3-5.014,45.312,45.312,0,0,1-19.093,0,5.147,5.147,0,0,0-6.3,5.014Zm2.983,13.789V23.019a2.165,2.165,0,0,1,2.655-2.107,48.3,48.3,0,0,0,20.428,0,2.165,2.165,0,0,1,2.655,2.107V36.7a12.785,12.785,0,0,1-12.662,12.769h-.064A12.761,12.761,0,0,1,89.332,36.807Zm4.426,19.278,4.158,3.448-2.261,3.349-6.179-5.124Z" transform="translate(-64.036 0.001)" fill="#fff"/>
</svg>
