<svg id="Group_11508" data-name="Group 11508" xmlns="http://www.w3.org/2000/svg" width="106.572" height="101.797" viewBox="0 0 106.572 101.797">
  <path id="Path_11988" data-name="Path 11988" d="M96.319,88.543c-.832.01-.741-.031-1.847.047V62.713A5.028,5.028,0,0,0,89.45,57.69h-27.3V18.706L74.123,30.282a3.51,3.51,0,0,1,1.065,2.511v19.1a1.561,1.561,0,0,0,3.122,0v-19.1a6.649,6.649,0,0,0-2.017-4.756L61.671,13.9a1.594,1.594,0,0,0-1.582-.357L33.858,22.363V16.285a4.9,4.9,0,0,0-5.135-4.806,4.813,4.813,0,0,0-4.808,4.806v9.42l-6.863,2.307a6.609,6.609,0,0,0-4.507,6.27v54.27A12.89,12.89,0,0,0,0,101.421v7.938a3.913,3.913,0,0,0,3.908,3.908h98.756a3.913,3.913,0,0,0,3.908-3.908V98.8A10.264,10.264,0,0,0,96.319,88.543Zm0,3.122A7.139,7.139,0,0,1,103.45,98.8v1.638H88.307V98.8A7.273,7.273,0,0,1,96.319,91.665ZM91.35,62.713V89.4a10.266,10.266,0,0,0-6.165,9.4v1.638H62.147V60.812h27.3a1.9,1.9,0,0,1,1.9,1.9ZM27.037,16.285A1.687,1.687,0,0,1,28.723,14.6a1.825,1.825,0,0,1,2.013,1.684v7.127l-3.7,1.243ZM12.545,91.671v8.763H3.172A9.771,9.771,0,0,1,12.545,91.671ZM3.122,109.36v-5.8h9.422v6.59H3.908a.787.787,0,0,1-.786-.786ZM15.667,34.282a3.489,3.489,0,0,1,2.38-3.31L59.025,17.2V25.7L24.978,37.148a1.561,1.561,0,1,0,.995,2.959L59.025,29v7.942L24.978,48.384a1.561,1.561,0,1,0,.995,2.959l33.052-11.11v7.942L24.978,59.62a1.561,1.561,0,1,0,.995,2.959l33.052-11.11v7.776s0,0,0,.006v.16L24.978,70.856a1.561,1.561,0,1,0,.995,2.959L59.025,62.7v7.942l-21.26,7.146a1.561,1.561,0,1,0,.995,2.959l20.265-6.812v36.2H45.539V93.924a3.371,3.371,0,0,0-4.277-3.246l-14.53,4.056a3.865,3.865,0,0,0-2.816,3.71v11.7H15.667Zm11.37,64.163a.733.733,0,0,1,.534-.7l5.595-1.562v13.966H27.037v-11.7Zm9.251,11.7V95.308L42.1,93.685a.248.248,0,0,1,.315.239v16.222Zm25.86,0v-6.59H85.185v6.59Zm41.3-.786a.787.787,0,0,1-.786.786H88.307v-6.59H103.45Z" transform="translate(0 -11.471)" fill="#fff"/>
  <path id="Path_11989" data-name="Path 11989" d="M116.449,346.068a1.556,1.556,0,0,0,.5-.082l5.8-1.948a1.561,1.561,0,0,0-.995-2.959l-5.8,1.948a1.561,1.561,0,0,0,.5,3.041Z" transform="translate(-90.974 -272.406)" fill="#fff"/>
  <path id="Path_11990" data-name="Path 11990" d="M321.4,276.052h15.31a2.636,2.636,0,0,0,2.633-2.633v-3.758a2.636,2.636,0,0,0-2.633-2.633H321.4a2.636,2.636,0,0,0-2.633,2.633v3.758A2.636,2.636,0,0,0,321.4,276.052Zm.49-5.9h14.331v2.779H321.891Z" transform="translate(-252.417 -213.835)" fill="#fff"/>
  <path id="Path_11991" data-name="Path 11991" d="M321.4,333.082h15.31a2.636,2.636,0,0,0,2.633-2.633v-3.758a2.636,2.636,0,0,0-2.633-2.633H321.4a2.636,2.636,0,0,0-2.633,2.633v3.758A2.636,2.636,0,0,0,321.4,333.082Zm.49-5.9h14.331v2.779H321.891Z" transform="translate(-252.417 -258.994)" fill="#fff"/>
  <path id="Path_11992" data-name="Path 11992" d="M321.4,390.7h5.064a2.636,2.636,0,0,0,2.633-2.633V384.3a2.636,2.636,0,0,0-2.633-2.633H321.4a2.636,2.636,0,0,0-2.633,2.633v3.758A2.636,2.636,0,0,0,321.4,390.7Zm.49-5.9h4.085v2.779h-4.085Z" transform="translate(-252.417 -304.615)" fill="#fff"/>
</svg>
