<svg xmlns="http://www.w3.org/2000/svg" width="122.576" height="107.663" viewBox="0 0 122.576 107.663">
  <g id="svgexport-6_4_" data-name="svgexport-6 (4)" transform="translate(0 -31.146)">
    <g id="Group_11432" data-name="Group 11432" transform="translate(0 31.146)">
      <path id="Path_11969" data-name="Path 11969" d="M113.31,49.988h-29.9V41.334a5.743,5.743,0,0,0-2.248-4.54,24.979,24.979,0,0,0-5.587-3,35.148,35.148,0,0,0-4.44-1.442,1.8,1.8,0,1,0-.886,3.487,31.6,31.6,0,0,1,3.984,1.293,21.842,21.842,0,0,1,4.747,2.519,2.123,2.123,0,0,1,.831,1.679v8.654H75.591V43.548a1.8,1.8,0,0,0-.981-1.6,29.541,29.541,0,0,0-13.322-2.979,29.537,29.537,0,0,0-13.322,2.979,1.8,1.8,0,0,0-.981,1.6v6.439H42.762V41.334a2.123,2.123,0,0,1,.831-1.679,21.821,21.821,0,0,1,4.747-2.52,35.049,35.049,0,0,1,12.947-2.391c.764,0,1.539.023,2.3.07a1.8,1.8,0,0,0,.219-3.592c-.836-.051-1.684-.077-2.521-.077A38.678,38.678,0,0,0,47,33.8a24.976,24.976,0,0,0-5.587,3,5.742,5.742,0,0,0-2.247,4.54v8.654H9.266A9.277,9.277,0,0,0,0,59.254v25.18a9.227,9.227,0,0,0,3.078,6.9v38.214a9.277,9.277,0,0,0,9.266,9.266H83.427a1.8,1.8,0,1,0,0-3.6H12.345a5.675,5.675,0,0,1-5.668-5.668V94a60.191,60.191,0,0,0,10.808,5.572,1.8,1.8,0,1,0,1.341-3.339A50.645,50.645,0,0,1,5.689,88.831a5.647,5.647,0,0,1-2.091-4.4V59.254a5.675,5.675,0,0,1,5.668-5.668H113.31a5.675,5.675,0,0,1,5.668,5.668v25.18a5.647,5.647,0,0,1-2.091,4.4,52.814,52.814,0,0,1-15.3,8.235c-8.932,3.263-19.526,5.235-31.508,5.875V98.833a4.293,4.293,0,0,0-4.288-4.288H56.782a4.293,4.293,0,0,0-4.288,4.288v4.111a117.232,117.232,0,0,1-26.257-4.165,1.8,1.8,0,1,0-1,3.456,121.035,121.035,0,0,0,27.26,4.311v.846a8.794,8.794,0,0,0,17.588,0v-.845c24.328-1.267,38.409-7.607,45.819-12.535v35.531a5.675,5.675,0,0,1-5.668,5.668H90.623a1.8,1.8,0,1,0,0,3.6h19.608a9.277,9.277,0,0,0,9.266-9.266V91.329a9.226,9.226,0,0,0,3.078-6.9V59.254a9.276,9.276,0,0,0-9.266-9.266Zm-62.727-5.3a28.076,28.076,0,0,1,21.41,0v5.3H50.582v-5.3Zm15.9,62.706a5.2,5.2,0,0,1-10.391,0V98.833a.691.691,0,0,1,.69-.69h9.011a.691.691,0,0,1,.69.69Z" transform="translate(0 -31.146)" fill="#4a1714"/>
    </g>
  </g>
</svg>
