<svg xmlns="http://www.w3.org/2000/svg" width="101.628" height="101.797" viewBox="0 0 101.628 101.797">
  <g id="svgexport-6_11_" data-name="svgexport-6 (11)" transform="translate(-0.424)">
    <g id="Group_11506" data-name="Group 11506" transform="translate(0.424)">
      <g id="Group_11505" data-name="Group 11505">
        <path id="Path_11987" data-name="Path 11987" d="M98.1,64.38H90.908a8.7,8.7,0,0,0-8.559-7.2H74.718A8.7,8.7,0,0,0,66.8,62.3L49.992,55.788V50.616a16.06,16.06,0,0,0,6.2-10.844,7.163,7.163,0,0,0,5.169-11.9V21.325a21.325,21.325,0,1,0-42.65,0v6.712A6.753,6.753,0,0,0,16.918,32.6a7.191,7.191,0,0,0,6.964,7.17,15.883,15.883,0,0,0,6.553,11.094v4.923L9.485,63.91l-.028.011A15.278,15.278,0,0,0,.424,77.878V98.394A3.382,3.382,0,0,0,3.8,101.772c77.257,0,34.061.025,94.3.025a3.957,3.957,0,0,0,3.953-3.953V68.332A3.957,3.957,0,0,0,98.1,64.38ZM74.718,60.165h7.631a5.716,5.716,0,0,1,5.509,4.215H71.92c-.531-.29-.88-.438-.925-.457l-.032-.013-1.373-.532A5.71,5.71,0,0,1,74.718,60.165Zm-20.367.511-5.37,10.762L46.972,70.01,46.964,70l-4.592-3.261,6.6-8.15Zm-14.132,8.2L44.058,71.6l-1.535,2.31H37.915L36.38,71.6Zm0-4.21-6.8-8.4v-3.72a16.834,16.834,0,0,0,13.591-.122v3.856ZM60.175,32.6a4.2,4.2,0,0,1-3.864,4.169V28.433A4.2,4.2,0,0,1,60.175,32.6Zm-36.41,4.169A4.194,4.194,0,0,1,19.9,32.6a4.427,4.427,0,0,1,3.864-4.1Zm.049-11.284a8.4,8.4,0,0,0-2.118.5V21.325a18.342,18.342,0,1,1,36.683,0v4.532a7.5,7.5,0,0,0-2.068-.418v-.4c0-1.377-.193-1.312-5.414-6.924a2.845,2.845,0,0,0-3.636-.443,33.819,33.819,0,0,1-20.444,5.5h-.01A2.845,2.845,0,0,0,23.814,25.487Zm2.934,12.371V26.16a36.88,36.88,0,0,0,22.046-5.925c2.7,2.9,4.145,4.4,4.534,4.9V37.858a13.292,13.292,0,0,1-26.58,0ZM31.454,58.6l6.6,8.152L33.473,70l-.007.006-2.009,1.427-5.37-10.762ZM17.208,98.788V81.055a1.492,1.492,0,1,0-2.983,0V98.788H3.8a.4.4,0,0,1-.395-.395V77.878a12.3,12.3,0,0,1,7.175-11.194l12.71-4.928,5.591,11.205a2.8,2.8,0,0,0,4.125,1.032l.938-.666,1.6,2.407-3.9,23.053H17.208Zm37.922,0H48.794l-1.3-7.681a1.492,1.492,0,1,0-2.941.5l1.216,7.184h-11.1l3.706-21.9h3.687l1.312,7.751a1.492,1.492,0,1,0,2.941-.5l-1.424-8.411,1.6-2.407.938.666a2.8,2.8,0,0,0,4.125-1.032h0l5.591-11.2,6.77,2.622H58.968a3.957,3.957,0,0,0-3.953,3.953V97.844A4.111,4.111,0,0,0,55.13,98.788ZM99.069,78.775H95.92V77.1a2.617,2.617,0,0,0-2.614-2.614H89.418A2.617,2.617,0,0,0,86.8,77.1v1.679H81.969a1.492,1.492,0,1,0,0,2.983H86.8v1.826A2.617,2.617,0,0,0,89.418,86.2h3.888a2.617,2.617,0,0,0,2.614-2.614V81.759h3.149V97.844a.971.971,0,0,1-.97.97H58.968a.983.983,0,0,1-.969-.97V81.759h3.06v1.826A2.617,2.617,0,0,0,63.672,86.2H67.56a2.617,2.617,0,0,0,2.614-2.614V81.759h4.835a1.492,1.492,0,1,0,0-2.983H70.174V77.1a2.617,2.617,0,0,0-2.614-2.614H63.672A2.617,2.617,0,0,0,61.058,77.1v1.679H58V68.332a.971.971,0,0,1,.969-.97H98.1a.971.971,0,0,1,.97.97V78.775Zm-6.132-1.31v5.749H89.787V77.466Zm-28.9,5.749V77.466H67.19v5.749Z" transform="translate(-0.424 0)" fill="#fff"/>
      </g>
    </g>
  </g>
</svg>
